<svg xmlns="http://www.w3.org/2000/svg" xmlns:xlink="http://www.w3.org/1999/xlink" x="0px" y="0px" width="960px" height="480px" viewBox="0 0 960 480"><g  transform="translate(24, 24)">
<path fill="#444444" d="M11.85662,31.53889c0.01049,0.02911,0.2592,0.7167,0.40326,1.05754
	c0.79095,1.87016,1.92362,3.55009,3.36665,4.9931c1.44193,1.44189,3.12206,2.57442,4.99378,3.36609
	c1.93756,0.81963,3.99533,1.23521,6.11614,1.23521c2.12042,0,4.17819-0.41565,6.11615-1.23537
	c1.871-0.79137,3.5512-1.92407,4.99377-3.36662c1.44245-1.44235,2.57512-3.12251,3.36665-4.99372
	c0.81963-1.93785,1.23521-3.99563,1.23521-6.11618c0-2.12071-0.41558-4.17848-1.23521-6.11618
	c-0.7914-1.87107-1.92406-3.55123-3.36665-4.99381c-1.44212-1.44226-3.12231-2.57498-4.99377-3.36668
	c-1.93776-0.81963-3.99553-1.23522-6.11615-1.23522c-2.14578,0-4.28986,0.42712-6.20057,1.23522
	c-1.52719,0.64612-4.11229,2.30944-5.62547,3.86998l-0.00893,0.00916V2.95074l21.72096-0.0002
	c0.79042-0.00864,0.79042-1.11246,0.79042-1.47517c0-0.36265,0-1.46618-0.79284-1.4752L13.13395,0
	c-0.63938,0-1.03515,0.53185-1.03515,1.02462v18.20053c0,0.58719,0.73143,1.01115,1.41103,1.15656
	c1.3272,0.28348,1.63378-0.14074,1.95882-0.58967l0.04309-0.05955c0.49622-0.73713,2.04695-2.29784,2.06246-2.31338
	c2.42003-2.41993,5.65578-3.75264,9.11109-3.75264c3.43881,0,6.66537,1.3327,9.08533,3.7526
	c2.42818,2.42831,3.76548,5.64584,3.76548,9.05988c0,3.42636-1.33046,6.64376-3.74625,9.05959
	c-2.38496,2.38493-5.71667,3.75277-9.14081,3.75277c-2.31925,0-4.55799-0.61797-6.47573-1.78746l0.00821-11.06667
	c0-1.4756,0.64035-3.07972,1.71292-4.29101c1.22628-1.38479,2.91625-2.14744,4.75877-2.14744
	c1.78437,0,3.45087,0.67741,4.6926,1.90744c1.23279,1.22129,1.91175,2.84842,1.91175,4.58165
	c0,3.6982-2.90804,6.59513-6.62039,6.59513c-0.71565,0-2.01664-0.3162-2.07009-0.32924
	c-0.74961-0.22324-1.06846,0.81738-1.17341,1.16038c-0.40346,1.31918,0.20287,1.58068,0.32849,1.61973
	c1.19466,0.37073,1.97798,0.44101,3.00563,0.44101c5.24065,0,9.50424-4.26568,9.50424-9.50887
	c0-5.20111-4.26098-9.43254-9.49844-9.43254c-2.56482,0-4.97429,0.98042-6.78447,2.76068
	c-1.72394,1.69542-2.71267,3.95606-2.71267,6.20171l-0.00098,0.05574c-0.00841,0.28002-0.01389,6.91429-0.01545,9.09146
	l-0.00978-0.01081c-0.98514-1.09076-1.95868-2.76036-2.60425-4.46621c-0.25307-0.66855-0.82458-0.5502-1.60458-0.31001
	c-0.34062,0.10492-1.37726,0.42425-1.14799,1.1736L11.85662,31.53889z"/>
<path data-color="color-2" fill="#444444" d="M23.02059,28.93877c0.00339,0.31812,0.29446,0.59698,0.46832,0.76363l0.05463,0.05271
	c0.29818,0.29329,0.58221,0.44199,0.84408,0.44199c0.21688,0,0.35052-0.10258,0.39785-0.14665
	c0.13136-0.12197,1.61716-1.62749,1.75888-1.7711l1.65698,1.65165c0.15339,0.17282,0.32015,0.25942,0.51448,0.26476
	c0.2646,0,0.55294-0.15733,0.85698-0.46766c0.715-0.73006,0.35724-1.1237,0.18423-1.31403l-1.67889-1.67941l1.75086-1.76325
	c0.38397-0.41545,0.04498-0.85698-0.29322-1.19521c-0.49107-0.49108-0.96487-0.61781-1.26853-0.33798l-1.74095,1.74395
	l-1.76051-1.761c-0.09329-0.08941-0.21095-0.13667-0.34029-0.13667c-0.23462,0-0.5122,0.15864-0.82511,0.47155
	c-0.54146,0.54133-0.65757,0.91559-0.37575,1.21415l1.76097,1.75559l-1.7506,1.75373
	C23.09099,28.62332,23.01883,28.77785,23.02059,28.93877z"/>
<path data-color="color-2" fill="#444444" d="M26.85738,5.1428c-2.81443,0-5.80812,0.56813-8.00768,1.5196
	c-0.23514,0.09205-0.37569,0.28093-0.40652,0.54622c-0.02894,0.2503,0.03866,0.58051,0.20685,1.01024
	c0.13638,0.34857,0.4987,1.27452,1.20014,1.00692c2.25113-0.85871,4.73967-1.33162,7.00722-1.33162
	c2.56938,0,5.06125,0.50293,7.40652,1.49486c1.8635,0.78833,3.6218,1.92703,5.53348,3.58356
	c0.13937,0.12083,0.28729,0.18207,0.43963,0.18207c0.37269,0,0.73019-0.36607,1.036-0.70923
	c0.51043-0.57265,0.86095-1.04857,0.35808-1.52491c-1.82557-1.72935-3.82597-3.02121-6.29548-4.06551
	C32.64987,5.71888,29.79737,5.1428,26.85738,5.1428z"/>
<path data-color="color-2" fill="#444444" d="M42.02269,39.89665h0.00006c-0.33866-0.33772-0.62634-0.53716-0.87941-0.60975
	c-0.25658-0.07367-0.48573-0.01878-0.66272,0.1587l-0.16662,0.1663c-1.74434,1.74453-3.77565,3.11414-6.0374,4.07076
	c-2.34056,0.99-4.82761,1.49196-7.3921,1.49196c-2.5645,0-5.05147-0.50196-7.39204-1.49196
	c-2.26155-0.95652-4.29273-2.32606-6.03714-4.07063c-1.81742-1.81739-3.18698-3.84847-4.0705-6.03688
	c-0.86148-2.13385-1.14284-3.73875-1.23528-4.2661c-0.00867-0.04938-0.01552-0.08846-0.02089-0.11673
	c-0.11855-0.62096-0.69013-0.66441-1.51155-0.53876c-0.34162,0.05228-1.3812,0.21131-1.28221,0.95927l0.00238,0.01708
	c0.27523,1.7314,0.76145,3.42903,1.44519,5.0457c1.099,2.59829,2.67193,4.93129,4.675,6.93421
	c2.00314,2.00324,4.33628,3.5761,6.93448,4.67494C21.08192,47.42291,23.93924,48,26.8845,48
	c2.94376,0,5.80115-0.57738,8.49263-1.71608c2.59734-1.09844,4.93048-2.67163,6.93454-4.67575
	c0.00463-0.0046,0.11408-0.11324,0.17399-0.17846C42.7062,41.18961,42.89812,40.76947,42.02269,39.89665z"/>
</g><g  transform="translate(120, 24)"><path fill="#444444" d="M7.15293,34.07059c0-3.83453,1.62895-5.85893,4.8-6.72941c-0.50196-1.2549-0.75294-2.18039-0.75294-2.77647
	c0-2.20661,2.78837-4.94118,4.89412-4.94118c0.53333,0,1.16079,0.14118,1.88235,0.42353
	c-1.50588-4.29804-2.58823-7.56078-3.24706-9.78823c-0.86017-2.90307-2.01157-6.67816,0-8.94118
	C15.51372,0.43922,16.5647,0,17.88235,0c2.25882,0,4.97255,4.62745,8.14118,13.88235l0.8,2.30588
	c1.20033-3.00082,4.88375-15.29412,9.0353-15.29412c1.2549,0,2.24314,0.42353,2.96471,1.27059
	c2.02848,2.28204,0.83306,5.66133,0,8.61176c-0.65882,2.2902-1.69412,5.42745-3.10588,9.41177
	c1.78823,0.43921,3.07451,1.28627,3.85883,2.54118c0.84706,1.34902,1.27059,3.43529,1.27059,6.25882
	c0,5.58432-1.66275,10.14902-4.98824,13.69412C32.47058,46.22745,28.17254,48,22.9647,48
	c-6.43162,0-12.0802-3.77773-14.58823-8.89412C7.56078,37.41177,7.15293,35.73333,7.15293,34.07059z M10.21176,33.83529
	c0,1.96574,1.31226,4.33846,2.49412,5.92941c2.76824,3.57846,6.38809,5.12941,10.63529,5.12941
	c4.04706,0,7.45098-1.52157,10.21177-4.56471c2.72941-3.01176,4.09412-6.82353,4.09412-11.43529
	c0-1.57722-0.00425-3.93641-1.17647-4.94118c-0.84706-0.72157-2.5098-1.34902-4.98824-1.88235
	c-2.47843-0.56471-5.11372-0.84706-7.90588-0.84706c-1.07907,0-1.64706,0.16292-1.64706,1.22353
	c0,1.28627,0.72157,2.19608,2.16471,2.72941c1.56863,0.65882,4.15686,0.98824,7.76471,0.98824h1.31765
	c0.73756,0,1.39246,0.3853,1.6,1.97647c-1.3528,1.3528-3.58117,1.53439-5.08235,2.68235
	c-1.2549,0.9098-2.25882,1.99216-3.01176,3.24706c-0.72157,1.22353-1.08235,2.38432-1.08235,3.48235
	c0,0.65882,0.15686,1.45882,0.47059,2.4c0.3451,1.03529,0.51761,1.7098,0.51761,2.02353
	c-0.00828,0.29124-0.09408,0.49412-0.44696,0.6353c-1.4588,0.32941-2.12555-0.38432-2.753-1.57647
	c-0.53333-1.00392-0.83137-2.2902-0.89412-3.85882c-0.18997,0.06332-0.87779,0.04706-1.08235,0.04706
	c0.03137,0.15686,0.04706,0.3451,0.04706,0.5647c0,0.94118-0.36078,1.74118-1.08235,2.4
	c-0.72157,0.65882-1.56863,0.98824-2.54118,0.98824c-1.47451,0-2.96471-0.70588-4.47059-2.11765
	c-1.50588-1.44314-2.25882-2.8549-2.25882-4.23529c0-0.81907,0.35039-1.24451,0.89412-1.78823
	c0.78431,0.97255,1.31765,1.64706,1.6,2.02353c1.31765,1.85098,2.5098,2.77647,3.57647,2.77647
	c0.59893,0,1.08235-0.44372,1.08235-0.75294c0-0.25098-0.18824-0.70588-0.56471-1.3647
	c-0.55047-1.03213-2.72209-3.91092-3.85882-4.84706c-0.47059-0.43921-0.81569-0.65882-1.03529-0.65882
	C11.74108,30.21177,10.21176,31.57092,10.21176,33.83529z M14.44705,24.84706c0,0.40784,0.25098,1.11373,0.75294,2.11765
	c0.92526,1.78443,3.10059,4.66358,4.75294,6.11765c0.75294,0.62745,1.31765,0.94118,1.69412,0.94118
	c0.48287,0,0.98824-0.57428,0.98824-1.08235c0-0.37647-0.28235-1.28627-0.84706-2.72941c-0.77729-1.88772-2.43055-5.34281-4-6.63529
	c-0.50196-0.47059-0.98824-0.70588-1.45882-0.70588C15.65802,22.87059,14.44705,24.10072,14.44705,24.84706z M16.5647,4.51765
	c0,1.06667,0.37647,2.7451,1.12941,5.03529c0.6902,2.22745,1.72549,5.20784,3.10588,8.94118
	c0.71058-0.42635,2.43125-0.2239,3.34118-0.14118l-3.24706-9.41177C20.01568,6.43137,19.32548,4.8,18.82352,4.04706
	c-0.40784-0.65882-0.81569-0.98824-1.22353-0.98824C16.91751,3.05882,16.5647,3.82956,16.5647,4.51765z M24.37646,28.51765
	c0.28235,0.72157,0.58039,1.50588,0.89412,2.35294c0.62745-0.72157,1.2549-1.31765,1.88235-1.78823
	C26.1957,28.8909,25.42523,28.86724,24.37646,28.51765z M29.31764,18.91765l3.15294,0.56471
	c1.41177-3.8902,2.49412-7.01176,3.24706-9.36471c0.43381-1.40555,1.69067-4.60948,0.84706-5.69412
	c-0.28518-0.49905-1.16394-0.64828-2.16471,0.94118c-0.59608,0.9098-1.27059,2.49412-2.02353,4.75294L29.31764,18.91765z"/></g><g  transform="translate(216, 24)">
<path fill="#444444" d="M19.4,22.4c0,0,4.5-0.3,4.5-5.7c0-5.3-3.7-7.9-8.4-7.9H6.8H6.6H0v29.8h6.6h0.3h8.7c0,0,9.5,0.3,9.5-8.8
	C24.9,29.8,25.4,22.4,19.4,22.4z M6.8,14.1h7.5h1.1c0,0,2.1,0,2.1,3.1s-1.2,3.5-2.6,3.5H6.8V14.1z M15.1,33.3H6.8v-8h8.7
	c0,0,3.1,0,3.1,4.1C18.6,32.9,16.3,33.2,15.1,33.3z"/>
<path fill="#444444" d="M37.6,16.4c-11.4,0-11.4,11.4-11.4,11.4s-0.8,11.4,11.4,11.4c0,0,10.2,0.6,10.2-7.9h-5.2
	c0,0,0.2,3.2-4.8,3.2c0,0-5.2,0.4-5.2-5.2h15.4C47.9,29.3,49.6,16.4,37.6,16.4z M42.2,25.3h-9.8c0,0,0.6-4.6,5.2-4.6
	C42.3,20.7,42.2,25.3,42.2,25.3z"/>
<rect data-color="color-2" x="31" y="10" fill="#444444" width="13" height="4"/>
</g><g  transform="translate(312, 24)">
<path fill-rule="evenodd" clip-rule="evenodd" fill="#444444" d="M46.7,18.6c-1-0.4-5.3,0-6.5-1c-0.8-0.8-0.9-2.2-1.2-4.1
	c-0.6-3.2-0.8-3.9-1.4-5.1C35.5,3.8,30.4,0,25.8,0H15.2C6.9,0,0.1,6.8,0.1,15.2v17.7C0.1,41.2,6.9,48,15.2,48h17.4
	c8.3,0,15.1-6.8,15.2-15.1l0.1-12.3C47.9,20.6,47.9,19.1,46.7,18.6z M15,12h8c1.7,0,3,1.3,3,3v0c0,1.7-1.3,3-3,3h-8
	c-1.7,0-3-1.3-3-3v0C12,13.3,13.3,12,15,12z M33,36H15c-1.7,0-3-1.3-3-3v0c0-1.7,1.3-3,3-3h18c1.7,0,3,1.3,3,3v0
	C36,34.7,34.7,36,33,36z"/>
</g><g  transform="translate(408, 24)">
<path fill="#444444" d="M22.81235,0.26375L1.17026,10.37494c-0.64935,0.30337-0.64666,1.22771,0.00445,1.5273l21.80884,10.03483
	c0.64513,0.29684,1.38778,0.29684,2.03291,0l21.80885-10.03483c0.6511-0.29959,0.65379-1.22392,0.00445-1.5273L25.18764,0.26375
	C24.43493-0.08792,23.56506-0.08792,22.81235,0.26375z"/>
<path data-color="color-2" fill="#444444" d="M46.82974,23.35217l-4.46971-2.08825c-0.64787-0.30268-1.39613-0.30486-2.04575-0.00595
	l-15.29784,7.03894c-0.64513,0.29684-1.38778,0.29684-2.03291,0L7.68571,21.25797c-0.64962-0.29891-1.39788-0.29673-2.04575,0.00596
	l-4.46971,2.08825c-0.64935,0.30338-0.64665,1.22771,0.00445,1.5273L22.98354,34.9143c0.64513,0.29684,1.38778,0.29684,2.03291,0
	l21.80885-10.03483C47.4764,24.57988,47.47909,23.65554,46.82974,23.35217z"/>
<path data-color="color-2" fill="#444444" d="M46.82974,36.21524l-4.46971-2.08825c-0.64787-0.30268-1.39613-0.30486-2.04575-0.00595
	l-15.29784,7.03894c-0.64513,0.29684-1.38778,0.29684-2.03291,0L7.68571,34.12103c-0.64962-0.29891-1.39788-0.29673-2.04575,0.00596
	l-4.46971,2.08825c-0.64935,0.30338-0.64665,1.22771,0.00445,1.52729l21.80884,10.03483c0.64513,0.29684,1.38778,0.29684,2.03291,0
	l21.80885-10.03483C47.4764,37.44295,47.47909,36.51861,46.82974,36.21524z"/>
</g><g  transform="translate(504, 24)">
<polygon fill="#444444" points="14.2,1.6 33.8,1.6 48,46.4 34.7,46.4 24.1,8.7 17.2,32.4 30.7,32.4 13.9,46.4 0,46.4 "/>
</g><g  transform="translate(600, 24)">
<path fill="#444444" d="M48,16.4C48,16.4,48,16.4,48,16.4c0-0.1,0-0.2-0.1-0.3c0,0,0-0.1,0-0.1c0-0.1,0-0.1-0.1-0.2c0,0,0-0.1,0-0.1
	c0,0,0-0.1-0.1-0.1c0,0,0-0.1-0.1-0.1c0,0-0.1-0.1-0.1-0.1c0,0,0-0.1-0.1-0.1c0,0-0.1-0.1-0.1-0.1c0,0-0.1-0.1-0.1-0.1
	c0,0-0.1-0.1-0.1-0.1c0,0-0.1,0-0.1-0.1c0,0,0,0,0,0L25.1,0.3c-0.7-0.5-1.6-0.5-2.3,0L0.9,15c0,0,0,0,0,0c0,0-0.1,0-0.1,0.1
	c0,0-0.1,0.1-0.1,0.1c0,0-0.1,0.1-0.1,0.1c0,0-0.1,0.1-0.1,0.1c0,0,0,0.1-0.1,0.1c0,0-0.1,0.1-0.1,0.1c0,0,0,0.1-0.1,0.1
	c0,0,0,0.1-0.1,0.1c0,0,0,0.1,0,0.1c0,0,0,0.1-0.1,0.2c0,0,0,0.1,0,0.1c0,0.1,0,0.1,0,0.2c0,0,0,0.1,0,0.1c0,0.1,0,0.2,0,0.3v14.6
	c0,0.1,0,0.2,0,0.3c0,0,0,0.1,0,0.1c0,0.1,0,0.1,0,0.2c0,0,0,0.1,0,0.1c0,0.1,0,0.1,0.1,0.2c0,0,0,0.1,0,0.1c0,0,0,0.1,0.1,0.1
	c0,0,0,0.1,0.1,0.1c0,0,0.1,0.1,0.1,0.1c0,0,0,0.1,0.1,0.1c0,0,0.1,0.1,0.1,0.1c0,0,0.1,0.1,0.1,0.1c0,0,0.1,0.1,0.1,0.1
	c0,0,0.1,0,0.1,0.1c0,0,0,0,0,0l21.9,14.6c0.3,0.2,0.7,0.3,1.1,0.3c0.4,0,0.8-0.1,1.1-0.3L47.1,33c0,0,0,0,0,0c0,0,0.1,0,0.1-0.1
	c0,0,0.1-0.1,0.1-0.1c0,0,0.1-0.1,0.1-0.1c0,0,0.1-0.1,0.1-0.1c0,0,0-0.1,0.1-0.1c0,0,0.1-0.1,0.1-0.1c0,0,0-0.1,0.1-0.1
	c0,0,0-0.1,0.1-0.1c0,0,0-0.1,0-0.1c0-0.1,0-0.1,0.1-0.2c0,0,0-0.1,0-0.1c0-0.1,0-0.1,0-0.2c0,0,0-0.1,0-0.1c0-0.1,0-0.2,0-0.3V16.7
	C48,16.6,48,16.5,48,16.4z M26.1,5.9l16.2,10.8L35,21.5l-8.9-6V5.9z M21.9,5.9v9.6l-8.9,6l-7.2-4.8L21.9,5.9z M4.1,20.5L9.3,24
	l-5.2,3.5V20.5z M21.9,42.1L5.8,31.3l7.2-4.8l8.9,6V42.1z M24,28.9L16.7,24l7.3-4.9l7.3,4.9L24,28.9z M26.1,42.1v-9.6l8.9-6l7.2,4.8
	L26.1,42.1z M43.9,27.5L38.7,24l5.2-3.5V27.5z"/>
</g><g  transform="translate(696, 24)">
<path fill="#444444" d="M48,18.7c0-1.8-0.8-12.8-0.8-12.8c0-1.7-0.6-2.9-1.4-3.7c-0.8-0.8-1.9-1.4-3.7-1.4c0,0-10.9-0.8-12.8-0.8
	c-2.6,0-4.4-0.1-7.7,3.2C20,4.8,2.2,22.7,1.4,23.4c-0.8,0.8-3.3,3.7,1,8l14.1,14.1c4.3,4.3,7.3,1.8,8,1c0.7-0.8,18.6-18.6,20.2-20.2
	C48.1,23.1,48,21.3,48,18.7z M28.9,24.6l6.1,2.9l-2.2,4l-5.6-3.7c-0.1-0.1-0.3-0.1-0.4-0.1c-0.1,0-0.3,0-0.4,0.1
	c-0.3,0.1-0.4,0.4-0.4,0.7l0.5,6.7h-4.5c0,0,0,0,0,0c0-0.1,0.4-6.7,0.4-6.7c0-0.3-0.1-0.6-0.4-0.7c-0.3-0.1-0.6-0.1-0.8,0l-5.5,3.7
	l-2.5-3.9l6.2-3.1c0.3-0.1,0.4-0.4,0.4-0.7c0-0.3-0.2-0.6-0.4-0.7l-6.1-2.9l2.2-4l5.6,3.7c0.2,0.2,0.6,0.2,0.8,0
	c0.3-0.1,0.4-0.4,0.4-0.7l-0.5-6.7h4.5L26,19.3c0,0.3,0.1,0.6,0.4,0.7c0.3,0.1,0.6,0.1,0.8,0l5.5-3.7l2.5,3.9l-6.2,3.1
	c-0.3,0.1-0.4,0.4-0.4,0.7C28.5,24.2,28.7,24.4,28.9,24.6z M39.4,11.8c-1.6,0-2.9-1.3-2.9-2.9c0-1.6,1.3-2.9,2.9-2.9
	c1.6,0,2.9,1.3,2.9,2.9C42.3,10.5,41,11.8,39.4,11.8z"/>
</g><g  transform="translate(792, 24)"><path data-color="color-2" fill="#444444" d="M20.17161,18.77228h2.21782c0,0-1.68977-8.39604-9.87459-8.39604
	S-0.00001,16.9769-0.00001,23.78878s3.85479,13.83499,11.9868,13.83499s10.82508-7.49835,10.82508-10.29703h-2.37624
	c0,0-0.95049,8.29043-8.07921,8.29043S2.27062,29.49175,2.27062,23.84158S6.0198,12.48845,12.46204,12.48845
	S20.17161,18.77228,20.17161,18.77228z"/>
<path fill="#444444" d="M42.98349,23.07591c3.27393-1.0033,3.90759-3.25632,3.90759-5.49175
	c0-2.34104-1.16172-6.44224-5.86139-6.44224s-14.36304,0-14.36304,0v25.71617c0,0,11.24752,0,14.52145,0
	c3.27393,0,6.81188-3.32673,6.81188-7.0231C47.99999,26.64906,46.50383,23.86799,42.98349,23.07591z M31.15511,14.78548h7.76237
	c1.91507,0,3.46754,1.55247,3.46754,3.46754c0,1.91509-1.55247,3.46756-3.46754,3.46756h-7.76237V14.78548z M39.46315,33.26733
	h-8.30804v-8.0264h8.30804c2.21643,0,4.0132,1.79677,4.0132,4.0132S41.67958,33.26733,39.46315,33.26733z"/></g><g  transform="translate(888, 24)">
<polygon fill="#444444" points="38.9,0 30.2,0 29,1.2 24.9,9.1 24,10 8,10 8,21.6 17.3,21.6 17.9,22.3 9.1,39.1 9.1,48 17.9,48 
	18.9,46.9 23.1,39 24,38 40,38 40,26.4 30.7,26.4 30,25.7 38.9,8.8 "/>
</g><g  transform="translate(24, 120)">
<path fill-rule="evenodd" clip-rule="evenodd" fill="#444444" d="M24,48C10.8,48,0,37.2,0,24S10.8,0,24,0s24,10.8,24,24
	S37.2,48,24,48z M44.2,27.3c-0.7-0.2-6.3-1.9-12.8-0.9c2.7,7.4,3.8,13.4,4,14.6C40.1,37.9,43.3,33,44.2,27.3z M32,42.9
	c-0.3-1.8-1.5-8.1-4.4-15.5c0,0-0.1,0-0.1,0c-11.6,4-15.7,12-16.1,12.8c3.5,2.7,7.8,4.3,12.6,4.3C26.8,44.5,29.5,44,32,42.9z
	 M8.8,37.7c0.5-0.8,6.1-10.1,16.7-13.5c0.3-0.1,0.5-0.2,0.8-0.2c-0.5-1.2-1.1-2.3-1.7-3.5c-10.2,3.1-20.2,2.9-21.1,2.9
	c0,0.2,0,0.4,0,0.6C3.5,29.3,5.5,34.1,8.8,37.7z M3.9,19.8c0.9,0,9.4,0,19-2.5c-3.4-6-7.1-11.1-7.6-11.9C9.5,8.2,5.3,13.5,3.9,19.8z
	 M19.2,4.1c0.6,0.8,4.3,5.8,7.6,12c7.3-2.7,10.4-6.9,10.7-7.4C34,5.5,29.2,3.5,24,3.5C22.3,3.5,20.7,3.7,19.2,4.1z M39.9,11.1
	c-0.4,0.6-3.9,5-11.4,8.1c0.5,1,0.9,2,1.4,3c0.2,0.4,0.3,0.7,0.4,1.1c6.8-0.9,13.6,0.5,14.3,0.7C44.5,19,42.7,14.6,39.9,11.1z"/>
</g><g  transform="translate(120, 120)">
<polygon fill="#444444" points="14.11978,1.67737 0,10.89649 9.76318,18.71473 23.99977,9.92379 "/>
<polygon fill="#444444" points="0,26.53349 14.11978,35.75256 23.99977,27.50568 9.76318,18.71473 "/>
<polygon fill="#444444" points="23.99977,27.50568 33.88022,35.75256 48,26.53349 38.23682,18.71473 "/>
<polygon fill="#444444" points="48,10.89649 33.88022,1.67737 23.99977,9.92379 38.23682,18.71473 "/>
<polygon data-color="color-2" fill="#444444" points="24.02898,29.27989 14.11978,37.50248 9.87953,34.73409 9.87953,37.83767 
	24.02898,46.32264 38.17839,37.83767 38.17839,34.73409 33.93814,37.50248 "/>
</g><g  transform="translate(216, 120)">
<path fill="#444444" d="M38.9,0.3c2.2,1.1,11.1,19.9,3.5,36.4C36.3,49.8,21,49.8,13.2,45.2c-6.6-4-16.7-16.5-5.5-31.8
	c0.5-0.6,1.6-0.5,1.4,1.2c-0.2,1.2-1.8,10.2,1.3,14.1c1.4,1.9,1.7,0.6,1.7,0.6s-0.2-13,9.8-22.9C28.3,0.4,37.1-0.6,38.9,0.3z"/>
</g><g  transform="translate(312, 120)">
<path data-color="color-2" fill="#444444" d="M7.93153,9.29681c0,0,0,0,0.00295,0h4.5048c0.25811,0,0.46572-0.21023,0.46624-0.4664
	c0-0.00161-0.0547-3.86254-0.0547-4.93621V3.88147c0-0.88178,0.18507-1.65062,0.50745-2.29486l0.15404-0.28934
	c-0.01721,0.00291-0.03446,0.01135-0.05159,0.02852l-8.7529,8.67977c-0.01713,0.0141-0.02784,0.03236-0.03276,0.05111
	c0.18106-0.0896,0.42859-0.21205,0.46353-0.2274C5.90084,9.48531,6.82517,9.29681,7.93153,9.29681z"/>
<path fill="#444444" d="M42.9845,8.35168c-0.35785-1.91553-1.49664-2.85956-2.52631-3.23071
	c-1.11096-0.40149-3.36353-0.81738-6.19379-1.151c-2.27704-0.26813-4.95331-0.24683-6.56989-0.19684
	c-0.19403-1.32892-1.12616-2.54297-2.16907-2.96326c-2.77887-1.11847-7.07239-0.84833-8.17474-0.53931
	c-0.87598,0.24481-1.84546,0.74652-2.38513,1.51971c-0.36188,0.51642-0.59601,1.17804-0.59784,2.10236
	c0,0.52319,0.01459,1.75549,0.02789,2.85046c0.01324,1.09833,0.02765,2.08069,0.02765,2.08728
	c-0.00055,0.97791-0.79303,1.77368-1.77521,1.77496H8.14258c-0.96106,0-1.69537,0.1615-2.25629,0.41638
	c-0.56177,0.25507-0.95966,0.59894-1.26196,1.00574c-0.60181,0.80786-0.70624,1.80475-0.70374,2.82214
	c0,0,0.00885,0.8313,0.20911,2.44037c0.16656,1.24506,1.51672,9.9425,2.79919,12.58765
	c0.49719,1.02924,0.82837,1.45782,1.8053,1.91144c2.17657,0.93182,7.14813,1.96857,9.47821,2.26538
	c2.32593,0.29761,3.78571,0.92322,4.65576-0.90088c0.00287-0.00452,0.17426-0.45386,0.40997-1.11292
	c0.75531-2.2887,0.86041-4.31952,0.86041-5.78906c0-0.14935,0.21924-0.15625,0.21924,0c0,1.03754-0.19812,4.70898,2.57526,5.69397
	c1.09485,0.38831,3.36609,0.73444,5.67389,1.00494c2.08667,0.23987,3.60101,1.06097,3.60101,6.41455
	c0,3.25714-0.68408,3.70367-4.2605,3.70367c-2.89911,0-4.00397,0.07507-4.00397-2.22815c0-1.86151,1.84106-1.66638,3.20557-1.66638
	c0.60944,0,0.16705-0.45331,0.16705-1.60181c0-1.1424,0.71454-1.80286,0.0387-1.81952
	c-4.71826-0.12988-7.49451-0.00543-7.49451,5.89545c0,5.35699,2.05005,6.35168,8.74664,6.35168
	c5.25049,0,7.10126-0.17194,9.26929-6.89868c0.42914-1.32788,1.46655-5.38049,2.09448-12.18469
	C44.36749,24.61432,43.59625,11.62903,42.9845,8.35168z M33.83191,22.70453c-0.64868-0.02271-1.27258,0.01825-1.85431,0.11176
	c0.1637-1.32239,0.70953-2.94501,2.64307-2.87714c2.14044,0.07361,2.44031,2.09668,2.448,3.46692
	C36.16608,23.00372,35.04883,22.74725,33.83191,22.70453z"/>
</g><g  transform="translate(408, 120)">
<path fill="#444444" d="M46,0H2C0.89543,0,0,0.89543,0,2v44c0,1.10457,0.89543,2,2,2h23.63829V29.4119h-6.25529v-7.24417h6.25529
	v-5.34235c0-6.19977,3.78661-9.57566,9.31723-9.57566c2.64922,0,4.92609,0.19724,5.58963,0.2854v6.47912l-3.83577,0.00174
	c-3.00786,0-3.59026,1.42929-3.59026,3.52668v4.62507h7.17347l-0.93401,7.24417h-6.23946V48H46c1.10457,0,2-0.89543,2-2V2
	C48,0.89543,47.10457,0,46,0z"/>
</g><g  transform="translate(504, 120)"><path fill="#444444" d="M19.32924,46V25.92955h-6.75413v-7.82187h6.75413v-5.76839C19.32924,5.64511,23.41782,2,29.38949,2
	c2.86049,0,5.31894,0.21297,6.03539,0.30816v6.99581l-4.14167,0.00188c-3.24773,0-3.87657,1.54327-3.87657,3.80792v4.99391h7.74553
	l-1.0085,7.82187h-6.73704V46H19.32924z"/></g><g  transform="translate(600, 120)">
<path fill="#444444" d="M45.3,21.9c-5.5-5.5-11-11-16.5-16.5c-0.8-0.8-1.6-1.7-2.6-2.1c-1.1-0.5-2.3-0.6-3.4-0.3
	c-1,0.2-1.9,0.8-2.6,1.5C14,10.6,7.8,16.8,1.7,22.9c-0.7,0.7-1.3,1.6-1.5,2.6c-0.5,1.8,0.1,3.8,1.4,5c4.4,4.4,8.7,8.7,13.1,13.1
	c1,1,2.3,1.6,3.7,1.6c3.6,0,7.1,0,10.7,0c1.6,0.1,3.2-0.5,4.4-1.6c3.9-3.9,7.9-7.9,11.8-11.8c0.6-0.7,1.3-1.3,1.9-2
	c1-1.4,1.1-3.2,0.6-4.8C47.2,23.7,46.2,22.8,45.3,21.9z M14.4,28.9c-0.7,0.8-1.8,0.6-2.8,0.4c-0.8-0.6-1.5-1.4-2.2-2.2
	c-0.4-0.4,0.1-0.9,0.4-1.2c4.1-4,8.1-8.1,12.2-12.2c0.5-0.5,1-1.1,1.6-1.6c0.5-0.3,0.9,0.3,1.3,0.6c0.7,0.8,1.6,1.5,2.3,2.4
	c0.4,0.4,0,0.9-0.3,1.2C22.8,20.6,18.6,24.7,14.4,28.9z M27.2,38.5c-0.6,0.7-1.3,1.4-2.1,2.1c-0.7,0.2-1.4,0.1-2.1,0
	c-0.7-0.3-1.1-1-1.7-1.5c-0.4-0.4-1-1-0.5-1.5c0.9-1,1.8-1.9,2.7-2.7c0.4-0.3,0.9-0.2,1.2,0.2c0.8,0.8,1.6,1.6,2.4,2.4
	C27.4,37.6,27.6,38.2,27.2,38.5z M27,27.6c-2.3,2.3-4.6,4.6-6.9,6.9c-0.6,0.8-1.8,0.5-2.7,0.5c-0.9-0.5-1.5-1.4-2.2-2.1
	c-0.5-0.4,0-1,0.3-1.3c2.3-2.3,4.6-4.6,6.9-6.9c0.4-0.4,0.8-0.9,1.3-1.2c0.5-0.2,0.9,0.3,1.2,0.6c0.8,0.8,1.6,1.6,2.3,2.4
	C27.6,26.8,27.3,27.3,27,27.6z"/>
</g><g  transform="translate(696, 120)">
<path fill="#444444" d="M46,0H2C0.9,0,0,0.9,0,2v44c0,1.1,0.9,2,2,2h44c1.1,0,2-0.9,2-2V2C48,0.9,47.1,0,46,0z M14,32
	c-4.4,0-8-3.6-8-8c0-4.4,3.6-8,8-8s8,3.6,8,8C22,28.4,18.4,32,14,32z M34,32c-4.4,0-8-3.6-8-8c0-4.4,3.6-8,8-8s8,3.6,8,8
	C42,28.4,38.4,32,34,32z"/>
</g><g  transform="translate(792, 120)">
<path fill-rule="evenodd" clip-rule="evenodd" fill="#444444" d="M24,0.6c-13.3,0-24,10.7-24,24c0,10.6,6.9,19.6,16.4,22.8
	c1.2,0.2,1.6-0.5,1.6-1.2c0-0.6,0-2.1,0-4.1c-6.7,1.5-8.1-3.2-8.1-3.2c-1.1-2.8-2.7-3.5-2.7-3.5c-2.2-1.5,0.2-1.5,0.2-1.5
	c2.4,0.2,3.7,2.5,3.7,2.5c2.1,3.7,5.6,2.6,7,2c0.2-1.6,0.8-2.6,1.5-3.2c-5.3-0.6-10.9-2.7-10.9-11.9c0-2.6,0.9-4.8,2.5-6.4
	c-0.2-0.6-1.1-3,0.2-6.4c0,0,2-0.6,6.6,2.5c1.9-0.5,4-0.8,6-0.8c2,0,4.1,0.3,6,0.8c4.6-3.1,6.6-2.5,6.6-2.5c1.3,3.3,0.5,5.7,0.2,6.4
	c1.5,1.7,2.5,3.8,2.5,6.4c0,9.2-5.6,11.2-11,11.8c0.9,0.7,1.6,2.2,1.6,4.4c0,3.2,0,5.8,0,6.6c0,0.6,0.4,1.4,1.7,1.2
	C41.1,44.2,48,35.2,48,24.6C48,11.3,37.3,0.6,24,0.6z"/>
</g><g  transform="translate(888, 120)">
<path data-color="color-2" fill="#444444" d="M48,22h-4v-4h-4v4h-4v4h4v4h4v-4h4V22z"/>
<path fill="#444444" d="M33.05286,22.00891L18,22v6h8.60217c-0.46423,2.53943-3.0072,7.17175-9.60217,7.17175
	c-5.80432,0-10.54004-4.80859-10.54004-10.73425c0-5.92567,4.73572-10.73426,10.54004-10.73426
	c3.30286,0,5.51282,1.40857,6.77576,2.6228l4.61426-4.44421C25.42712,9.11316,21.58997,7.43751,17,7.43751
	c-9.39856,0-17,7.60143-17,17c0,9.39855,7.60144,17,17,17C28.69557,41.43751,34.71981,31.73002,33.05286,22.00891z"/>
</g><g  transform="translate(24, 216)">
<path fill="#444444" d="M42.3,0H5.7C2.6,0,0,2.5,0,5.7v36.6C0,45.5,2.6,48,5.7,48h36.6c3.2,0,5.7-2.5,5.7-5.7V5.7
	C48,2.5,45.4,0,42.3,0z M36,6h4c1.1,0,2,0.9,2,2v4c0,1.1-0.9,2-2,2h-4c-1.1,0-2-0.9-2-2V8C34,6.9,34.9,6,36,6z M24.1,14.8
	c5.1,0,9.2,4.1,9.2,9.2c0,5.1-4.1,9.2-9.2,9.2c-5.1,0-9.2-4.1-9.2-9.2C14.8,19,19,14.8,24.1,14.8z M40,42H8c-1.1,0-2-0.9-2-2V20h4
	c-0.6,2.2-0.7,4.8-0.2,7.2c1.2,5.6,5.7,10,11.3,11.1c9.3,1.8,17.5-5.3,17.5-14.3c0-1.3-0.3-2.8-0.7-4.1h4v20C42,41.1,41.1,42,40,42z
	"/>
</g><g  transform="translate(120, 216)">
<path fill="#444444" d="M21.2,34.4l-1.8-4.8c0,0-2.9,3.2-7.1,3.2c-3.8,0-6.5-3.3-6.5-8.6c0-6.8,3.4-9.2,6.8-9.2
	c4.8,0,6.4,3.1,7.7,7.1l1.8,5.5c1.8,5.3,5.1,9.6,14.6,9.6c6.8,0,11.4-2.1,11.4-7.6c0-4.5-2.5-6.8-7.3-7.9l-3.5-0.8
	c-2.4-0.5-3.1-1.5-3.1-3.2c0-1.9,1.5-3,3.9-3c2.6,0,4.1,1,4.3,3.4l5.5-0.7c-0.4-4.9-3.8-7-9.5-7c-4.9,0-9.8,1.9-9.8,7.9
	c0,3.7,1.8,6.1,6.4,7.2l3.7,0.9c2.8,0.7,3.7,1.8,3.7,3.4c0,2-2,2.9-5.7,2.9c-5.6,0-7.9-2.9-9.2-6.9l-1.8-5.5
	c-2.3-7.1-6-9.8-13.3-9.8C4.3,10.7,0,15.8,0,24.5c0,8.4,4.3,12.9,12,12.9C18.2,37.3,21.2,34.4,21.2,34.4L21.2,34.4z"/>
</g><g  transform="translate(216, 216)">
<path fill="#444444" d="M46,0H2C0.9,0,0,0.9,0,2v44c0,1.1,0.9,2,2,2h44c1.1,0,2-0.9,2-2V2C48,0.9,47.1,0,46,0z M14.2,40.9H7.1V18
	h7.1V40.9z M10.7,14.9c-2.3,0-4.1-1.8-4.1-4.1c0-2.3,1.8-4.1,4.1-4.1c2.3,0,4.1,1.8,4.1,4.1C14.8,13,13,14.9,10.7,14.9z M40.9,40.9
	h-7.1V29.8c0-2.7,0-6.1-3.7-6.1c-3.7,0-4.3,2.9-4.3,5.9v11.3h-7.1V18h6.8v3.1h0.1c0.9-1.8,3.3-3.7,6.7-3.7c7.2,0,8.5,4.7,8.5,10.9
	V40.9z"/>
</g><g  transform="translate(312, 216)"><path fill="#444444" d="M38.99513,44.7229c-0.31047-1.24379-1.08379-3.44041-1.71854-4.88086
	c-1.23997-2.81376-2.83899-8.12842-4.51372-14.99971c-0.57428-2.3571-1.21427-4.59848-1.4214-4.98086
	c-0.53523-0.98712-0.85379,2.13567-1.13902,11.17122c-0.13238,4.1904-0.52523,8.58316-0.87236,9.76172l-0.6319,2.14281
	c-5.72571,0.52985-3.47239,0.32146-9.40648,0.86998c-1.88297-2.36158-8.2146-12.41928-8.2146-12.41928
	c-0.00348,0.00345,1.08536,9.13701,0.88427,9.90504c-0.32571,1.24427-4.81515,3.00851-7.46414,2.93375
	c-2.19996-0.06286-2.66804-0.97474-3.36803-6.5694c-1.19521-9.54172-1.3014-11.75502-0.95951-19.96295l0.33999-8.15984
	L2.6044,8.97405c3.37327-0.90237,7.12605-0.72856,8.15603,0.37714c0.47999,0.5157,2.78233,4.64038,5.11562,9.16649l4.24278,8.22889
	l0.60094-4.52372c0.88522-6.66702,3.52279-15.59256,5.7956-19.61105l0.89284-1.57901l4.20468,0.10286
	c3.45946,0.08476,4.37087,0.26904,5.14181,1.03998c1.19474,1.19474,3.45088,9.73695,6.76987,25.62903
	c0.39475,1.89234,1.03189,4.32992,1.41616,5.41751c0.3838,1.08713,0.6976,2.37186,0.6976,2.85471s0.53571,2.519,1.19046,4.52467
	c1.2033,3.68707,1.44854,4.89419,0.87712,4.32325c0,0-5.72824,1.92484-7.84461,2.04234
	C39.6956,46.97714,39.30561,45.96668,38.99513,44.7229L38.99513,44.7229z"/></g><g  transform="translate(408, 216)">
<ellipse fill="#444444" cx="39.60652" cy="16.95187" rx="7.63594" ry="7.60898"/>
<ellipse data-color="color-2" fill="#444444" cx="22.40131" cy="19.12159" rx="6.87398" ry="6.84878"/>
<ellipse fill="#444444" cx="6.79895" cy="21.07594" rx="6.18706" ry="6.16241"/>
<path fill="#444444" d="M6.79919,28.64556c-3.92299,0-6.7992,3.44342-6.7992,7.00075v2.39439l0,0
	c0,0.33845,0.27701,0.61641,0.61781,0.61641h0.21936h11.9231h0.21845c0.34195,0,0.61901-0.27797,0.61901-0.61641l0,0v-2.39439
	C13.59772,32.08899,10.72214,28.64556,6.79919,28.64556z"/>
<path data-color="color-2" fill="#444444" d="M22.40107,27.53182c-4.35893,0-7.5553,3.82637-7.5553,7.77936v2.66064l0,0
	c0,0.37637,0.30797,0.6853,0.68669,0.6853h0.24374h13.24877h0.24283c0.38059,0,0.68813-0.30893,0.68813-0.6853l0,0v-2.66064
	C29.95593,31.35818,26.75999,27.53182,22.40107,27.53182z"/>
<path fill="#444444" d="M39.60561,26.29615c-4.84315,0-8.39438,4.25112-8.39438,8.64374v2.95594l0,0
	c0,0.41813,0.34219,0.76128,0.76311,0.76128h0.27096h14.72064h0.26904C47.6578,38.65711,48,38.31396,48,37.89583l0,0V34.9399
	C48,30.54727,44.4492,26.29615,39.60561,26.29615z"/>
</g><g  transform="translate(504, 216)">
<path fill="#444444" d="M40.3295,12.13554c-0.00292,0.01977-0.00365,0.02431-0.00891,0.05964
	C40.32059,12.19518,40.32488,12.16641,40.3295,12.13554z"/>
<path fill="#444444" d="M40.3295,12.13554C40.3432,12.04388,40.33761,12.08108,40.3295,12.13554L40.3295,12.13554z"/>
<path fill="#444444" d="M38.29715,3.61932C36.07452,1.08607,32.05681,0,26.91713,0H12.00012
	c-1.05155,0-1.94516,0.76476-2.10975,1.80172L3.67921,41.1941c-0.12342,0.77667,0.47804,1.4804,1.26533,1.4804h9.20917
	l2.31291-14.67008l-0.07172,0.4594c0.16467-1.03696,1.05155-1.80172,2.1018-1.80172h4.37622
	c8.59701,0,15.3286-3.49193,17.29499-13.59333c0.05835-0.29871,0.15268-0.87359,0.15268-0.87359
	C40.87829,8.4573,40.31662,5.92032,38.29715,3.61932z"/>
<path data-color="color-2" fill="#444444" d="M42.65157,14.10809c-2.13827,9.945-8.9586,15.20899-19.77856,15.20899h-3.92484L16.0214,48
	h6.36579c0.91881,0,1.70083-0.66913,1.84418-1.57603l0.07569-0.39563l1.46314-9.27287l0.09433-0.51249
	c0.14336-0.90689,0.92537-1.57603,1.84418-1.57603h1.16176c7.52025,0,13.40872-3.05514,15.12949-11.89113
	C44.68951,19.23099,44.35904,16.25689,42.65157,14.10809z"/>
</g><g  transform="translate(600, 216)">
<path fill="#444444" d="M24,0C10.7,0,0,10.7,0,24c0,10.2,6.3,18.9,15.3,22.3c-0.2-1.9-0.4-4.8,0.1-6.9c0.4-1.9,2.8-11.9,2.8-11.9
	s-0.7-1.4-0.7-3.6c0-3.3,1.9-5.8,4.3-5.8c2,0,3,1.5,3,3.4c0,2.1-1.3,5.1-2,8c-0.6,2.4,1.2,4.3,3.6,4.3c4.3,0,7.5-4.5,7.5-11
	c0-5.7-4.1-9.8-10-9.8c-6.8,0-10.8,5.1-10.8,10.4c0,2.1,0.8,4.3,1.8,5.5c0.2,0.2,0.2,0.4,0.2,0.7c-0.2,0.8-0.6,2.4-0.7,2.7
	c-0.1,0.4-0.3,0.5-0.8,0.3c-3-1.4-4.9-5.8-4.9-9.3c0-7.6,5.5-14.5,15.9-14.5c8.3,0,14.8,5.9,14.8,13.9c0,8.3-5.2,14.9-12.5,14.9
	c-2.4,0-4.7-1.3-5.5-2.8c0,0-1.2,4.6-1.5,5.7c-0.5,2.1-2,4.7-3,6.3c2.2,0.7,4.6,1.1,7.1,1.1c13.3,0,24-10.7,24-24
	C48,10.7,37.3,0,24,0z"/>
</g><g  transform="translate(696, 216)">
<path fill="#444444" d="M27.2,16.8L27.2,16.8l-6.8,0V24h6.8v0c2,0,3.6-1.6,3.6-3.6C30.8,18.4,29.2,16.8,27.2,16.8z"/>
<path fill="#444444" d="M24,0C10.7,0,0,10.7,0,24s10.7,24,24,24s24-10.7,24-24S37.3,0,24,0z M27.2,28.8L27.2,28.8l-6.8,0V36h-4.8 V12l11.6,0v0c4.6,0,8.4,3.8,8.4,8.4C35.6,25,31.8,28.8,27.2,28.8z"/>
</g><g  transform="translate(792, 216)">
<path fill="#444444" d="M48,23.6c0-3.2-2.6-5.8-5.8-5.8c-1.4,0-2.6,0.5-3.6,1.3c-3.5-2.2-8-3.5-12.8-3.8l2.5-7.9L35.2,9
	c0.2,2.5,2.3,4.5,4.8,4.5c2.7,0,4.8-2.2,4.8-4.8c0-2.7-2.2-4.8-4.8-4.8c-1.9,0-3.5,1.1-4.3,2.6l-8-1.9c-0.7-0.2-1.3,0.2-1.6,0.9
	l-3.1,9.8c-5.2,0.1-10,1.5-13.8,3.8c-1-0.8-2.2-1.2-3.5-1.2c-3.2,0-5.8,2.6-5.8,5.8c0,2,1,3.7,2.5,4.7c-0.1,0.5-0.1,0.9-0.1,1.4
	c0,4,2.3,7.7,6.5,10.4c4,2.6,9.3,4.1,15,4.1c5.6,0,11-1.4,15-4.1c4.2-2.7,6.5-6.4,6.5-10.4c0-0.4,0-0.8-0.1-1.3
	C46.9,27.4,48,25.6,48,23.6z M40,6.4c1.2,0,2.2,1,2.2,2.2c0,1.2-1,2.2-2.2,2.2s-2.2-1-2.2-2.2C37.8,7.4,38.8,6.4,40,6.4z M13.6,27.1
	c0-1.8,1.5-3.3,3.3-3.3c1.8,0,3.2,1.5,3.2,3.3s-1.5,3.2-3.2,3.2C15.1,30.4,13.6,28.9,13.6,27.1z M31.9,36.7
	c-1.7,1.7-4.2,2.5-7.9,2.5c0,0,0,0,0,0c0,0,0,0,0,0c-3.6,0-6.2-0.8-7.9-2.5c-0.5-0.5-0.5-1.3,0-1.9c0.5-0.5,1.3-0.5,1.9,0
	c1.2,1.2,3.1,1.7,6,1.7c0,0,0,0,0,0c0,0,0,0,0,0c2.9,0,4.9-0.6,6-1.7c0.5-0.5,1.3-0.5,1.9,0C32.4,35.3,32.4,36.2,31.9,36.7z
	 M31.1,30.4c-1.8,0-3.3-1.5-3.3-3.2s1.5-3.3,3.3-3.3c1.8,0,3.2,1.5,3.2,3.3S32.9,30.4,31.1,30.4z"/>
</g><g  transform="translate(888, 216)">
<circle fill="#444444" cx="8" cy="38" r="6"/>
<path fill="#444444" d="M44,44h-8c0-18.74805-15.25195-34-34-34V2C25.1582,2,44,20.84082,44,44z"/>
<path data-color="color-2" fill="#444444" d="M30,44h-8c0-11.02832-8.97266-20-20-20v-8C17.43945,16,30,28.56055,30,44z"/>
</g><g  transform="translate(24, 312)">
<path fill="#444444" d="M39.9,9.3c0-0.2-0.2-0.4-0.4-0.4c-0.2,0-3.9-0.3-3.9-0.3S33,6.1,32.7,5.8c-0.3-0.3-0.8-0.2-1-0.1
	c0,0-0.6,0.2-1.4,0.4c-0.9-2.5-2.4-4.7-5-4.7c-0.1,0-0.1,0-0.2,0c-0.8-1-1.7-1.4-2.5-1.4c-6.2,0-9.1,7.7-10.1,11.7
	C10,12.4,8.3,12.9,8.1,13c-1.3,0.4-1.4,0.5-1.6,1.7c-0.1,1-3.6,28.1-3.6,28.1L30.3,48l14.8-3.2C45.1,44.8,39.9,9.6,39.9,9.3z
	 M24.8,7.6c0,0.1,0,0.2,0,0.3c-1.5,0.5-3.1,1-4.8,1.5c0.9-3.6,2.6-5.3,4.2-5.9C24.6,4.4,24.8,5.7,24.8,7.6z M22.3,1.7
	c0.3,0,0.5,0.1,0.8,0.3c-2,0.9-4.1,3.3-5,8c-1.3,0.4-2.6,0.8-3.8,1.2C15.4,7.5,17.9,1.7,22.3,1.7z M23.4,22.6c0,0-1.6-0.9-3.6-0.9
	c-2.9,0-3,1.8-3,2.3c0,2.5,6.5,3.4,6.5,9.3c0,4.6-2.9,7.5-6.8,7.5c-4.7,0-7.1-2.9-7.1-2.9l1.3-4.2c0,0,2.5,2.1,4.6,2.1
	c1.4,0,1.9-1.1,1.9-1.9c0-3.2-5.3-3.4-5.3-8.7c0-4.5,3.2-8.8,9.7-8.8c2.5,0,3.7,0.7,3.7,0.7L23.4,22.6z M26.4,7.3c0-0.2,0-0.3,0-0.5
	c0-1.5-0.2-2.8-0.6-3.7c1.4,0.2,2.3,1.7,2.9,3.5C28.1,6.8,27.3,7.1,26.4,7.3z"/>
</g><g  transform="translate(120, 312)">
<path fill="#444444" d="M19.9,1.8c-0.1,0-0.2-0.1-0.2-0.1c-0.1,0-0.2,0-0.2,0L19.9,1.8z"/>
<path fill="#444444" d="M1.7,19.7c0,0.1,0,0.2,0,0.2c0,0.1,0.1,0.2,0.1,0.2L1.7,19.7z"/>
<path fill="#444444" d="M46.3,28.3c0-0.1,0-0.2,0-0.3c0-0.1-0.1-0.2-0.1-0.2L46.3,28.3z"/>
<path fill="#444444" d="M27.8,46.1c0.1,0,0.2,0.1,0.2,0.1c0.1,0,0.2,0,0.3,0L27.8,46.1z"/>
<path fill="#444444" d="M46.3,28c0,0.1,0,0.2,0,0.3l-0.1-0.5C46.2,27.8,46.3,27.9,46.3,28c0.2-1.3,0.4-2.7,0.4-4.1
	c0-3.1-0.6-6-1.8-8.8c-1.1-2.7-2.8-5.1-4.9-7.2C38,5.8,35.5,4.1,32.8,3C30,1.8,27.1,1.2,24,1.2c-1.4,0-2.9,0.1-4.3,0.4c0,0,0,0,0,0
	c0.1,0,0.2,0.1,0.2,0.1l-0.5-0.1c0.1,0,0.2,0,0.2,0c-1.9-1-4.1-1.6-6.3-1.6c-3.6,0-7,1.4-9.5,3.9C1.4,6.5,0,9.9,0,13.5
	C0,15.8,0.6,18,1.7,20c0-0.1,0-0.2,0-0.2l0.1,0.5c0-0.1-0.1-0.2-0.1-0.2c-0.2,1.3-0.3,2.6-0.3,3.9c0,3.1,0.6,6,1.8,8.8
	c1.1,2.7,2.8,5.1,4.9,7.2c2.1,2.1,4.5,3.7,7.2,4.9C18,46,21,46.6,24,46.6c1.3,0,2.7-0.1,4-0.4c-0.1,0-0.2-0.1-0.2-0.1l0.5,0.1
	c-0.1,0-0.2,0-0.3,0c2,1.1,4.3,1.7,6.6,1.7c3.6,0,7-1.4,9.5-3.9c2.5-2.5,3.9-5.9,3.9-9.5C48,32.2,47.4,30,46.3,28z M24.1,37.8
	c-8.1,0-11.7-4-11.7-6.9c0-1.5,1.1-2.6,2.7-2.6c3.4,0,2.6,4.9,9,4.9c3.3,0,5.1-1.8,5.1-3.6c0-1.1-0.5-2.3-2.7-2.9l-7.2-1.8
	c-5.8-1.4-6.8-4.6-6.8-7.5c0-6.1,5.7-8.4,11.1-8.4c5,0,10.8,2.7,10.8,6.4c0,1.6-1.4,2.5-2.9,2.5c-2.9,0-2.4-4.1-8.3-4.1
	c-2.9,0-4.6,1.3-4.6,3.2c0,1.9,2.3,2.5,4.3,3l5.3,1.2c5.8,1.3,7.3,4.7,7.3,7.9C35.6,34.1,31.8,37.8,24.1,37.8z"/>
</g><g  transform="translate(216, 312)">
<rect x="20.7" y="20.6" transform="matrix(-0.3176 -0.9482 0.9482 -0.3176 8.8649 54.3798)" fill="#444444" width="6.5" height="6.8"/>
<rect x="20.7" y="20.6" transform="matrix(-0.3176 -0.9482 0.9482 -0.3176 8.865 54.3798)" fill="#444444" width="6.5" height="6.8"/>
<path fill="#444444" d="M46,17.4C41,0.9,33.9-2.9,17.4,2C0.9,7-2.9,14.1,2,30.6C7,47.1,14.1,50.9,30.6,46C47.1,41,50.9,33.9,46,17.4
	z M37.6,28.1l-3.1,1l1.1,3.2c0.4,1.3-0.3,2.7-1.6,3.1c-0.3,0.1-0.6,0.1-0.9,0.1c-1,0-2-0.7-2.3-1.7l-1.1-3.2l-6.4,2.1l1.1,3.2
	c0.4,1.3-0.3,2.7-1.6,3.1c-0.3,0.1-0.6,0.1-0.9,0.1c-1,0-2-0.7-2.3-1.7l-1.1-3.2l-3.1,1c-0.3,0.1-0.6,0.1-0.9,0.1
	c-1,0-2-0.7-2.3-1.7c-0.4-1.3,0.3-2.7,1.6-3.1l3.1-1L15,23.6l-3.1,1c-0.3,0.1-0.6,0.1-0.9,0.1c-1,0-2-0.7-2.3-1.7
	c-0.4-1.3,0.3-2.7,1.6-3.1l3.1-1l-1.1-3.2c-0.4-1.3,0.3-2.7,1.6-3.1c1.3-0.4,2.7,0.3,3.1,1.6l1.1,3.2l6.4-2.1l-1.1-3.2
	c-0.4-1.3,0.3-2.7,1.6-3.1c1.3-0.4,2.7,0.3,3.1,1.6l1.1,3.2l3.1-1c1.3-0.4,2.7,0.3,3.1,1.6c0.4,1.3-0.3,2.7-1.6,3.1l-3.1,1l2.1,6.2
	l3.1-1c1.3-0.4,2.7,0.3,3.1,1.6C39.7,26.3,39,27.7,37.6,28.1z"/>
</g><g  transform="translate(312, 312)">
<path data-color="color-2" fill="#444444" d="M0.90231,24.60858c-0.01711-0.11867-0.1021-0.20045-0.20687-0.20045
	c-0.10531,0-0.19244,0.08446-0.20687,0.20045C0.48857,24.60965,0,29.07256,0,29.07256l0.48857,4.36509
	c0.0139,0.11707,0.10103,0.20152,0.20687,0.20152c0.10424,0,0.18923-0.08232,0.20633-0.20045l0.55593-4.36617L0.90231,24.60858z"/>
<path data-color="color-2" fill="#444444" d="M8.6019,20.49098c-0.20045,0-0.36616,0.16411-0.37578,0.37258l-0.38915,8.21275
	l0.38915,5.3075c0.01016,0.2074,0.17533,0.37097,0.37578,0.37097c0.19938,0,0.36456-0.1641,0.37632-0.37204v0.0016l0.43993-5.30803
	l-0.43993-8.21275C8.96646,20.65508,8.80128,20.49098,8.6019,20.49098z"/>
<path data-color="color-2" fill="#444444" d="M4.61686,23.34545c-0.15395,0-0.27957,0.12294-0.29186,0.28705l-0.43833,5.44167
	L4.325,34.3389c0.01176,0.16304,0.13791,0.28598,0.29186,0.28598c0.15235,0,0.27796-0.12294,0.29133-0.28598l0.4982-5.26473
	l-0.4982-5.44274C4.89483,23.4684,4.76921,23.34545,4.61686,23.34545z"/>
<path data-color="color-2" fill="#444444" d="M12.65161,34.75424c0.24856,0,0.45062-0.20045,0.46078-0.45704l0.38167-5.21823
	l-0.38113-10.93412c-0.01016-0.25658-0.21221-0.45704-0.46078-0.45704c-0.2507,0-0.45329,0.20099-0.46131,0.45757l-0.33837,10.93305
	l0.33837,5.22037C12.19885,34.55325,12.40144,34.75424,12.65161,34.75424z"/>
<path data-color="color-2" fill="#444444" d="M20.9424,34.77883c0.34211,0,0.62435-0.28171,0.63076-0.62809v0.00374v-0.00374
	l0.2662-5.06856l-0.2662-12.62809c-0.00588-0.34585-0.28865-0.62809-0.63076-0.62809c-0.34264,0-0.62542,0.2817-0.63076,0.62862
	l-0.23787,12.62328c0,0.00802,0.23787,5.07604,0.23787,5.07604C20.31698,34.49712,20.60029,34.77883,20.9424,34.77883z"/>
<path data-color="color-2" fill="#444444" d="M16.76547,34.75905c0.29774,0,0.53775-0.23894,0.54577-0.54363v0.00374l0.32393-5.13912
	L17.3107,18.06682c-0.00802-0.30469-0.24803-0.5431-0.54577-0.5431c-0.29988,0-0.53989,0.23841-0.5463,0.5431l-0.28812,11.01376
	l0.28866,5.13805C16.22558,34.52011,16.46559,34.75905,16.76547,34.75905z"/>
<path fill="#444444" d="M41.88694,22.56448c-0.83763,0-1.63678,0.16945-2.36483,0.47468
	c-0.48643-5.51009-5.10704-9.83242-10.74328-9.83242c-1.37913,0-2.72351,0.27155-3.91073,0.73072
	c-0.46131,0.17854-0.58426,0.36242-0.58854,0.71896V34.0604c0.00481,0.37418,0.29507,0.68582,0.66016,0.72271
	c0.0155,0.0016,16.83763,0.01016,16.94668,0.01016c3.37619,0,6.11359-2.7374,6.11359-6.11413S45.26313,22.56448,41.88694,22.56448z"/>
</g><g  transform="translate(408, 312)">
<path fill="#444444" d="M24,0C10.8,0,0,10.8,0,24s10.8,24,24,24s24-10.8,24-24S37.3,0,24,0z M35,34.7c-0.5,0.7-1.3,1-2,0.5
	c-5.6-3.5-12.7-4.2-21.1-2.3c-0.8,0.2-1.6-0.4-1.8-1.1c-0.2-0.8,0.4-1.6,1.1-1.8c9.1-2,17-1.2,23.3,2.6C35.3,33,35.4,34,35,34.7z
	 M37.9,28.1c-0.6,0.8-1.7,1.2-2.5,0.6c-6.5-4-16.3-5.2-23.9-2.8c-1,0.2-2-0.2-2.3-1.2c-0.2-1,0.2-2,1.2-2.3c8.8-2.6,19.6-1.3,27,3.2
	C38.2,26,38.5,27.2,37.9,28.1z M38.2,21.4c-7.7-4.6-20.5-5-27.8-2.8c-1.2,0.4-2.4-0.4-2.8-1.4C7.2,16,7.9,14.8,9,14.4
	c8.5-2.5,22.6-2,31.4,3.2c1.1,0.6,1.4,2,0.8,3.1C40.7,21.6,39.2,22,38.2,21.4z"/>
</g><g  transform="translate(504, 312)">
<path fill="#444444" d="M42,0H6C2.7,0,0,2.7,0,6v36c0,3.3,2.7,6,6,6h36c3.3,0,6-2.7,6-6V6C48,2.7,45.3,0,42,0z M20,38
	c0,1.1-0.9,2-2,2H8c-1.1,0-2-0.9-2-2V8c0-1.1,0.9-2,2-2h10c1.1,0,2,0.9,2,2V38z M42,26c0,1.1-0.9,2-2,2H30c-1.1,0-2-0.9-2-2V8
	c0-1.1,0.9-2,2-2h10c1.1,0,2,0.9,2,2V26z"/>
</g><g  transform="translate(600, 312)">
<path fill="#444444" d="M35.5,38.3c-0.9,0.4-2.6,0.8-3.9,0.8c-3.8,0.1-4.6-2.7-4.6-4.7V19.5h9.6v-7.3H27V0c0,0-6.9,0-7,0
	c-0.1,0-0.3,0.1-0.3,0.4c-0.4,3.7-2.2,10.3-9.4,12.9v6.2h4.9v15.7c0,5.4,4,13,14.4,12.8c3.5-0.1,7.4-1.5,8.3-2.8L35.5,38.3z"/>
</g><g  transform="translate(696, 312)">
<path fill="#444444" d="M48,9.1c-1.8,0.8-3.7,1.3-5.7,1.6c2-1.2,3.6-3.1,4.3-5.4c-1.9,1.1-4,1.9-6.3,2.4c-1.8-1.9-4.4-3.1-7.2-3.1
	c-5.4,0-9.8,4.4-9.8,9.8c0,0.8,0.1,1.5,0.3,2.2C15.5,16.2,8.2,12.3,3.3,6.3C2.5,7.8,2,9.4,2,11.2c0,3.4,1.7,6.4,4.4,8.2
	c-1.6-0.1-3.1-0.5-4.5-1.2c0,0,0,0.1,0,0.1c0,4.8,3.4,8.8,7.9,9.7c-0.8,0.2-1.7,0.3-2.6,0.3c-0.6,0-1.3-0.1-1.9-0.2
	c1.3,3.9,4.9,6.8,9.2,6.8c-3.4,2.6-7.6,4.2-12.2,4.2c-0.8,0-1.6,0-2.3-0.1c4.4,2.8,9.5,4.4,15.1,4.4c18.1,0,28-15,28-28
	c0-0.4,0-0.9,0-1.3C45,12.8,46.7,11.1,48,9.1z"/>
</g><g  transform="translate(792, 312)">
<path fill="#444444" d="M48,12.8c-0.2,4.7-3.5,11.1-9.8,19.2c-6.5,8.5-12,12.7-16.6,12.7c-2.8,0-5.2-2.6-7.1-7.7
	c-1.3-4.7-2.6-9.5-3.9-14.2c-1.4-5.2-3-7.7-4.6-7.7c-0.4,0-1.6,0.8-3.8,2.3L0,14.4c2.4-2.1,4.7-4.2,7-6.2c3.2-2.7,5.5-4.2,7.1-4.3
	c3.7-0.4,6,2.2,6.9,7.7c0.9,5.9,1.6,9.6,1.9,11c1.1,4.9,2.3,7.3,3.6,7.3c1,0,2.5-1.6,4.5-4.8c2-3.2,3.1-5.6,3.2-7.2
	c0.3-2.7-0.8-4.1-3.2-4.1c-1.1,0-2.3,0.3-3.6,0.8C29.8,6.8,34.4,3,41,3.3C45.9,3.4,48.3,6.6,48,12.8z"/>
</g><g  transform="translate(888, 312)">
<path fill="#444444" d="M45,23.9c-1.2,0.3-2.4,0.4-3.5,0.4c-6.1,0-10.7-4.2-10.7-11.6c0-3.6,1.4-5.5,3.4-5.5c1.9,0,3.1,1.7,3.1,5.1
	c0,1.9-0.5,4.1-0.9,5.3c0,0,1.9,3.3,7,2.3c1.1-2.4,1.7-5.5,1.7-8.3C45,4.3,41.3,0,34.4,0c-7.1,0-11.2,5.4-11.2,12.6
	c0,7.1,3.3,13.2,8.8,16c-2.3,4.6-5.2,8.7-8.3,11.7c-5.5-6.7-10.5-15.6-12.6-33H3c3.8,29,15,38.3,18,40c1.7,1,3.1,1,4.7,0.1
	c2.4-1.4,9.7-8.6,13.7-17.1c1.7,0,3.7-0.2,5.7-0.7V23.9z"/>
</g><g  transform="translate(24, 408)">
<path fill="#444444" d="M0.10739,48l3.37542-12.32542c-2.08204-3.60688-3.17763-7.69894-3.17592-11.89098
	C0.31215,10.66928,10.98554,0,24.09976,0c6.36475,0.00253,12.33865,2.47971,16.83067,6.97547
	c4.49214,4.49575,6.96465,10.47174,6.96218,16.82712c-0.00531,13.11432-10.67966,23.785-23.79253,23.785h-0.00006h-0.00974
	c-3.98213-0.00164-7.89481-1.00024-11.36995-2.89505L0.10739,48z M13.30466,40.38635l0.72215,0.42849
	c3.03621,1.80129,6.51666,2.7542,10.06511,2.75559h0.0081c10.89973,0,19.77101-8.8685,19.77545-19.76937
	c0.00202-5.28238-2.053-10.2494-5.78667-13.98611c-3.73368-3.73672-8.69893-5.79578-13.98092-5.79781
	c-10.90811,0-19.77946,8.86787-19.78382,19.76797c-0.00152,3.73532,1.04402,7.37333,3.02355,10.52097l0.47026,0.7479
	l-1.99782,7.29512L13.30466,40.38635z"/>
<path data-color="color-2" fill-rule="evenodd" clip-rule="evenodd" fill="#444444" d="M18.15336,13.84087
	c-0.48253-1.1589-0.97266-1.0021-1.33759-1.02027c-0.34636-0.01724-0.74309-0.02088-1.13941-0.02088
	s-1.04036,0.14873-1.5853,0.74366c-0.54492,0.59496-2.08067,2.03281-2.08067,4.958c0,2.92519,2.13022,5.7512,2.42748,6.14787
	c0.29723,0.39667,4.19204,6.39961,10.15569,8.97392c1.41836,0.6123,2.52578,0.9779,3.38909,1.25194
	c1.42423,0.45222,2.72022,0.38844,3.74456,0.23544c1.14216-0.17059,3.51729-1.43777,4.01272-2.82601
	c0.49537-1.38824,0.49537-2.57817,0.34674-2.82608c-0.14856-0.24784-0.54491-0.3966-1.13937-0.69412
	c-0.59452-0.29745-3.51734-1.73529-4.06233-1.93359c-0.54491-0.19831-0.9412-0.29746-1.33755,0.29751
	c-0.39628,0.59491-1.5356,1.9336-1.88241,2.3302c-0.34674,0.39667-0.69355,0.44627-1.28801,0.14876
	c-0.59453-0.29745-2.51008-0.92506-4.7808-2.94978c-1.76725-1.57578-2.96047-3.52215-3.30725-4.11712
	c-0.34677-0.59496-0.03689-0.91665,0.26073-1.2129c0.26739-0.26626,0.59446-0.69412,0.89172-1.04118
	c0.29723-0.34706,0.39632-0.59497,0.59446-0.99157c0.19818-0.39667,0.09909-0.74372-0.04955-1.04121
	C19.83772,17.956,18.64879,15.03077,18.15336,13.84087z"/>
</g><g  transform="translate(120, 408)">
<path fill="#444444" d="M0,24c0,9.5,5.5,17.7,13.5,21.6L2.1,14.2C0.7,17.2,0,20.5,0,24z"/>
<path fill="#444444" d="M40.2,22.8c0-3-1.1-5-2-6.6c-1.2-2-2.4-3.7-2.4-5.6c0-2.2,1.7-4.3,4-4.3c0.1,0,0.2,0,0.3,0
	C35.9,2.4,30.2,0,24,0C15.6,0,8.2,4.3,3.9,10.8c0.6,0,1.1,0,1.5,0c2.5,0,6.4-0.3,6.4-0.3c1.3-0.1,1.4,1.8,0.2,2c0,0-1.3,0.2-2.7,0.2
	l8.7,26L23.3,23l-3.7-10.2c-1.3-0.1-2.5-0.2-2.5-0.2c-1.3-0.1-1.1-2.1,0.2-2c0,0,4,0.3,6.3,0.3c2.5,0,6.4-0.3,6.4-0.3
	c1.3-0.1,1.4,1.8,0.2,2c0,0-1.3,0.2-2.7,0.2L36,38.5l2.4-8C39.4,27.2,40.2,24.8,40.2,22.8z"/>
<path fill="#444444" d="M24.4,26.1L17.2,47c2.2,0.6,4.4,1,6.8,1c2.8,0,5.5-0.5,8-1.4c-0.1-0.1-0.1-0.2-0.2-0.3L24.4,26.1z"/>
<path fill="#444444" d="M45.1,12.5c0.1,0.8,0.2,1.6,0.2,2.5c0,2.4-0.5,5.2-1.8,8.6l-7.3,21.2C43.2,40.6,48,32.9,48,24
	C48,19.8,46.9,15.9,45.1,12.5z"/>
</g><g  transform="translate(216, 408)">
<path fill="#444444" d="M7,23.1c-0.8,1.2-1.1,5.2-0.8,7.8c0.1,0.9,0.2,1.6,0.5,2c0.3,0.6,0.8,0.9,1.4,1c0.4,0,0.6,0,7.7-2.4
	c0,0,3.1-1,3.1-1c0.8-0.2,1.3-0.9,1.4-1.9c0-1-0.4-1.8-1.2-2.1c0,0-2.2-0.9-2.2-0.9c-7.6-3.2-7.9-3.3-8.3-3.3
	C7.9,22.2,7.4,22.5,7,23.1z"/>
<path fill="#444444" d="M24,46.9c0.1-0.4,0.1-0.6,0.2-8.2c0,0,0-3.3,0-3.4c0-0.8-0.5-1.6-1.3-1.9c-0.9-0.3-1.8-0.1-2.3,0.5
	c0,0-1.5,1.9-1.5,1.9c-5.3,6.4-5.5,6.7-5.7,7c-0.1,0.2-0.1,0.5-0.1,0.7c0,0.3,0.2,0.7,0.4,1c1.2,1.5,7.1,3.7,9,3.4
	C23.3,47.8,23.8,47.5,24,46.9z"/>
<path fill="#444444" d="M35.9,44.3c1.8-0.7,5.7-5.8,5.9-7.7c0.1-0.7-0.1-1.3-0.6-1.6c-0.3-0.2-0.5-0.3-7.6-2.7c0,0-3.1-1-3.1-1.1
	c-0.7-0.3-1.6,0-2.2,0.7c-0.6,0.7-0.7,1.7-0.2,2.5l1.2,2.1c4.2,6.9,4.5,7.4,4.8,7.7C34.7,44.5,35.3,44.5,35.9,44.3L35.9,44.3z"/>
<path fill="#444444" d="M32.3,26.4c8-2,8.3-2.1,8.6-2.3c0.5-0.3,0.7-0.9,0.7-1.6c0,0,0,0,0-0.1c-0.2-2-3.6-7.2-5.3-8.1
	c-0.6-0.3-1.2-0.3-1.7,0.1c-0.3,0.2-0.5,0.5-4.8,6.5c0,0-1.9,2.7-2,2.7c-0.5,0.6-0.5,1.5,0,2.3c0.5,0.8,1.4,1.2,2.2,1
	c0,0,0,0.1,0,0.1C30.3,26.9,31,26.7,32.3,26.4z"/>
<path fill="#444444" d="M24.3,19.6L24.3,19.6C24.1,16.4,23.2,2,23.1,1.3c-0.2-0.6-0.6-1-1.3-1.2c-2-0.5-9.8,1.7-11.3,3.2
	C10,3.8,9.8,4.4,10,5c0.2,0.5,9.9,16,9.9,16c1.4,2.4,2.6,2,3,1.9C23.2,22.8,24.4,22.4,24.3,19.6z"/>
</g><g  transform="translate(312, 408)">
<path fill="#444444" d="M47.5,14.4c0,0-0.5-3.3-1.9-4.8c-1.8-1.9-3.9-1.9-4.8-2C34.1,7.1,24,7.1,24,7.1h0c0,0-10.1,0-16.8,0.5
	c-0.9,0.1-3,0.1-4.8,2c-1.4,1.5-1.9,4.8-1.9,4.8S0,18.3,0,22.2v3.6c0,3.9,0.5,7.8,0.5,7.8s0.5,3.3,1.9,4.8c1.8,1.9,4.2,1.9,5.3,2.1
	c3.8,0.4,16.3,0.5,16.3,0.5s10.1,0,16.8-0.5c0.9-0.1,3-0.1,4.8-2c1.4-1.5,1.9-4.8,1.9-4.8s0.5-3.9,0.5-7.8v-3.6
	C48,18.3,47.5,14.4,47.5,14.4z M19,30.2l0-13.5l13,6.8L19,30.2z"/>
</g></svg>