<svg xmlns="http://www.w3.org/2000/svg" xmlns:xlink="http://www.w3.org/1999/xlink" x="0px" y="0px" width="16px" height="16px" viewBox="0 0 16 16"><g >
<ellipse fill="#444444" cx="13.2" cy="5.7" rx="2.5" ry="2.5"/>
<ellipse data-color="color-2" fill="#444444" cx="7.5" cy="6.4" rx="2.3" ry="2.3"/>
<ellipse fill="#444444" cx="2.3" cy="7" rx="2.1" ry="2.1"/>
<path fill="#444444" d="M2.3,9.5C1,9.5,0,10.7,0,11.9v0.8l0,0c0,0.1,0.1,0.2,0.2,0.2h0.1h4h0.1c0.1,0,0.2-0.1,0.2-0.2l0,0v-0.8
	C4.5,10.7,3.6,9.5,2.3,9.5z"/>
<path data-color="color-2" fill="#444444" d="M7.5,9.2c-1.5,0-2.5,1.3-2.5,2.6v0.9l0,0c0,0.1,0.1,0.2,0.2,0.2h0.1h4.4h0.1c0.1,0,0.2-0.1,0.2-0.2l0,0v-0.9
	C10,10.5,8.9,9.2,7.5,9.2z"/>
<path fill="#444444" d="M13.2,8.8c-1.6,0-2.8,1.4-2.8,2.9v1l0,0c0,0.1,0.1,0.3,0.3,0.3h0.1h4.9h0.1c0.1,0,0.3-0.1,0.3-0.3l0,0v-1
	C16,10.2,14.8,8.8,13.2,8.8z"/>
</g></svg>