<svg xmlns="http://www.w3.org/2000/svg" xmlns:xlink="http://www.w3.org/1999/xlink" x="0px" y="0px" width="16px" height="16px" viewBox="0 0 16 16"><g >
<rect x="6.9" y="6.9" transform="matrix(-0.3176 -0.9482 0.9482 -0.3176 2.955 18.1266)" fill="#444444" width="2.2" height="2.3"/>
<rect x="6.9" y="6.9" transform="matrix(-0.3176 -0.9482 0.9482 -0.3176 2.955 18.1266)" fill="#444444" width="2.2" height="2.3"/>
<path fill="#444444" d="M15.3,5.8c-1.6-5.5-4-6.8-9.5-5.1c-5.5,1.6-6.8,4-5.1,9.5c1.6,5.5,4,6.8,9.5,5.1C15.7,13.7,17,11.3,15.3,5.8
	z M12.5,9.4l-1,0.3l0.4,1.1c0.1,0.4-0.1,0.9-0.5,1c-0.1,0-0.8,0.2-1-0.5l-0.4-1.1L7.8,11L8.2,12c0.1,0.4-0.1,0.9-0.5,1
	c-0.1,0-0.8,0.2-1-0.5l-0.4-1.1l-1,0.3c-0.6,0.2-0.9-0.2-1-0.5c-0.1-0.4,0.1-0.9,0.5-1l1-0.3L5,7.9L4,8.2C3.5,8.4,3,8,2.9,7.7
	C2.8,7.2,3,6.8,3.5,6.6l1-0.3L4.1,5.2C4,4.8,4.2,4.3,4.7,4.2c0.4-0.1,0.9,0.1,1,0.5l0.4,1.1L8.2,5L7.8,4c-0.1-0.4,0.1-0.9,0.5-1
	c0.4-0.1,0.9,0.1,1,0.5l0.4,1.1l1-0.3c0.4-0.1,0.9,0.1,1,0.5c0.1,0.4-0.1,0.9-0.5,1l-1,0.3L11,8.1l1-0.3c0.4-0.1,0.9,0.1,1,0.5
	C13.2,8.8,13,9.2,12.5,9.4z"/>
</g></svg>