<svg xmlns="http://www.w3.org/2000/svg" xmlns:xlink="http://www.w3.org/1999/xlink" x="0px" y="0px" width="16px" height="16px" viewBox="0 0 16 16"><g >
<path fill="#444444" d="M7.6,0.1L0.4,3.5C0.2,3.6,0.2,3.9,0.4,4l7.3,3.3c0.2,0.1,0.5,0.1,0.7,0L15.6,4c0.2-0.1,0.2-0.4,0-0.5
	L8.4,0.1C8.1,0,7.9,0,7.6,0.1z"/>
<path data-color="color-2" fill="#444444" d="M15.6,7.8l-1.5-0.7c-0.2-0.1-0.5-0.1-0.7,0L8.3,9.4c-0.2,0.1-0.5,0.1-0.7,0L2.6,7.1C2.3,7,2.1,7,1.9,7.1
	L0.4,7.8c-0.2,0.1-0.2,0.4,0,0.5l7.3,3.3c0.2,0.1,0.5,0.1,0.7,0l7.3-3.3C15.8,8.2,15.8,7.9,15.6,7.8z"/>
<path data-color="color-2" fill="#444444" d="M15.6,12.1l-1.5-0.7c-0.2-0.1-0.5-0.1-0.7,0l-5.1,2.3c-0.2,0.1-0.5,0.1-0.7,0l-5.1-2.3
	c-0.2-0.1-0.5-0.1-0.7,0l-1.5,0.7c-0.2,0.1-0.2,0.4,0,0.5l7.3,3.3c0.2,0.1,0.5,0.1,0.7,0l7.3-3.3C15.8,12.5,15.8,12.2,15.6,12.1z"/>
</g></svg>