<svg xmlns="http://www.w3.org/2000/svg" xmlns:xlink="http://www.w3.org/1999/xlink" x="0px" y="0px" width="16px" height="16px" viewBox="0 0 16 16"><g >
<path data-color="color-2" fill="#444444" d="M0.3,8.2C0.3,8.2,0.3,8.1,0.3,8.2c-0.1-0.1-0.1,0-0.1,0c0,0-0.2,1.5-0.2,1.5l0.2,1.5c0,0,0,0.1,0.1,0.1
	c0,0,0.1,0,0.1-0.1l0.2-1.5L0.3,8.2z"/>
<path data-color="color-2" fill="#444444" d="M2.3,6.8C2.2,6.8,2.1,6.9,2.1,7L2,9.7l0.1,1.8c0,0.1,0.1,0.1,0.1,0.1c0.1,0,0.1-0.1,0.1-0.1v0l0.1-1.8L2.4,7
	C2.4,6.9,2.3,6.8,2.3,6.8z"/>
<path data-color="color-2" fill="#444444" d="M6.3,11.6c0.1,0,0.2-0.1,0.2-0.2v0v0l0.1-1.7L6.5,5.5c0-0.1-0.1-0.2-0.2-0.2c-0.1,0-0.2,0.1-0.2,0.2L6,9.7
	c0,0,0.1,1.7,0.1,1.7C6.1,11.5,6.2,11.6,6.3,11.6z"/>
<path data-color="color-2" fill="#444444" d="M4.3,11.6c0.1,0,0.2-0.1,0.2-0.2v0l0.1-1.7L4.5,6c0-0.1-0.1-0.2-0.2-0.2C4.2,5.8,4.1,5.9,4.1,6L4,9.7
	l0.1,1.7C4.1,11.5,4.2,11.6,4.3,11.6z"/>
<path fill="#444444" d="M14,7.5c-0.3,0-0.5,0.1-0.8,0.2C13,5.8,11.5,4.4,9.6,4.4c-0.5,0-0.9,0.1-1.3,0.2C8.1,4.7,8.1,4.8,8.1,4.9
	v6.5c0,0.1,0.1,0.2,0.2,0.2c0,0,5.6,0,5.6,0c1.1,0,2-0.9,2-2S15.1,7.5,14,7.5z"/>
</g></svg>