<svg xmlns="http://www.w3.org/2000/svg" xmlns:xlink="http://www.w3.org/1999/xlink" x="0px" y="0px" width="16px" height="16px" viewBox="0 0 16 16"><g >
<path fill="#444444" d="M12.99838,14.90763c-0.10349-0.4146-0.36126-1.1468-0.57285-1.62695
	c-0.41332-0.93792-0.94633-2.70947-1.50457-4.9999c-0.19142-0.7857-0.40475-1.53283-0.4738-1.66029
	c-0.17841-0.32904-0.2846,0.71189-0.37967,3.72374c-0.04413,1.3968-0.17508,2.86106-0.29079,3.25391l-0.21063,0.71427
	c-1.90857,0.17662-1.15746,0.10715-3.1355,0.28999c-0.62766-0.78719-2.7382-4.13976-2.7382-4.13976
	c-0.00116,0.00115,0.36179,3.04567,0.29476,3.30168c-0.10857,0.41476-1.60505,1.00284-2.48805,0.97792
	c-0.73332-0.02095-0.88935-0.32491-1.12268-2.1898C-0.022,9.37186-0.0574,8.6341,0.05657,5.89812L0.1699,3.17817l0.69824-0.18682
	C1.99256,2.69056,3.24349,2.7485,3.58681,3.11706c0.16,0.1719,0.92744,1.54679,1.70521,3.0555l1.41426,2.74296l0.20031-1.50791
	C7.20167,5.18528,8.08086,2.2101,8.83846,0.8706l0.29761-0.52634l1.40156,0.03429c1.15315,0.02825,1.45696,0.08968,1.71394,0.34666
	c0.39825,0.39825,1.15029,3.24565,2.25662,8.54301c0.13158,0.63078,0.34396,1.44331,0.47205,1.80584
	c0.12793,0.36237,0.23254,0.79062,0.23254,0.95157c0,0.16095,0.17857,0.83967,0.39682,1.50822
	c0.4011,1.22902,0.48285,1.6314,0.29237,1.44108c0,0-1.90941,0.64161-2.61487,0.68078
	C13.23187,15.65905,13.10187,15.32223,12.99838,14.90763L12.99838,14.90763z"/>
</g></svg>