<svg xmlns="http://www.w3.org/2000/svg" xmlns:xlink="http://www.w3.org/1999/xlink" x="0px" y="0px" width="16px" height="16px" viewBox="0 0 16 16"><g >
<path fill="#444444" d="M14.1,0H1.9C0.9,0,0,0.8,0,1.9v12.2c0,1,0.9,1.9,1.9,1.9h12.2c1.1,0,1.9-0.8,1.9-1.9V1.9
	C16,0.8,15.1,0,14.1,0z M8,4.9c1.7,0,3.1,1.4,3.1,3.1c0,1.7-1.4,3.1-3.1,3.1c-1.7,0-3.1-1.4-3.1-3.1C4.9,6.3,6.3,4.9,8,4.9z
	 M14,13.3c0,0.4-0.3,0.7-0.7,0.7H2.7C2.3,14,2,13.7,2,13.3V6.7h1.3C3.1,7.4,3.1,8.3,3.3,9.1c0.4,1.9,1.9,3.3,3.8,3.7
	c3.1,0.6,5.8-1.8,5.8-4.8c0-0.4-0.1-0.9-0.2-1.4H14V13.3z M14,4h-2V2h2V4z"/>
</g></svg>