<svg xmlns="http://www.w3.org/2000/svg" xmlns:xlink="http://www.w3.org/1999/xlink" x="0px" y="0px" width="16px" height="16px" viewBox="0 0 16 16"><g >
<path fill="#444444" d="M0,8c0,3.2,1.8,5.9,4.5,7.2L0.7,4.7C0.2,5.7,0,6.8,0,8z"/>
<path fill="#444444" d="M13.4,7.6c0-1-0.4-1.7-0.7-2.2C12.3,4.7,12,4.2,12,3.5c0-0.7,0.6-1.4,1.3-1.4c0,0,0.1,0,0.1,0
	C12,0.8,10.1,0,8,0C5.2,0,2.7,1.4,1.3,3.6C1.5,3.6,4,3.5,4,3.5c0.4,0,0.5,0.6,0.1,0.7c0,0-0.4,0.1-0.9,0.1L6,12.9l1.8-5.3L6.5,4.2
	c-0.4,0-0.8-0.1-0.8-0.1c-0.4,0-0.4-0.7,0.1-0.7c0,0,1.3,0.1,2.1,0.1c0.8,0,2.1-0.1,2.1-0.1c0.4,0,0.5,0.6,0.1,0.7
	c0,0-0.4,0.1-0.9,0.1l2.9,8.6l0.8-2.7C13.1,9.1,13.4,8.3,13.4,7.6z"/>
<path fill="#444444" d="M8.1,8.7l-2.4,7C6.5,15.9,7.2,16,8,16c0.9,0,1.8-0.2,2.7-0.5c0,0,0-0.1-0.1-0.1L8.1,8.7z"/>
<path fill="#444444" d="M15,4.2c0,0.3,0.1,0.5,0.1,0.8c0,0.8-0.2,1.7-0.6,2.9L12,14.9c2.4-1.4,4-4,4-6.9C16,6.6,15.6,5.3,15,4.2z"/>
</g></svg>