<svg xmlns="http://www.w3.org/2000/svg" xmlns:xlink="http://www.w3.org/1999/xlink" x="0px" y="0px" width="16px" height="16px" viewBox="0 0 16 16"><g >
<path fill="#444444" d="M6.6,0.6C6.6,0.6,6.6,0.6,6.6,0.6c-0.1,0-0.1,0-0.2,0L6.6,0.6z"/>
<path fill="#444444" d="M0.6,6.6C0.6,6.6,0.6,6.6,0.6,6.6c0,0.1,0,0.1,0,0.2L0.6,6.6z"/>
<path fill="#444444" d="M9.3,15.4C9.3,15.4,9.3,15.4,9.3,15.4c0.1,0,0.1,0,0.2,0L9.3,15.4z"/>
<path fill="#444444" d="M15.4,9.3c0.1-0.4,0.6-3.8-2.1-6.7c-2.5-2.7-6.4-2.2-6.8-2.1C5.9,0.2,5.2,0,4.5,0C1,0,0,3.3,0,4.5
	c0,1.2,0.6,2.2,0.6,2.2C0.2,8.3,0.7,10,1,10.9c0.9,2.3,3.1,3.6,4,4c2.2,0.9,4,0.5,4.3,0.5c0.7,0.4,1.4,0.6,2.2,0.6
	c1.2,0,4.5-1,4.5-4.5C16,10.3,15.4,9.3,15.4,9.3z M8,12.6c-2.7,0-3.9-1.3-3.9-2.3c0-0.5,0.4-0.9,0.9-0.9c1.1,0,0.9,1.6,3,1.6
	c1.1,0,1.7-0.6,1.7-1.2c0-1.2-1.4-1-3.3-1.5S4.2,6.8,4.2,5.8c0-2,1.9-2.8,3.7-2.8c1.7,0,3.6,0.9,3.6,2.1c0,0.5-0.5,0.8-1,0.8
	c-1,0-0.8-1.4-2.8-1.4c-1,0-1.5,0.4-1.5,1.1c0,0.9,1.8,1.1,3.2,1.4c1.9,0.5,2.4,1.6,2.4,2.6C11.9,11.4,10.6,12.6,8,12.6z"/>
</g></svg>