<svg xmlns="http://www.w3.org/2000/svg" xmlns:xlink="http://www.w3.org/1999/xlink" x="0px" y="0px" width="16px" height="16px" viewBox="0 0 16 16"><g >
<path fill="#444444" d="M15.7,5L8.4,0.1C8.2,0,7.8,0,7.6,0.1c0,0-7,4.7-7.3,4.9S0,5.5,0,5.6v4.9C0,10.8,0.3,11,0.3,11l7.3,4.9
	C7.7,16,7.9,16,8,16c0.1,0,0.3,0,0.4-0.1l7.3-4.9c0,0,0.3-0.2,0.3-0.6V5.6C16,5.5,16,5.2,15.7,5z M8.7,2l5.4,3.6l-2.4,1.6l-3-2V2z
	 M7.3,2v3.2l-3,2L1.9,5.6L7.3,2z M1.4,6.8L3.1,8L1.4,9.2V6.8z M7.3,14l-5.4-3.6l2.4-1.6l3,2V14z M8,9.6L5.6,8L8,6.4L10.4,8L8,9.6z
	 M8.7,14v-3.2l3-2l2.4,1.6L8.7,14z M14.6,9.2L12.9,8l1.7-1.2V9.2z"/>
</g></svg>