<svg xmlns="http://www.w3.org/2000/svg" xmlns:xlink="http://www.w3.org/1999/xlink" x="0px" y="0px" width="16px" height="16px" viewBox="0 0 16 16"><g >
<path fill="#444444" d="M14.3,2.8c-0.1-0.6-0.5-1-0.8-1.1c-0.4-0.1-1.1-0.3-2.1-0.4c-0.8-0.1-1.7-0.1-2.2-0.1
	c-0.1-0.4-0.4-0.8-0.7-1C7.8,0,6.3,0,6.3,0c-1,0-1.4,0.1-1.8,0.4c0,0-2.9,2.9-2.9,2.9C1,3.9,1.4,5.6,1.4,5.6l0,0
	c0,0,0.5,3.4,0.9,4.3c0.2,0.3,0.3,0.5,0.6,0.6c0.7,0.3,2.4,0.7,3.2,0.8c0.8,0.1,1.3,0.3,1.6-0.3c0,0,0.4-0.6,0.4-2.3
	c0,0,0.1-0.1,0.1,0c0,0.3-0.1,1.6,0.9,1.9c0.4,0.1,1.1,0.2,1.9,0.3c0.7,0.1,1.2,0.4,1.2,2.1c0,1.1-0.2,1.2-1.4,1.2
	c-1,0-1.3,0-1.3-0.7c0-0.6,0.6-0.6,1.1-0.6c0.2,0,0.1-0.2,0.1-0.5c0-0.4,0.2-0.6,0-0.6c-1.6,0-2.5,0-2.5,2c0,1.8,0.7,2.1,2.9,2.1
	c1.8,0,2.4-0.1,3.1-2.3c0.1-0.4,0.5-1.8,0.7-4.1C14.8,8.2,14.5,3.9,14.3,2.8z M10.7,7.6c0.1-0.4,0.2-1,0.9-1c0.7,0,0.8,0.7,0.8,1.2
	C12.1,7.7,11.3,7.4,10.7,7.6z"/>
</g></svg>