<svg xmlns="http://www.w3.org/2000/svg" xmlns:xlink="http://www.w3.org/1999/xlink" x="0px" y="0px" width="16px" height="16px" viewBox="0 0 16 16"><g ><path fill="#444444" d="M6.72387,6.25743h0.73927c0,0-0.56326-2.79868-3.29153-2.79868S0,5.65897,0,7.92959
	s1.28493,4.61166,3.9956,4.61166s3.60836-2.49945,3.60836-3.43234H6.81188c0,0-0.31683,2.76348-2.69307,2.76348
	s-3.36194-2.0418-3.36194-3.92519S2.0066,4.16282,4.15402,4.16282S6.72387,6.25743,6.72387,6.25743z"/>
<path fill="#444444" d="M14.32783,7.70077c1.09131-0.33443,1.30253-1.08544,1.30253-1.83058
	c0-0.78035-0.38724-2.14741-1.9538-2.14741s-4.78768,0-4.78768,0v8.57206c0,0,3.74917,0,4.84048,0S16,11.18592,16,9.9538
	C16,8.89182,15.50128,7.9648,14.32783,7.70077z M10.38504,4.93729h2.58746c0.63836,0,1.15585,0.51749,1.15585,1.15585
	c0,0.63836-0.51749,1.15585-1.15585,1.15585h-2.58746V4.93729z M13.15438,11.09791h-2.76935V8.42244h2.76935
	c0.73881,0,1.33773,0.59892,1.33773,1.33773C14.49212,10.49899,13.8932,11.09791,13.15438,11.09791z"/></g></svg>