<svg xmlns="http://www.w3.org/2000/svg" xmlns:xlink="http://www.w3.org/1999/xlink" x="0px" y="0px" width="16px" height="16px" viewBox="0 0 16 16"><g >
<path fill="#444444" d="M13.3,3.1C13.3,3,13.2,3,13.1,3c-0.1,0-1.3-0.1-1.3-0.1S11,2,10.9,1.9c-0.1-0.1-0.3-0.1-0.3,0
	c0,0-0.2,0.1-0.5,0.1C9.8,1.2,9.5,0.5,8.3,0.5C8.1,0.1,7.8,0,7.5,0c-2.1,0-3,2.6-3.4,3.9C3.3,4.1,2.8,4.3,2.7,4.3
	C2.3,4.5,2.2,4.5,2.2,4.9c0,0.3-1.2,9.4-1.2,9.4l9.1,1.7l4.9-1.1C15,14.9,13.3,3.2,13.3,3.1z M8.3,2.6c-0.5,0.2-1,0.3-1.6,0.5
	c0.3-1.2,0.9-1.8,1.4-2C8.3,2,8.3,2.6,8.3,2.6z M7.4,0.6c0.1,0,0.2,0,0.3,0.1C7.1,1,6.3,1.7,6,3.3C5.6,3.4,5.2,3.6,4.8,3.7
	C5.1,2.5,6,0.6,7.4,0.6z M7.8,7.5c0,0-0.5-0.3-1.2-0.3c-1,0-1,0.6-1,0.8c0,0.8,2.2,1.1,2.2,3.1c0,1.5-1,2.5-2.3,2.5
	c-1.6,0-2.4-1-2.4-1l0.4-1.4c0,0,0.8,0.7,1.5,0.7c0.5,0,0.6-0.4,0.6-0.6c0-1.1-1.8-1.1-1.8-2.9c0-1.5,1.1-2.9,3.2-2.9
	c0.8,0,1.2,0.2,1.2,0.2L7.8,7.5z M8.8,2.4c0-0.1,0-0.1,0-0.2c0-0.5-0.1-0.9-0.2-1.2c0.5,0.1,0.8,0.6,1,1.2C9.4,2.3,9.1,2.4,8.8,2.4z
	"/>
</g></svg>