<svg xmlns="http://www.w3.org/2000/svg" xmlns:xlink="http://www.w3.org/1999/xlink" x="0px" y="0px" width="16px" height="16px" viewBox="0 0 16 16"><g >
<path fill-rule="evenodd" clip-rule="evenodd" fill="#444444" d="M15.6,6.2c-0.3-0.1-1.8,0-2.2-0.3c-0.3-0.3-0.3-1.9-0.9-3.1
	C11.8,1.3,10.1,0,8.6,0H5.1C2.3,0,0,2.3,0,5.1V11c0,2.8,2.3,5,5.1,5h5.8c2.8,0,5-2.3,5.1-5l0-4.1C16,6.9,16,6.4,15.6,6.2z M5,4h3
	c0.6,0,1,0.4,1,1c0,0.6-0.4,1-1,1H5C4.4,6,4,5.6,4,5C4,4.4,4.4,4,5,4z M11,12H5c-0.6,0-1-0.4-1-1c0-0.6,0.4-1,1-1h6c0.6,0,1,0.4,1,1
	C12,11.6,11.6,12,11,12z"/>
</g></svg>