<svg xmlns="http://www.w3.org/2000/svg" xmlns:xlink="http://www.w3.org/1999/xlink" x="0px" y="0px" width="16px" height="16px" viewBox="0 0 16 16"><g >
<path fill="#444444" d="M7.1,11.5L6.5,9.9c0,0-1,1.1-2.4,1.1c-1.3,0-2.2-1.1-2.2-2.9C1.9,5.8,3.1,5,4.2,5c1.6,0,2.3,1.1,2.6,2.4
	c0.9,3.7,2.3,5,5.4,5c2.3,0,3.8-0.7,3.8-2.5c0-2.4-2.2-2.5-3.6-2.9c-0.7-0.2-1-0.5-1-1.1c0-0.6,0.5-1,1.3-1c0.9,0,1.4,0.3,1.4,1.1
	l1.8-0.2c-0.1-1.6-1.3-2.3-3.2-2.3c-1.6,0-3.3,0.6-3.3,2.6c0,1.2,0.6,2,2.1,2.4c0,0,2.5,0.4,2.5,1.4c0,0.7-0.7,1-1.9,1
	c-2.9,0-3.7-4.1-3.7-4.1c-0.8-2.4-2-3.3-4.4-3.3C1.4,3.6,0,5.3,0,8.2c0,2.8,1.4,4.3,4,4.3C6.1,12.4,7.1,11.5,7.1,11.5L7.1,11.5z"/>
</g></svg>