<svg xmlns="http://www.w3.org/2000/svg" xmlns:xlink="http://www.w3.org/1999/xlink" x="0px" y="0px" width="16px" height="16px" viewBox="0 0 16 16"><g >
<path fill="#444444" d="M15.1,7.3c-1.8-1.8-3.7-3.7-5.5-5.5C8.9,1.1,7.8,0.4,6.7,1.5C4.7,3.5,2.6,5.6,0.6,7.6c-1,1-0.5,2.1,0,2.5
	c1.5,1.5,2.9,2.9,4.4,4.4c0.3,0.3,0.8,0.5,1.2,0.5c1.2,0,2.4,0,3.6,0c0.5,0,1.1-0.2,1.5-0.5c1.3-1.3,2.6-2.6,3.9-3.9
	C17,8.7,15.4,7.6,15.1,7.3z M4.8,9.6C4.6,9.9,4.2,9.8,3.9,9.8C3.6,9.6,3.4,9.3,3.2,9.1C3,8.9,3.2,8.8,3.3,8.7
	c1.4-1.3,4.4-4.4,4.6-4.6C8.1,4,8.2,4.2,8.3,4.3c0.2,0.3,0.5,0.5,0.8,0.8c0.1,0.1,0,0.3-0.1,0.4C7.6,6.9,6.2,8.2,4.8,9.6z M9.1,12.8
	c-0.2,0.2-0.4,0.5-0.7,0.7c-0.2,0.1-0.5,0-0.7,0c-0.2-0.1-0.4-0.3-0.6-0.5c-0.1-0.1-0.3-0.3-0.2-0.5c0.3-0.3,0.6-0.6,0.9-0.9
	c0.1-0.1,0.3-0.1,0.4,0.1c0.3,0.3,0.5,0.5,0.8,0.8C9.1,12.5,9.2,12.7,9.1,12.8z M9,9.2c-0.8,0.8-1.5,1.5-2.3,2.3
	c-0.2,0.3-0.6,0.2-0.9,0.2c-0.3-0.2-0.5-0.5-0.7-0.7c-0.2-0.1,0-0.3,0.1-0.4c0.8-0.8,2.6-2.6,2.7-2.7C8.1,7.7,8.2,7.9,8.3,8
	c0.3,0.3,0.5,0.5,0.8,0.8C9.2,8.9,9.1,9.1,9,9.2z"/>
</g></svg>