<svg xmlns="http://www.w3.org/2000/svg" xmlns:xlink="http://www.w3.org/1999/xlink" x="0px" y="0px" width="16px" height="16px" viewBox="0 0 16 16"><g >
<path fill="#444444" d="M2.3,7.7C2.1,8.1,1.9,10.3,2.2,11c0.1,0.2,0.3,0.3,0.5,0.3c0.1,0,3.6-1.1,3.6-1.1c0.3-0.1,0.4-0.3,0.5-0.6
	c0-0.3-0.1-0.6-0.4-0.7c0,0-3.4-1.4-3.5-1.4C2.6,7.4,2.5,7.5,2.3,7.7z"/>
<path fill="#444444" d="M8,15.6C8,15.5,8,11.8,8,11.8c0-0.3-0.2-0.5-0.4-0.6c-0.3-0.1-0.6,0-0.8,0.2c0,0-2.3,2.9-2.4,3
	c-0.1,0.2,0,0.5,0.1,0.6c0.4,0.5,2.4,1.2,3,1.1C7.8,15.9,7.9,15.8,8,15.6z"/>
<path fill="#444444" d="M12,14.8c0.6-0.2,1.9-1.9,2-2.6c0-0.2,0-0.4-0.2-0.5c-0.1-0.1-3.6-1.2-3.6-1.2c-0.2-0.1-0.5,0-0.7,0.2
	c-0.2,0.2-0.2,0.6-0.1,0.8c0,0,1.9,3.2,2,3.2C11.6,14.8,11.8,14.8,12,14.8L12,14.8z"/>
<path fill="#444444" d="M13.6,8c0.2-0.1,0.2-0.3,0.2-0.5c0,0,0,0,0,0c-0.1-0.7-1.2-2.4-1.8-2.7c-0.2-0.1-0.4-0.1-0.6,0
	c-0.1,0.1-2.3,3.1-2.3,3.1c-0.2,0.2-0.2,0.5,0,0.8C9.4,8.9,9.7,9.1,10,9C10,9,13.5,8.1,13.6,8z"/>
<path fill="#444444" d="M8.1,6.5L8.1,6.5c0-1.1-0.4-5.9-0.4-6.1C7.6,0.2,7.5,0.1,7.3,0C6.6-0.1,4,0.6,3.5,1.1
	C3.3,1.3,3.3,1.5,3.3,1.7C3.4,1.8,6.6,7,6.6,7c0.5,0.8,0.9,0.7,1,0.6C7.7,7.6,8.1,7.5,8.1,6.5z"/>
</g></svg>