<svg xmlns="http://www.w3.org/2000/svg" xmlns:xlink="http://www.w3.org/1999/xlink" x="0px" y="0px" width="16px" height="16px" viewBox="0 0 16 16"><g >
<path fill="#444444" d="M16,6.2C16,5.6,15.7,2,15.7,2c0-0.6-0.2-1-0.5-1.2C15,0.5,14.6,0.3,14,0.3c0,0-3.6-0.3-4.3-0.3
	C8.9,0,8.3,0,7.2,1.1C6.7,1.6,0.7,7.6,0.5,7.8C0.2,8.1-0.6,9,0.8,10.5l4.7,4.7c1.4,1.4,2.4,0.6,2.7,0.3c0.2-0.3,6.2-6.2,6.7-6.7
	C16,7.7,16,7.1,16,6.2z M9.6,8.2l2,1l-0.7,1.3L9.1,9.3c0,0-0.1,0-0.1,0c0,0-0.1,0-0.1,0c-0.1,0-0.1,0.1-0.1,0.2l0.2,2.2H7.3
	c0,0,0,0,0,0c0,0,0.1-2.2,0.1-2.2c0-0.1,0-0.2-0.1-0.2c-0.1,0-0.2,0-0.3,0l-1.8,1.2L4.4,9.2l2.1-1c0.1,0,0.1-0.1,0.1-0.2
	c0-0.1-0.1-0.2-0.1-0.2l-2-1l0.7-1.3L7,6.7c0.1,0.1,0.2,0.1,0.3,0c0.1,0,0.1-0.1,0.1-0.2L7.3,4.2h1.5L8.7,6.4c0,0.1,0,0.2,0.1,0.2
	c0.1,0,0.2,0,0.3,0l1.8-1.2l0.8,1.3l-2.1,1C9.6,7.8,9.5,7.9,9.5,8C9.5,8.1,9.6,8.1,9.6,8.2z M13.1,3.9c-0.5,0-1-0.4-1-1
	c0-0.5,0.4-1,1-1c0.5,0,1,0.4,1,1C14.1,3.5,13.7,3.9,13.1,3.9z"/>
</g></svg>