<svg xmlns="http://www.w3.org/2000/svg" xmlns:xlink="http://www.w3.org/1999/xlink" x="0px" y="0px" width="480px" height="240px" viewBox="0 0 480 240"><g  transform="translate(16, 16)">
<path data-color="color-2" fill="#444444" d="M5.83823,7.25419c0.00199,0.18635,0.17249,0.3497,0.27433,0.44732l0.032,0.03087
	c0.17467,0.1718,0.34105,0.25891,0.49444,0.25891c0.12705,0,0.20533-0.06009,0.23305-0.0859
	c0.07694-0.07145,0.94729-0.95335,1.03031-1.03747L8.873,7.83541C8.96285,7.93664,9.06053,7.98737,9.17436,7.9905
	c0.155,0,0.3239-0.09216,0.502-0.27395C10.0952,7.2889,9.88563,7.05831,9.78428,6.94682L8.80083,5.96307l1.02561-1.03287
	c0.22492-0.24336,0.02635-0.502-0.17176-0.70013C9.36701,3.9424,9.08948,3.86817,8.9116,4.03208L7.89179,5.05365L6.86053,4.0221
	C6.80588,3.96973,6.73696,3.94204,6.66119,3.94204c-0.13744,0-0.30003,0.09293-0.48333,0.27622
	c-0.31718,0.3171-0.38519,0.53633-0.22011,0.71122l1.03153,1.02839L5.96383,6.98517C5.87948,7.0694,5.83721,7.15992,5.83823,7.25419
	z"/>
<path fill="#444444" d="M7.56518,0.01559C4.6816,0.23495,2.4228,2.77117,2.4228,5.78957v9.54438
	C2.4228,15.88682,2.84307,16,3.47407,16c0.63101,0,1.05128-0.11318,1.05128-0.66605V5.76714
	c0-1.88059,1.36817-3.49536,3.11455-3.67624c1.00259-0.10216,1.96632,0.21154,2.71592,0.88761
	c0.73577,0.66325,1.15784,1.61676,1.15824,2.61636c0,0.28606-0.14002,1.21773-0.77944,2.08251
	c-0.48357,0.65343-1.39963,1.43187-3.02401,1.43187c-0.00882,0.0002-0.02063,0-0.03085,0c-0.41666,0-0.77262,0.01963-0.84113,1.007
	c-0.04588,0.66445-0.04207,0.96152,0.53184,1.04146c1.02383,0.14203,2.06768-0.0581,3.10233-0.59575
	c1.76641-0.91906,2.94989-2.66043,3.08891-4.54503c0.12079-1.6368-0.46955-3.23354-1.61977-4.38116
	C10.7873,0.48414,9.19277-0.1056,7.56518,0.01559z"/>
</g><g  transform="translate(64, 16)">
<path fill="#444444" d="M2.38431,11.35686c0-1.27818,0.54298-1.95298,1.6-2.24314c-0.16732-0.4183-0.25098-0.7268-0.25098-0.92549
	c0-0.73554,0.92946-1.64706,1.63137-1.64706c0.17778,0,0.38693,0.04706,0.62745,0.14118
	C5.4902,5.24967,5.12941,4.16209,4.9098,3.41961c-0.28672-0.96769-0.67052-2.22605,0-2.98039C5.17124,0.14641,5.52157,0,5.96078,0
	C6.71373,0,7.6183,1.54248,8.67451,4.62745l0.26667,0.76863c0.40011-1.00027,1.62792-5.09804,3.01176-5.09804
	c0.4183,0,0.74771,0.14118,0.98824,0.42353c0.67616,0.76068,0.27769,1.88711,0,2.87059
	c-0.21961,0.7634-0.56471,1.80915-1.03529,3.13725c0.59608,0.14641,1.02484,0.42876,1.28627,0.84706
	c0.28235,0.44967,0.42353,1.1451,0.42353,2.08628c0,1.86144-0.55425,3.38301-1.66275,4.56471
	C10.82353,15.40915,9.39085,16,7.6549,16c-2.14387,0-4.02673-1.25924-4.86275-2.96471
	C2.52026,12.47059,2.38431,11.91111,2.38431,11.35686z M3.40392,11.27843c0,0.65525,0.43742,1.44615,0.83137,1.97647
	c0.92275,1.19282,2.12936,1.7098,3.5451,1.7098c1.34902,0,2.48366-0.50719,3.40392-1.52157
	c0.9098-1.00392,1.36471-2.27451,1.36471-3.81176c0-0.52574-0.00142-1.31214-0.39216-1.64706
	c-0.28235-0.24052-0.8366-0.44967-1.66275-0.62745C9.66797,7.16863,8.78954,7.07451,7.85882,7.07451
	c-0.35969,0-0.54902,0.05431-0.54902,0.40784c0,0.42876,0.24052,0.73203,0.72157,0.9098
	c0.52288,0.21961,1.38562,0.32941,2.58823,0.32941h0.43922c0.24585,0,0.46415,0.12843,0.53333,0.65882
	c-0.45093,0.45093-1.19372,0.51146-1.69412,0.89412c-0.4183,0.30327-0.75294,0.66405-1.00392,1.08235
	c-0.24052,0.40784-0.36078,0.79477-0.36078,1.16078c0,0.21961,0.05229,0.48627,0.15686,0.8
	c0.11503,0.3451,0.17254,0.56993,0.17254,0.67451c-0.00276,0.09708-0.03136,0.16471-0.14899,0.21177
	c-0.48627,0.1098-0.70852-0.12811-0.91767-0.52549c-0.17778-0.33464-0.27712-0.7634-0.29804-1.28627
	c-0.06332,0.02111-0.2926,0.01569-0.36078,0.01569c0.01046,0.05229,0.01569,0.11503,0.01569,0.18824
	c0,0.31373-0.12026,0.58039-0.36078,0.8c-0.24052,0.21961-0.52288,0.32941-0.84706,0.32941
	c-0.4915,0-0.98823-0.23529-1.4902-0.70588c-0.50196-0.48105-0.75294-0.95163-0.75294-1.41176
	c0-0.27302,0.1168-0.41484,0.29804-0.59608c0.26144,0.32418,0.43922,0.54902,0.53333,0.67451
	c0.43922,0.61699,0.8366,0.92549,1.19216,0.92549c0.19964,0,0.36078-0.14791,0.36078-0.25098
	c0-0.08366-0.06275-0.23529-0.18824-0.4549c-0.18349-0.34404-0.90736-1.30364-1.28627-1.61569
	c-0.15686-0.14641-0.2719-0.21961-0.3451-0.21961C3.9137,10.07059,3.40392,10.52364,3.40392,11.27843z M4.81569,8.28235
	c0,0.13595,0.08366,0.37124,0.25098,0.70588c0.30842,0.59481,1.03353,1.55453,1.58431,2.03922
	c0.25098,0.20915,0.43922,0.31373,0.56471,0.31373c0.16096,0,0.32941-0.19143,0.32941-0.36078
	c0-0.12549-0.09412-0.42876-0.28235-0.9098c-0.2591-0.62924-0.81018-1.78094-1.33333-2.21176
	C5.76209,7.70196,5.6,7.62353,5.44314,7.62353C5.21934,7.62353,4.81569,8.03357,4.81569,8.28235z M5.52157,1.50588
	c0,0.35556,0.12549,0.91503,0.37647,1.67843C6.1281,3.9268,6.4732,4.92026,6.93333,6.16471
	c0.23686-0.14212,0.81042-0.07463,1.11373-0.04706L6.96471,2.98039C6.6719,2.14379,6.44183,1.6,6.27451,1.34902
	c-0.13595-0.21961-0.2719-0.32941-0.40784-0.32941C5.63917,1.01961,5.52157,1.27652,5.52157,1.50588z M8.12549,9.50588
	c0.09412,0.24052,0.19346,0.50196,0.29804,0.78431c0.20915-0.24052,0.4183-0.43922,0.62745-0.59608
	C8.7319,9.6303,8.47508,9.62241,8.12549,9.50588z M9.77255,6.30588l1.05098,0.18824
	c0.47059-1.29673,0.83137-2.33726,1.08235-3.12157c0.1446-0.46852,0.56356-1.53649,0.28235-1.89804
	c-0.09506-0.16635-0.38798-0.21609-0.72157,0.31373c-0.19869,0.30327-0.42353,0.83137-0.67451,1.58431L9.77255,6.30588z"/>
</g><g  transform="translate(112, 16)">
<path fill="#444444" d="M6.5,7.4c0,0,1.5-0.1,1.5-1.9C8,3.7,6.6,3,5,3H0v10l5,0c0,0,3.3-0.1,3.3-3.1C8.3,9.9,8.5,7.4,6.5,7.4z
	 M2.3,4.6h2.5h0.4c0,0,0.7,0,0.7,1S5.5,6.8,5,6.8H2.3V4.6z M5,11H2.3V8.4h2.9c0,0,1,0,1,1.4C6.2,10.9,5.4,11,5,11z"/>
<path fill="#444444" d="M12.5,5.4c-3.8,0-3.8,3.8-3.8,3.8S8.4,13,12.5,13c0,0,3.4,0.2,3.4-2.6h-1.7c0,0,0.1,1.1-1.6,1.1
	c0,0-1.7,0.1-1.7-1.7H16C16,9.7,16.5,5.4,12.5,5.4z M14.1,8.4h-3.3c0,0,0.2-1.5,1.7-1.5C14.1,6.8,14.1,8.4,14.1,8.4z"/>
<rect data-color="color-2" x="10" y="3" fill="#444444" width="5" height="1"/>
</g><g  transform="translate(160, 16)">
<path fill-rule="evenodd" clip-rule="evenodd" fill="#444444" d="M15.6,6.2c-0.3-0.1-1.8,0-2.2-0.3c-0.3-0.3-0.3-1.9-0.9-3.1
	C11.8,1.3,10.1,0,8.6,0H5.1C2.3,0,0,2.3,0,5.1V11c0,2.8,2.3,5,5.1,5h5.8c2.8,0,5-2.3,5.1-5l0-4.1C16,6.9,16,6.4,15.6,6.2z M5,4h3
	c0.6,0,1,0.4,1,1c0,0.6-0.4,1-1,1H5C4.4,6,4,5.6,4,5C4,4.4,4.4,4,5,4z M11,12H5c-0.6,0-1-0.4-1-1c0-0.6,0.4-1,1-1h6c0.6,0,1,0.4,1,1
	C12,11.6,11.6,12,11,12z"/>
</g><g  transform="translate(208, 16)">
<path fill="#444444" d="M7.6,0.1L0.4,3.5C0.2,3.6,0.2,3.9,0.4,4l7.3,3.3c0.2,0.1,0.5,0.1,0.7,0L15.6,4c0.2-0.1,0.2-0.4,0-0.5
	L8.4,0.1C8.1,0,7.9,0,7.6,0.1z"/>
<path data-color="color-2" fill="#444444" d="M15.6,7.8l-1.5-0.7c-0.2-0.1-0.5-0.1-0.7,0L8.3,9.4c-0.2,0.1-0.5,0.1-0.7,0L2.6,7.1C2.3,7,2.1,7,1.9,7.1
	L0.4,7.8c-0.2,0.1-0.2,0.4,0,0.5l7.3,3.3c0.2,0.1,0.5,0.1,0.7,0l7.3-3.3C15.8,8.2,15.8,7.9,15.6,7.8z"/>
<path data-color="color-2" fill="#444444" d="M15.6,12.1l-1.5-0.7c-0.2-0.1-0.5-0.1-0.7,0l-5.1,2.3c-0.2,0.1-0.5,0.1-0.7,0l-5.1-2.3
	c-0.2-0.1-0.5-0.1-0.7,0l-1.5,0.7c-0.2,0.1-0.2,0.4,0,0.5l7.3,3.3c0.2,0.1,0.5,0.1,0.7,0l7.3-3.3C15.8,12.5,15.8,12.2,15.6,12.1z"/>
</g><g  transform="translate(256, 16)">
<polygon fill="#444444" points="5,1 11,1 16,15 12,15 8,3 5.6,11 10.6,11 4,15 0,15 "/>
</g><g  transform="translate(304, 16)">
<path fill="#444444" d="M15.7,5L8.4,0.1C8.2,0,7.8,0,7.6,0.1c0,0-7,4.7-7.3,4.9S0,5.5,0,5.6v4.9C0,10.8,0.3,11,0.3,11l7.3,4.9
	C7.7,16,7.9,16,8,16c0.1,0,0.3,0,0.4-0.1l7.3-4.9c0,0,0.3-0.2,0.3-0.6V5.6C16,5.5,16,5.2,15.7,5z M8.7,2l5.4,3.6l-2.4,1.6l-3-2V2z
	 M7.3,2v3.2l-3,2L1.9,5.6L7.3,2z M1.4,6.8L3.1,8L1.4,9.2V6.8z M7.3,14l-5.4-3.6l2.4-1.6l3,2V14z M8,9.6L5.6,8L8,6.4L10.4,8L8,9.6z
	 M8.7,14v-3.2l3-2l2.4,1.6L8.7,14z M14.6,9.2L12.9,8l1.7-1.2V9.2z"/>
</g><g  transform="translate(352, 16)">
<path fill="#444444" d="M16,6.2C16,5.6,15.7,2,15.7,2c0-0.6-0.2-1-0.5-1.2C15,0.5,14.6,0.3,14,0.3c0,0-3.6-0.3-4.3-0.3
	C8.9,0,8.3,0,7.2,1.1C6.7,1.6,0.7,7.6,0.5,7.8C0.2,8.1-0.6,9,0.8,10.5l4.7,4.7c1.4,1.4,2.4,0.6,2.7,0.3c0.2-0.3,6.2-6.2,6.7-6.7
	C16,7.7,16,7.1,16,6.2z M9.6,8.2l2,1l-0.7,1.3L9.1,9.3c0,0-0.1,0-0.1,0c0,0-0.1,0-0.1,0c-0.1,0-0.1,0.1-0.1,0.2l0.2,2.2H7.3
	c0,0,0,0,0,0c0,0,0.1-2.2,0.1-2.2c0-0.1,0-0.2-0.1-0.2c-0.1,0-0.2,0-0.3,0l-1.8,1.2L4.4,9.2l2.1-1c0.1,0,0.1-0.1,0.1-0.2
	c0-0.1-0.1-0.2-0.1-0.2l-2-1l0.7-1.3L7,6.7c0.1,0.1,0.2,0.1,0.3,0c0.1,0,0.1-0.1,0.1-0.2L7.3,4.2h1.5L8.7,6.4c0,0.1,0,0.2,0.1,0.2
	c0.1,0,0.2,0,0.3,0l1.8-1.2l0.8,1.3l-2.1,1C9.6,7.8,9.5,7.9,9.5,8C9.5,8.1,9.6,8.1,9.6,8.2z M13.1,3.9c-0.5,0-1-0.4-1-1
	c0-0.5,0.4-1,1-1c0.5,0,1,0.4,1,1C14.1,3.5,13.7,3.9,13.1,3.9z"/>
</g><g  transform="translate(400, 16)"><path fill="#444444" d="M6.72387,6.25743h0.73927c0,0-0.56326-2.79868-3.29153-2.79868S0,5.65897,0,7.92959
	s1.28493,4.61166,3.9956,4.61166s3.60836-2.49945,3.60836-3.43234H6.81188c0,0-0.31683,2.76348-2.69307,2.76348
	s-3.36194-2.0418-3.36194-3.92519S2.0066,4.16282,4.15402,4.16282S6.72387,6.25743,6.72387,6.25743z"/>
<path fill="#444444" d="M14.32783,7.70077c1.09131-0.33443,1.30253-1.08544,1.30253-1.83058
	c0-0.78035-0.38724-2.14741-1.9538-2.14741s-4.78768,0-4.78768,0v8.57206c0,0,3.74917,0,4.84048,0S16,11.18592,16,9.9538
	C16,8.89182,15.50128,7.9648,14.32783,7.70077z M10.38504,4.93729h2.58746c0.63836,0,1.15585,0.51749,1.15585,1.15585
	c0,0.63836-0.51749,1.15585-1.15585,1.15585h-2.58746V4.93729z M13.15438,11.09791h-2.76935V8.42244h2.76935
	c0.73881,0,1.33773,0.59892,1.33773,1.33773C14.49212,10.49899,13.8932,11.09791,13.15438,11.09791z"/></g><g  transform="translate(448, 16)">
<polygon fill="#444444" points="13,0 10.1,0 9.7,0.4 8,3 2,3 2,7 6,7 3,13 3,16 6,16 6.3,15.6 8,13 14,13 14,9 10,9 13,3 "/>
</g><g  transform="translate(16, 64)">
<path fill-rule="evenodd" clip-rule="evenodd" fill="#444444" d="M8,0C3.6,0,0,3.6,0,8s3.6,8,8,8s8-3.6,8-8S12.4,0,8,0z M10.2,7.4
	c0,0-0.2-0.6-0.3-0.8c1.7-0.8,2.8-1.7,3.2-2.2c0.7,0.9,1.1,2,1.2,3.2C13.5,7.4,11.7,7.1,10.2,7.4z M9.1,5.1C8.3,3.7,7.4,2.5,7,1.8
	c1.9-0.5,3.6,0.1,4.9,1.3C11.5,3.6,10.7,4.4,9.1,5.1z M5.1,2.5c0.4,0.5,1.2,1.7,2,3.2C4.9,6.2,2.9,6.3,2,6.3
	C2.4,4.7,3.6,3.3,5.1,2.5z M8,7.3c0.1,0.2,0.2,0.4,0.3,0.5c-2.8,0.9-4.6,3.2-5.2,4.1c-0.8-1.1-1.3-2.4-1.3-3.7C2.7,8.1,5.3,8,8,7.3z
	 M9,9.5c0.7,2,1.1,3.6,1.2,4.4c-2.1,0.7-4.5,0.3-5.8-0.8C4.8,12.4,6.1,10.6,9,9.5z M11.9,12.9c-0.2-0.8-0.5-2.2-1.1-3.9
	c1.1-0.2,2.7,0,3.3,0.2C13.8,10.7,13,12,11.9,12.9z"/>
</g><g  transform="translate(64, 64)">
<polygon fill="#444444" points="4.7,0.3 0,3.4 3.3,6 8,3 "/>
<polygon fill="#444444" points="0,8.6 4.7,11.6 8,8.9 3.3,6 "/>
<polygon fill="#444444" points="8,8.9 11.3,11.6 16,8.6 12.7,6 "/>
<polygon fill="#444444" points="16,3.4 11.3,0.3 8,3 12.7,6 "/>
<polygon data-color="color-2" fill="#444444" points="11.2,12.9 8,10.2 4.8,12.9 3.3,11.9 3.3,12.9 8,15.7 12.7,12.9 12.7,11.9 "/>
</g><g  transform="translate(112, 64)">
<path fill="#444444" d="M13,0.1c0.7,0.4,3.7,6.6,1.2,12.1c-2,4.4-7.1,4.4-9.7,2.8C2.2,13.7-1.2,9.6,2.6,4.5C2.7,4.3,3.1,4.3,3,4.9
	C2.9,5.3,2.4,8.3,3.4,9.6C3.9,10.2,4,9.8,4,9.8S3.9,5.4,7.3,2.1C9.4,0.1,12.4-0.2,13,0.1z"/>
</g><g  transform="translate(160, 64)">
<path fill="#444444" d="M14.3,2.8c-0.1-0.6-0.5-1-0.8-1.1c-0.4-0.1-1.1-0.3-2.1-0.4c-0.8-0.1-1.7-0.1-2.2-0.1
	c-0.1-0.4-0.4-0.8-0.7-1C7.8,0,6.3,0,6.3,0c-1,0-1.4,0.1-1.8,0.4c0,0-2.9,2.9-2.9,2.9C1,3.9,1.4,5.6,1.4,5.6l0,0
	c0,0,0.5,3.4,0.9,4.3c0.2,0.3,0.3,0.5,0.6,0.6c0.7,0.3,2.4,0.7,3.2,0.8c0.8,0.1,1.3,0.3,1.6-0.3c0,0,0.4-0.6,0.4-2.3
	c0,0,0.1-0.1,0.1,0c0,0.3-0.1,1.6,0.9,1.9c0.4,0.1,1.1,0.2,1.9,0.3c0.7,0.1,1.2,0.4,1.2,2.1c0,1.1-0.2,1.2-1.4,1.2
	c-1,0-1.3,0-1.3-0.7c0-0.6,0.6-0.6,1.1-0.6c0.2,0,0.1-0.2,0.1-0.5c0-0.4,0.2-0.6,0-0.6c-1.6,0-2.5,0-2.5,2c0,1.8,0.7,2.1,2.9,2.1
	c1.8,0,2.4-0.1,3.1-2.3c0.1-0.4,0.5-1.8,0.7-4.1C14.8,8.2,14.5,3.9,14.3,2.8z M10.7,7.6c0.1-0.4,0.2-1,0.9-1c0.7,0,0.8,0.7,0.8,1.2
	C12.1,7.7,11.3,7.4,10.7,7.6z"/>
</g><g  transform="translate(208, 64)">
<path id="White_2_" fill="#444444" d="M15.3,0H0.7C0.3,0,0,0.3,0,0.7v14.7C0,15.7,0.3,16,0.7,16H8v-5H6V8h2V6c0-2.1,1.2-3,3-3
	c0.9,0,1.8,0,2,0v3h-1c-0.6,0-1,0.4-1,1v1h2.6L13,11h-2v5h4.3c0.4,0,0.7-0.3,0.7-0.7V0.7C16,0.3,15.7,0,15.3,0z"/>
</g><g  transform="translate(256, 64)"><path fill="#444444" d="M6.02293,16L6,9H3V6h3V4c0-2.6992,1.67151-4,4.07938-4c1.15339,0,2.14468,0.08587,2.43356,0.12425v2.82082
	l-1.66998,0.00076c-1.30953,0-1.56309,0.62227-1.56309,1.53541V6H13l-1,3H9.27986v7H6.02293z"/></g><g  transform="translate(304, 64)">
<path fill="#444444" d="M15.1,7.3c-1.8-1.8-3.7-3.7-5.5-5.5C8.9,1.1,7.8,0.4,6.7,1.5C4.7,3.5,2.6,5.6,0.6,7.6c-1,1-0.5,2.1,0,2.5
	c1.5,1.5,2.9,2.9,4.4,4.4c0.3,0.3,0.8,0.5,1.2,0.5c1.2,0,2.4,0,3.6,0c0.5,0,1.1-0.2,1.5-0.5c1.3-1.3,2.6-2.6,3.9-3.9
	C17,8.7,15.4,7.6,15.1,7.3z M4.8,9.6C4.6,9.9,4.2,9.8,3.9,9.8C3.6,9.6,3.4,9.3,3.2,9.1C3,8.9,3.2,8.8,3.3,8.7
	c1.4-1.3,4.4-4.4,4.6-4.6C8.1,4,8.2,4.2,8.3,4.3c0.2,0.3,0.5,0.5,0.8,0.8c0.1,0.1,0,0.3-0.1,0.4C7.6,6.9,6.2,8.2,4.8,9.6z M9.1,12.8
	c-0.2,0.2-0.4,0.5-0.7,0.7c-0.2,0.1-0.5,0-0.7,0c-0.2-0.1-0.4-0.3-0.6-0.5c-0.1-0.1-0.3-0.3-0.2-0.5c0.3-0.3,0.6-0.6,0.9-0.9
	c0.1-0.1,0.3-0.1,0.4,0.1c0.3,0.3,0.5,0.5,0.8,0.8C9.1,12.5,9.2,12.7,9.1,12.8z M9,9.2c-0.8,0.8-1.5,1.5-2.3,2.3
	c-0.2,0.3-0.6,0.2-0.9,0.2c-0.3-0.2-0.5-0.5-0.7-0.7c-0.2-0.1,0-0.3,0.1-0.4c0.8-0.8,2.6-2.6,2.7-2.7C8.1,7.7,8.2,7.9,8.3,8
	c0.3,0.3,0.5,0.5,0.8,0.8C9.2,8.9,9.1,9.1,9,9.2z"/>
</g><g  transform="translate(352, 64)">
<path fill="#444444" d="M15.3,0H0.7C0.3,0,0,0.3,0,0.7v14.7C0,15.7,0.3,16,0.7,16h14.7c0.4,0,0.7-0.3,0.7-0.7V0.7
	C16,0.3,15.7,0,15.3,0z M4.5,10C3.1,10,2,8.9,2,7.5C2,6.1,3.1,5,4.5,5S7,6.1,7,7.5C7,8.9,5.9,10,4.5,10z M11.5,10
	C10.1,10,9,8.9,9,7.5C9,6.1,10.1,5,11.5,5S14,6.1,14,7.5C14,8.9,12.9,10,11.5,10z"/>
</g><g  transform="translate(400, 64)">
<path fill-rule="evenodd" clip-rule="evenodd" fill="#444444" d="M8,0.2c-4.4,0-8,3.6-8,8c0,3.5,2.3,6.5,5.5,7.6
	C5.9,15.9,6,15.6,6,15.4c0-0.2,0-0.7,0-1.4C3.8,14.5,3.3,13,3.3,13c-0.4-0.9-0.9-1.2-0.9-1.2c-0.7-0.5,0.1-0.5,0.1-0.5
	c0.8,0.1,1.2,0.8,1.2,0.8C4.4,13.4,5.6,13,6,12.8c0.1-0.5,0.3-0.9,0.5-1.1c-1.8-0.2-3.6-0.9-3.6-4c0-0.9,0.3-1.6,0.8-2.1
	c-0.1-0.2-0.4-1,0.1-2.1c0,0,0.7-0.2,2.2,0.8c0.6-0.2,1.3-0.3,2-0.3c0.7,0,1.4,0.1,2,0.3c1.5-1,2.2-0.8,2.2-0.8
	c0.4,1.1,0.2,1.9,0.1,2.1c0.5,0.6,0.8,1.3,0.8,2.1c0,3.1-1.9,3.7-3.7,3.9C9.7,12,10,12.5,10,13.2c0,1.1,0,1.9,0,2.2
	c0,0.2,0.1,0.5,0.6,0.4c3.2-1.1,5.5-4.1,5.5-7.6C16,3.8,12.4,0.2,8,0.2z"/>
</g><g  transform="translate(448, 64)">
<path fill="#444444" d="M8,7v2.4h4.1c-0.2,1-1.2,3-4,3c-2.4,0-4.3-2-4.3-4.4s2-4.4,4.3-4.4
	c1.4,0,2.3,0.6,2.8,1.1l1.9-1.8C11.6,1.7,10,1,8.1,1c-3.9,0-7,3.1-7,7s3.1,7,7,7c4,0,6.7-2.8,6.7-6.8c0-0.5,0-0.8-0.1-1.2H8L8,7z"/>
</g><g  transform="translate(16, 112)">
<path fill="#444444" d="M14.1,0H1.9C0.9,0,0,0.8,0,1.9v12.2c0,1,0.9,1.9,1.9,1.9h12.2c1.1,0,1.9-0.8,1.9-1.9V1.9
	C16,0.8,15.1,0,14.1,0z M8,4.9c1.7,0,3.1,1.4,3.1,3.1c0,1.7-1.4,3.1-3.1,3.1c-1.7,0-3.1-1.4-3.1-3.1C4.9,6.3,6.3,4.9,8,4.9z
	 M14,13.3c0,0.4-0.3,0.7-0.7,0.7H2.7C2.3,14,2,13.7,2,13.3V6.7h1.3C3.1,7.4,3.1,8.3,3.3,9.1c0.4,1.9,1.9,3.3,3.8,3.7
	c3.1,0.6,5.8-1.8,5.8-4.8c0-0.4-0.1-0.9-0.2-1.4H14V13.3z M14,4h-2V2h2V4z"/>
</g><g  transform="translate(64, 112)">
<path fill="#444444" d="M7.1,11.5L6.5,9.9c0,0-1,1.1-2.4,1.1c-1.3,0-2.2-1.1-2.2-2.9C1.9,5.8,3.1,5,4.2,5c1.6,0,2.3,1.1,2.6,2.4
	c0.9,3.7,2.3,5,5.4,5c2.3,0,3.8-0.7,3.8-2.5c0-2.4-2.2-2.5-3.6-2.9c-0.7-0.2-1-0.5-1-1.1c0-0.6,0.5-1,1.3-1c0.9,0,1.4,0.3,1.4,1.1
	l1.8-0.2c-0.1-1.6-1.3-2.3-3.2-2.3c-1.6,0-3.3,0.6-3.3,2.6c0,1.2,0.6,2,2.1,2.4c0,0,2.5,0.4,2.5,1.4c0,0.7-0.7,1-1.9,1
	c-2.9,0-3.7-4.1-3.7-4.1c-0.8-2.4-2-3.3-4.4-3.3C1.4,3.6,0,5.3,0,8.2c0,2.8,1.4,4.3,4,4.3C6.1,12.4,7.1,11.5,7.1,11.5L7.1,11.5z"/>
</g><g  transform="translate(112, 112)">
<path fill="#444444" d="M15.3,0H0.7C0.3,0,0,0.3,0,0.7v14.7C0,15.7,0.3,16,0.7,16h14.7c0.4,0,0.7-0.3,0.7-0.7V0.7
	C16,0.3,15.7,0,15.3,0z M4.7,13.6H2.4V6h2.4V13.6z M3.6,5C2.8,5,2.2,4.3,2.2,3.6c0-0.8,0.6-1.4,1.4-1.4c0.8,0,1.4,0.6,1.4,1.4
	C4.9,4.3,4.3,5,3.6,5z M13.6,13.6h-2.4V9.9c0-0.9,0-2-1.2-2c-1.2,0-1.4,1-1.4,2v3.8H6.2V6h2.3v1h0c0.3-0.6,1.1-1.2,2.2-1.2
	c2.4,0,2.8,1.6,2.8,3.6V13.6z"/>
</g><g  transform="translate(160, 112)">
<path fill="#444444" d="M12.99838,14.90763c-0.10349-0.4146-0.36126-1.1468-0.57285-1.62695
	c-0.41332-0.93792-0.94633-2.70947-1.50457-4.9999c-0.19142-0.7857-0.40475-1.53283-0.4738-1.66029
	c-0.17841-0.32904-0.2846,0.71189-0.37967,3.72374c-0.04413,1.3968-0.17508,2.86106-0.29079,3.25391l-0.21063,0.71427
	c-1.90857,0.17662-1.15746,0.10715-3.1355,0.28999c-0.62766-0.78719-2.7382-4.13976-2.7382-4.13976
	c-0.00116,0.00115,0.36179,3.04567,0.29476,3.30168c-0.10857,0.41476-1.60505,1.00284-2.48805,0.97792
	c-0.73332-0.02095-0.88935-0.32491-1.12268-2.1898C-0.022,9.37186-0.0574,8.6341,0.05657,5.89812L0.1699,3.17817l0.69824-0.18682
	C1.99256,2.69056,3.24349,2.7485,3.58681,3.11706c0.16,0.1719,0.92744,1.54679,1.70521,3.0555l1.41426,2.74296l0.20031-1.50791
	C7.20167,5.18528,8.08086,2.2101,8.83846,0.8706l0.29761-0.52634l1.40156,0.03429c1.15315,0.02825,1.45696,0.08968,1.71394,0.34666
	c0.39825,0.39825,1.15029,3.24565,2.25662,8.54301c0.13158,0.63078,0.34396,1.44331,0.47205,1.80584
	c0.12793,0.36237,0.23254,0.79062,0.23254,0.95157c0,0.16095,0.17857,0.83967,0.39682,1.50822
	c0.4011,1.22902,0.48285,1.6314,0.29237,1.44108c0,0-1.90941,0.64161-2.61487,0.68078
	C13.23187,15.65905,13.10187,15.32223,12.99838,14.90763L12.99838,14.90763z"/>
</g><g  transform="translate(208, 112)">
<ellipse fill="#444444" cx="13.2" cy="5.7" rx="2.5" ry="2.5"/>
<ellipse data-color="color-2" fill="#444444" cx="7.5" cy="6.4" rx="2.3" ry="2.3"/>
<ellipse fill="#444444" cx="2.3" cy="7" rx="2.1" ry="2.1"/>
<path fill="#444444" d="M2.3,9.5C1,9.5,0,10.7,0,11.9v0.8l0,0c0,0.1,0.1,0.2,0.2,0.2h0.1h4h0.1c0.1,0,0.2-0.1,0.2-0.2l0,0v-0.8
	C4.5,10.7,3.6,9.5,2.3,9.5z"/>
<path data-color="color-2" fill="#444444" d="M7.5,9.2c-1.5,0-2.5,1.3-2.5,2.6v0.9l0,0c0,0.1,0.1,0.2,0.2,0.2h0.1h4.4h0.1c0.1,0,0.2-0.1,0.2-0.2l0,0v-0.9
	C10,10.5,8.9,9.2,7.5,9.2z"/>
<path fill="#444444" d="M13.2,8.8c-1.6,0-2.8,1.4-2.8,2.9v1l0,0c0,0.1,0.1,0.3,0.3,0.3h0.1h4.9h0.1c0.1,0,0.3-0.1,0.3-0.3l0,0v-1
	C16,10.2,14.8,8.8,13.2,8.8z"/>
</g><g  transform="translate(256, 112)">
<path fill="#444444" d="M12.8,1.2C12,0.4,10.7,0,9,0H4C3.6,0,3.4,0.3,3.3,0.6L1.2,13.7c0,0.3,0.2,0.5,0.4,0.5h3.1l0.7-4.7
	c0.1-0.3,0.4-0.6,0.7-0.6h1.5c2.9,0,5.1-1.2,5.8-4.5C13.4,4.3,13.7,2.3,12.8,1.2z"/>
<path data-color="color-2" fill="#444444" d="M14.3,4.8c-0.8,3.3-3,5.1-6.7,5.1H6.4L5.5,16h2c0.3,0,0.6-0.2,0.6-0.5l0.5-3.2l0-0.2c0.1-0.6,1-0.5,1-0.5
	c2.5,0,4.5-1,5-4C14.9,6.5,14.8,5.5,14.3,4.8z"/>
</g><g  transform="translate(304, 112)">
<path fill="#444444" d="M8,0C3.6,0,0,3.6,0,8c0,3.4,2.1,6.3,5.1,7.4c-0.1-0.6-0.1-1.6,0-2.3c0.1-0.6,0.9-4,0.9-4S5.8,8.7,5.8,8
	C5.8,6.9,6.5,6,7.3,6c0.7,0,1,0.5,1,1.1c0,0.7-0.4,1.7-0.7,2.7c-0.2,0.8,0.4,1.4,1.2,1.4c1.4,0,2.5-1.5,2.5-3.7
	c0-1.9-1.4-3.3-3.3-3.3c-2.3,0-3.6,1.7-3.6,3.5c0,0.7,0.3,1.4,0.6,1.8C5,9.7,5,9.8,5,9.9c-0.1,0.3-0.2,0.8-0.2,0.9
	c0,0.1-0.1,0.2-0.3,0.1c-1-0.5-1.6-1.9-1.6-3.1C2.9,5.3,4.7,3,8.2,3c2.8,0,4.9,2,4.9,4.6c0,2.8-1.7,5-4.2,5c-0.8,0-1.6-0.4-1.8-0.9
	c0,0-0.4,1.5-0.5,1.9c-0.2,0.7-0.7,1.6-1,2.1C6.4,15.9,7.2,16,8,16c4.4,0,8-3.6,8-8C16,3.6,12.4,0,8,0z"/>
</g><g  transform="translate(352, 112)">
<path fill="#444444" d="M9.1,5.6L9.1,5.6l-2.3,0V8h2.3v0c0.7,0,1.2-0.5,1.2-1.2C10.3,6.1,9.7,5.6,9.1,5.6z"/>
<path fill="#444444" d="M8,0C3.6,0,0,3.6,0,8s3.6,8,8,8s8-3.6,8-8S12.4,0,8,0z M9.1,9.6L9.1,9.6l-2.3,0V12H5.2V4l3.9,0v0
	c1.5,0,2.8,1.3,2.8,2.8C11.9,8.3,10.6,9.6,9.1,9.6z"/>
</g><g  transform="translate(400, 112)">
<path fill="#444444" d="M16,7.9c0-1.1-0.9-1.9-1.9-1.9c-0.5,0-0.9,0.2-1.2,0.4c-1.2-0.7-2.7-1.2-4.3-1.3l0.8-2.6L11.7,3
	c0.1,0.8,0.8,1.5,1.6,1.5c0.9,0,1.6-0.7,1.6-1.6c0-0.9-0.7-1.6-1.6-1.6c-0.6,0-1.2,0.4-1.4,0.9L9.2,1.5C9,1.5,8.8,1.6,8.7,1.8
	l-1,3.3C6,5.1,4.4,5.6,3.1,6.3C2.8,6.1,2.4,5.9,1.9,5.9C0.9,5.9,0,6.8,0,7.9c0,0.7,0.3,1.2,0.8,1.6c0,0.2,0,0.3,0,0.5
	c0,1.3,0.8,2.6,2.2,3.5c1.3,0.9,3.1,1.4,5,1.4c1.9,0,3.7-0.5,5-1.4c1.4-0.9,2.2-2.1,2.2-3.5c0-0.1,0-0.3,0-0.4
	C15.6,9.1,16,8.5,16,7.9z M4.5,9c0-0.6,0.5-1.1,1.1-1.1c0.6,0,1.1,0.5,1.1,1.1s-0.5,1.1-1.1,1.1C5,10.1,4.5,9.6,4.5,9z M10.6,12.2
	c-0.6,0.6-1.4,0.8-2.6,0.8c0,0,0,0,0,0c0,0,0,0,0,0c-1.2,0-2.1-0.3-2.6-0.8c-0.2-0.2-0.2-0.4,0-0.6c0.2-0.2,0.4-0.2,0.6,0
	c0.4,0.4,1,0.6,2,0.6c0,0,0,0,0,0c0,0,0,0,0,0c1,0,1.6-0.2,2-0.6c0.2-0.2,0.4-0.2,0.6,0C10.8,11.8,10.8,12.1,10.6,12.2z M10.4,10.1
	c-0.6,0-1.1-0.5-1.1-1.1c0-0.6,0.5-1.1,1.1-1.1c0.6,0,1.1,0.5,1.1,1.1C11.5,9.6,11,10.1,10.4,10.1z"/>
</g><g  transform="translate(448, 112)">
<circle fill="#444444" cx="3" cy="13" r="2"/>
<path fill="#444444" d="M15,15h-2.7C12.3,8.8,7.2,3.7,1,3.7V1C8.7,1,15,7.3,15,15z"/>
<path data-color="color-2" fill="#444444" d="M10.3,15H7.7c0-3.7-3-6.7-6.7-6.7V5.7C6.1,5.7,10.3,9.9,10.3,15z"/>
</g><g  transform="translate(16, 160)">
<path fill="#444444" d="M13.3,3.1C13.3,3,13.2,3,13.1,3c-0.1,0-1.3-0.1-1.3-0.1S11,2,10.9,1.9c-0.1-0.1-0.3-0.1-0.3,0
	c0,0-0.2,0.1-0.5,0.1C9.8,1.2,9.5,0.5,8.3,0.5C8.1,0.1,7.8,0,7.5,0c-2.1,0-3,2.6-3.4,3.9C3.3,4.1,2.8,4.3,2.7,4.3
	C2.3,4.5,2.2,4.5,2.2,4.9c0,0.3-1.2,9.4-1.2,9.4l9.1,1.7l4.9-1.1C15,14.9,13.3,3.2,13.3,3.1z M8.3,2.6c-0.5,0.2-1,0.3-1.6,0.5
	c0.3-1.2,0.9-1.8,1.4-2C8.3,2,8.3,2.6,8.3,2.6z M7.4,0.6c0.1,0,0.2,0,0.3,0.1C7.1,1,6.3,1.7,6,3.3C5.6,3.4,5.2,3.6,4.8,3.7
	C5.1,2.5,6,0.6,7.4,0.6z M7.8,7.5c0,0-0.5-0.3-1.2-0.3c-1,0-1,0.6-1,0.8c0,0.8,2.2,1.1,2.2,3.1c0,1.5-1,2.5-2.3,2.5
	c-1.6,0-2.4-1-2.4-1l0.4-1.4c0,0,0.8,0.7,1.5,0.7c0.5,0,0.6-0.4,0.6-0.6c0-1.1-1.8-1.1-1.8-2.9c0-1.5,1.1-2.9,3.2-2.9
	c0.8,0,1.2,0.2,1.2,0.2L7.8,7.5z M8.8,2.4c0-0.1,0-0.1,0-0.2c0-0.5-0.1-0.9-0.2-1.2c0.5,0.1,0.8,0.6,1,1.2C9.4,2.3,9.1,2.4,8.8,2.4z
	"/>
</g><g  transform="translate(64, 160)">
<path fill="#444444" d="M6.6,0.6C6.6,0.6,6.6,0.6,6.6,0.6c-0.1,0-0.1,0-0.2,0L6.6,0.6z"/>
<path fill="#444444" d="M0.6,6.6C0.6,6.6,0.6,6.6,0.6,6.6c0,0.1,0,0.1,0,0.2L0.6,6.6z"/>
<path fill="#444444" d="M9.3,15.4C9.3,15.4,9.3,15.4,9.3,15.4c0.1,0,0.1,0,0.2,0L9.3,15.4z"/>
<path fill="#444444" d="M15.4,9.3c0.1-0.4,0.6-3.8-2.1-6.7c-2.5-2.7-6.4-2.2-6.8-2.1C5.9,0.2,5.2,0,4.5,0C1,0,0,3.3,0,4.5
	c0,1.2,0.6,2.2,0.6,2.2C0.2,8.3,0.7,10,1,10.9c0.9,2.3,3.1,3.6,4,4c2.2,0.9,4,0.5,4.3,0.5c0.7,0.4,1.4,0.6,2.2,0.6
	c1.2,0,4.5-1,4.5-4.5C16,10.3,15.4,9.3,15.4,9.3z M8,12.6c-2.7,0-3.9-1.3-3.9-2.3c0-0.5,0.4-0.9,0.9-0.9c1.1,0,0.9,1.6,3,1.6
	c1.1,0,1.7-0.6,1.7-1.2c0-1.2-1.4-1-3.3-1.5S4.2,6.8,4.2,5.8c0-2,1.9-2.8,3.7-2.8c1.7,0,3.6,0.9,3.6,2.1c0,0.5-0.5,0.8-1,0.8
	c-1,0-0.8-1.4-2.8-1.4c-1,0-1.5,0.4-1.5,1.1c0,0.9,1.8,1.1,3.2,1.4c1.9,0.5,2.4,1.6,2.4,2.6C11.9,11.4,10.6,12.6,8,12.6z"/>
</g><g  transform="translate(112, 160)">
<rect x="6.9" y="6.9" transform="matrix(-0.3176 -0.9482 0.9482 -0.3176 2.955 18.1266)" fill="#444444" width="2.2" height="2.3"/>
<rect x="6.9" y="6.9" transform="matrix(-0.3176 -0.9482 0.9482 -0.3176 2.955 18.1266)" fill="#444444" width="2.2" height="2.3"/>
<path fill="#444444" d="M15.3,5.8c-1.6-5.5-4-6.8-9.5-5.1c-5.5,1.6-6.8,4-5.1,9.5c1.6,5.5,4,6.8,9.5,5.1C15.7,13.7,17,11.3,15.3,5.8
	z M12.5,9.4l-1,0.3l0.4,1.1c0.1,0.4-0.1,0.9-0.5,1c-0.1,0-0.8,0.2-1-0.5l-0.4-1.1L7.8,11L8.2,12c0.1,0.4-0.1,0.9-0.5,1
	c-0.1,0-0.8,0.2-1-0.5l-0.4-1.1l-1,0.3c-0.6,0.2-0.9-0.2-1-0.5c-0.1-0.4,0.1-0.9,0.5-1l1-0.3L5,7.9L4,8.2C3.5,8.4,3,8,2.9,7.7
	C2.8,7.2,3,6.8,3.5,6.6l1-0.3L4.1,5.2C4,4.8,4.2,4.3,4.7,4.2c0.4-0.1,0.9,0.1,1,0.5l0.4,1.1L8.2,5L7.8,4c-0.1-0.4,0.1-0.9,0.5-1
	c0.4-0.1,0.9,0.1,1,0.5l0.4,1.1l1-0.3c0.4-0.1,0.9,0.1,1,0.5c0.1,0.4-0.1,0.9-0.5,1l-1,0.3L11,8.1l1-0.3c0.4-0.1,0.9,0.1,1,0.5
	C13.2,8.8,13,9.2,12.5,9.4z"/>
</g><g  transform="translate(160, 160)">
<path data-color="color-2" fill="#444444" d="M0.3,8.2C0.3,8.2,0.3,8.1,0.3,8.2c-0.1-0.1-0.1,0-0.1,0c0,0-0.2,1.5-0.2,1.5l0.2,1.5c0,0,0,0.1,0.1,0.1
	c0,0,0.1,0,0.1-0.1l0.2-1.5L0.3,8.2z"/>
<path data-color="color-2" fill="#444444" d="M2.3,6.8C2.2,6.8,2.1,6.9,2.1,7L2,9.7l0.1,1.8c0,0.1,0.1,0.1,0.1,0.1c0.1,0,0.1-0.1,0.1-0.1v0l0.1-1.8L2.4,7
	C2.4,6.9,2.3,6.8,2.3,6.8z"/>
<path data-color="color-2" fill="#444444" d="M6.3,11.6c0.1,0,0.2-0.1,0.2-0.2v0v0l0.1-1.7L6.5,5.5c0-0.1-0.1-0.2-0.2-0.2c-0.1,0-0.2,0.1-0.2,0.2L6,9.7
	c0,0,0.1,1.7,0.1,1.7C6.1,11.5,6.2,11.6,6.3,11.6z"/>
<path data-color="color-2" fill="#444444" d="M4.3,11.6c0.1,0,0.2-0.1,0.2-0.2v0l0.1-1.7L4.5,6c0-0.1-0.1-0.2-0.2-0.2C4.2,5.8,4.1,5.9,4.1,6L4,9.7
	l0.1,1.7C4.1,11.5,4.2,11.6,4.3,11.6z"/>
<path fill="#444444" d="M14,7.5c-0.3,0-0.5,0.1-0.8,0.2C13,5.8,11.5,4.4,9.6,4.4c-0.5,0-0.9,0.1-1.3,0.2C8.1,4.7,8.1,4.8,8.1,4.9
	v6.5c0,0.1,0.1,0.2,0.2,0.2c0,0,5.6,0,5.6,0c1.1,0,2-0.9,2-2S15.1,7.5,14,7.5z"/>
</g><g  transform="translate(208, 160)">
<path fill="#444444" d="M8,0C3.6,0,0,3.6,0,8s3.6,8,8,8s8-3.6,8-8S12.4,0,8,0z M11.7,11.6c-0.2,0.2-0.4,0.3-0.7,0.2
	c-1.9-1.2-4.2-1.4-7-0.8c-0.3,0.1-0.5-0.1-0.6-0.4c-0.1-0.3,0.1-0.5,0.4-0.6c3-0.7,5.7-0.4,7.8,0.9C11.8,11,11.8,11.3,11.7,11.6z
	 M12.6,9.4c-0.2,0.3-0.6,0.4-0.8,0.2c-2.2-1.3-5.4-1.7-8-0.9C3.5,8.7,3.2,8.6,3.1,8.2C3,7.9,3.2,7.6,3.5,7.5c2.9-0.9,6.5-0.4,9,1.1
	C12.7,8.7,12.8,9.1,12.6,9.4z M12.7,7.1c-2.6-1.5-6.8-1.7-9.3-0.9C3,6.3,2.6,6.1,2.5,5.7C2.4,5.3,2.6,4.9,3,4.8
	C5.8,4,10.5,4.1,13.5,5.9c0.4,0.2,0.5,0.7,0.3,1C13.6,7.2,13.1,7.3,12.7,7.1z"/>
</g><g  transform="translate(256, 160)">
<path fill-rule="evenodd" clip-rule="evenodd" fill="#444444" d="M14,0H2C0.9,0,0,0.9,0,2v12c0,1.1,0.9,2,2,2h12c1.1,0,2-0.9,2-2V2
	C16,0.9,15.1,0,14,0z M7,13c0,0.6-0.4,1-1,1H3c-0.6,0-1-0.4-1-1V3c0-0.6,0.4-1,1-1h3c0.6,0,1,0.4,1,1V13z M14,9c0,0.6-0.4,1-1,1h-3
	c-0.6,0-1-0.4-1-1V3c0-0.6,0.4-1,1-1h3c0.6,0,1,0.4,1,1V9z"/>
</g><g  transform="translate(304, 160)">
<path fill="#444444" d="M11.8,12.8c-0.3,0.1-0.9,0.3-1.3,0.3c-1.3,0-1.5-1-1.5-2.1V7h3.5L12,4H9l0-4H6c0,0,0,3.1-3,4v3h2v5
	c0,1.8,1.3,4.1,4.8,4c1.2,0,2.5-0.5,2.8-0.9L11.8,12.8z"/>
</g><g  transform="translate(352, 160)">
<path fill="#444444" d="M16,3c-0.6,0.3-1.2,0.4-1.9,0.5c0.7-0.4,1.2-1,1.4-1.8c-0.6,0.4-1.3,0.6-2.1,0.8c-0.6-0.6-1.5-1-2.4-1
	C9.3,1.5,7.8,3,7.8,4.8c0,0.3,0,0.5,0.1,0.7C5.2,5.4,2.7,4.1,1.1,2.1c-0.3,0.5-0.4,1-0.4,1.7c0,1.1,0.6,2.1,1.5,2.7
	c-0.5,0-1-0.2-1.5-0.4c0,0,0,0,0,0c0,1.6,1.1,2.9,2.6,3.2C3,9.4,2.7,9.4,2.4,9.4c-0.2,0-0.4,0-0.6-0.1c0.4,1.3,1.6,2.3,3.1,2.3
	c-1.1,0.9-2.5,1.4-4.1,1.4c-0.3,0-0.5,0-0.8,0c1.5,0.9,3.2,1.5,5,1.5c6,0,9.3-5,9.3-9.3c0-0.1,0-0.3,0-0.4C15,4.3,15.6,3.7,16,3z"/>
</g><g  transform="translate(400, 160)">
<path fill="#444444" d="M16,4.3c-0.1,1.6-1.2,3.7-3.3,6.4c-2.2,2.8-4,4.2-5.5,4.2c-0.9,0-1.7-0.9-2.4-2.6C4,9.9,3.4,5,2,5
	C1.9,5,1.5,5.3,0.8,5.8L0,4.8c0.8-0.7,3.5-3.4,4.7-3.5C5.9,1.2,6.7,2,7,3.8c0.3,2,0.8,6.1,1.8,6.1c0.9,0,2.5-3.4,2.6-4
	c0.1-0.9-0.3-1.9-2.3-1.1c0.8-2.6,2.3-3.8,4.5-3.8C15.3,1.1,16.1,2.2,16,4.3z"/>
</g><g  transform="translate(448, 160)">
<path fill="#444444" d="M15,8c-0.4,0.1-0.8,0.1-1.2,0.1c-2,0-3.6-1.4-3.6-3.9c0-1.2,0.5-1.8,1.1-1.8c0.6,0,1,0.6,1,1.7
	c0,0.6-0.2,1.4-0.3,1.8c0,0,0.6,1.1,2.3,0.8C14.8,5.8,15,4.8,15,3.9C15,1.4,13.8,0,11.5,0C9.1,0,7.7,1.8,7.7,4.2
	c0,2.4,1.1,4.4,2.9,5.3c-0.8,1.5-1.7,2.9-2.8,3.9c-1.8-2.2-3.5-5.2-4.2-11H1c1.3,9.7,5,12.8,6,13.3c0.6,0.3,1,0.3,1.6,0
	c0.8-0.5,3.2-2.9,4.6-5.7c0.6,0,1.2-0.1,1.9-0.2V8z"/>
</g><g  transform="translate(16, 208)">
<path fill="#444444" d="M13.6,2.3C12.1,0.8,10.2,0,8,0C3.7,0,0.1,3.6,0.1,7.9c0,1.4,0.4,2.8,1.1,4L0,16l4.2-1.1c1.2,0.6,2.5,1,3.8,1
	h0h0c4.4,0,7.9-3.6,7.9-7.9C16,5.8,15.1,3.8,13.6,2.3z M11.9,10.8c-0.2,0.5-1,0.9-1.3,0.9c-0.3,0.1-1.3,0-2.4-0.5
	c-2-0.9-3.3-2.9-3.4-3C4.7,8.1,4,7.1,4,6.2s0.5-1.5,0.7-1.7c0.4-0.4,1.2-0.3,1.4,0.1C6.2,5,6.6,6,6.7,6.1s0.1,0.5-0.2,0.7
	C6.4,6.8,5.9,7.2,6.1,7.5c0.1,0.2,0.5,0.8,1.1,1.4c0.8,0.7,1.4,0.9,1.6,1C9,10,9.1,10,9.2,9.8C9.3,9.7,9.7,9.2,9.8,9
	c0.1-0.2,0.3-0.2,0.4-0.1s1.2,0.5,1.4,0.6C11.8,9.7,12,9.7,12,9.8C12.1,9.9,12.1,10.3,11.9,10.8z"/>
</g><g  transform="translate(64, 208)">
<path fill="#444444" d="M0,8c0,3.2,1.8,5.9,4.5,7.2L0.7,4.7C0.2,5.7,0,6.8,0,8z"/>
<path fill="#444444" d="M13.4,7.6c0-1-0.4-1.7-0.7-2.2C12.3,4.7,12,4.2,12,3.5c0-0.7,0.6-1.4,1.3-1.4c0,0,0.1,0,0.1,0
	C12,0.8,10.1,0,8,0C5.2,0,2.7,1.4,1.3,3.6C1.5,3.6,4,3.5,4,3.5c0.4,0,0.5,0.6,0.1,0.7c0,0-0.4,0.1-0.9,0.1L6,12.9l1.8-5.3L6.5,4.2
	c-0.4,0-0.8-0.1-0.8-0.1c-0.4,0-0.4-0.7,0.1-0.7c0,0,1.3,0.1,2.1,0.1c0.8,0,2.1-0.1,2.1-0.1c0.4,0,0.5,0.6,0.1,0.7
	c0,0-0.4,0.1-0.9,0.1l2.9,8.6l0.8-2.7C13.1,9.1,13.4,8.3,13.4,7.6z"/>
<path fill="#444444" d="M8.1,8.7l-2.4,7C6.5,15.9,7.2,16,8,16c0.9,0,1.8-0.2,2.7-0.5c0,0,0-0.1-0.1-0.1L8.1,8.7z"/>
<path fill="#444444" d="M15,4.2c0,0.3,0.1,0.5,0.1,0.8c0,0.8-0.2,1.7-0.6,2.9L12,14.9c2.4-1.4,4-4,4-6.9C16,6.6,15.6,5.3,15,4.2z"/>
</g><g  transform="translate(112, 208)">
<path fill="#444444" d="M2.3,7.7C2.1,8.1,1.9,10.3,2.2,11c0.1,0.2,0.3,0.3,0.5,0.3c0.1,0,3.6-1.1,3.6-1.1c0.3-0.1,0.4-0.3,0.5-0.6
	c0-0.3-0.1-0.6-0.4-0.7c0,0-3.4-1.4-3.5-1.4C2.6,7.4,2.5,7.5,2.3,7.7z"/>
<path fill="#444444" d="M8,15.6C8,15.5,8,11.8,8,11.8c0-0.3-0.2-0.5-0.4-0.6c-0.3-0.1-0.6,0-0.8,0.2c0,0-2.3,2.9-2.4,3
	c-0.1,0.2,0,0.5,0.1,0.6c0.4,0.5,2.4,1.2,3,1.1C7.8,15.9,7.9,15.8,8,15.6z"/>
<path fill="#444444" d="M12,14.8c0.6-0.2,1.9-1.9,2-2.6c0-0.2,0-0.4-0.2-0.5c-0.1-0.1-3.6-1.2-3.6-1.2c-0.2-0.1-0.5,0-0.7,0.2
	c-0.2,0.2-0.2,0.6-0.1,0.8c0,0,1.9,3.2,2,3.2C11.6,14.8,11.8,14.8,12,14.8L12,14.8z"/>
<path fill="#444444" d="M13.6,8c0.2-0.1,0.2-0.3,0.2-0.5c0,0,0,0,0,0c-0.1-0.7-1.2-2.4-1.8-2.7c-0.2-0.1-0.4-0.1-0.6,0
	c-0.1,0.1-2.3,3.1-2.3,3.1c-0.2,0.2-0.2,0.5,0,0.8C9.4,8.9,9.7,9.1,10,9C10,9,13.5,8.1,13.6,8z"/>
<path fill="#444444" d="M8.1,6.5L8.1,6.5c0-1.1-0.4-5.9-0.4-6.1C7.6,0.2,7.5,0.1,7.3,0C6.6-0.1,4,0.6,3.5,1.1
	C3.3,1.3,3.3,1.5,3.3,1.7C3.4,1.8,6.6,7,6.6,7c0.5,0.8,0.9,0.7,1,0.6C7.7,7.6,8.1,7.5,8.1,6.5z"/>
</g><g  transform="translate(160, 208)">
<path fill="#444444" d="M15.8,4.8c-0.2-1.3-0.8-2.2-2.2-2.4C11.4,2,8,2,8,2S4.6,2,2.4,2.4C1,2.6,0.3,3.5,0.2,4.8C0,6.1,0,8,0,8
	s0,1.9,0.2,3.2c0.2,1.3,0.8,2.2,2.2,2.4C4.6,14,8,14,8,14s3.4,0,5.6-0.4c1.4-0.3,2-1.1,2.2-2.4C16,9.9,16,8,16,8S16,6.1,15.8,4.8z
	 M6,11V5l5,3L6,11z"/>
</g></svg>