<svg xmlns="http://www.w3.org/2000/svg" xmlns:xlink="http://www.w3.org/1999/xlink" x="0px" y="0px" width="960px" height="480px" viewBox="0 0 960 480"><g  transform="translate(24, 24)">
<path d="M11.85662,31.53889c0.01049,0.02911,0.2592,0.7167,0.40326,1.05754c0.79095,1.87016,1.92362,3.55009,3.36665,4.9931
	c1.44193,1.44189,3.12206,2.57442,4.99378,3.36609c1.93756,0.81963,3.99533,1.23521,6.11614,1.23521
	c2.12042,0,4.17819-0.41565,6.11615-1.23537c1.871-0.79137,3.5512-1.92407,4.99377-3.36662
	c1.44245-1.44235,2.57512-3.12251,3.36665-4.99372c0.81963-1.93785,1.23521-3.99563,1.23521-6.11618
	c0-2.12071-0.41558-4.17848-1.23521-6.11618c-0.7914-1.87107-1.92406-3.55123-3.36665-4.99381
	c-1.44212-1.44226-3.12231-2.57498-4.99377-3.36668c-1.93776-0.81963-3.99553-1.23522-6.11615-1.23522
	c-2.14578,0-4.28986,0.42712-6.20057,1.23522c-1.52719,0.64612-4.11229,2.30944-5.62547,3.86998l-0.00893,0.00916V2.95074
	l21.72096-0.0002c0.79042-0.00864,0.79042-1.11246,0.79042-1.47517c0-0.36265,0-1.46618-0.79284-1.4752L13.13395,0
	c-0.63938,0-1.03515,0.53185-1.03515,1.02462v18.20053c0,0.58719,0.73143,1.01115,1.41103,1.15656
	c1.3272,0.28348,1.63378-0.14074,1.95882-0.58967l0.04309-0.05955c0.49622-0.73713,2.04695-2.29784,2.06246-2.31338
	c2.42003-2.41993,5.65578-3.75264,9.11109-3.75264c3.43881,0,6.66537,1.3327,9.08533,3.7526
	c2.42818,2.42831,3.76548,5.64584,3.76548,9.05988c0,3.42636-1.33046,6.64376-3.74625,9.05959
	c-2.38496,2.38493-5.71667,3.75277-9.14081,3.75277c-2.31925,0-4.55799-0.61797-6.47573-1.78746l0.00821-11.06667
	c0-1.4756,0.64035-3.07972,1.71292-4.29101c1.22628-1.38479,2.91625-2.14744,4.75877-2.14744
	c1.78437,0,3.45087,0.67741,4.6926,1.90744c1.23279,1.22129,1.91175,2.84842,1.91175,4.58165
	c0,3.6982-2.90804,6.59513-6.62039,6.59513c-0.71565,0-2.01664-0.3162-2.07009-0.32924
	c-0.74961-0.22324-1.06846,0.81738-1.17341,1.16038c-0.40346,1.31918,0.20287,1.58068,0.32849,1.61973
	c1.19466,0.37073,1.97798,0.44101,3.00563,0.44101c5.24065,0,9.50424-4.26568,9.50424-9.50887
	c0-5.20111-4.26098-9.43254-9.49844-9.43254c-2.56482,0-4.97429,0.98042-6.78447,2.76068
	c-1.72394,1.69542-2.71267,3.95606-2.71267,6.20171l-0.00098,0.05574c-0.00841,0.28002-0.01389,6.91429-0.01545,9.09146
	l-0.00978-0.01081c-0.98514-1.09076-1.95868-2.76036-2.60425-4.46621c-0.25307-0.66855-0.82458-0.5502-1.60458-0.31001
	c-0.34062,0.10492-1.37726,0.42425-1.14799,1.1736L11.85662,31.53889z M23.02059,28.93877
	c0.00339,0.31812,0.29446,0.59698,0.46832,0.76363l0.05463,0.05271c0.29818,0.29329,0.58221,0.44199,0.84408,0.44199
	c0.21688,0,0.35052-0.10258,0.39785-0.14665c0.13136-0.12197,1.61716-1.62749,1.75888-1.7711l1.65698,1.65165
	c0.15339,0.17282,0.32015,0.25942,0.51448,0.26476c0.2646,0,0.55294-0.15733,0.85698-0.46766
	c0.715-0.73006,0.35724-1.1237,0.18423-1.31403l-1.67889-1.67941l1.75086-1.76325c0.38397-0.41545,0.04498-0.85698-0.29322-1.19521
	c-0.49107-0.49108-0.96487-0.61781-1.26853-0.33798l-1.74095,1.74395l-1.76051-1.761
	c-0.09329-0.08941-0.21095-0.13667-0.34029-0.13667c-0.23462,0-0.5122,0.15864-0.82511,0.47155
	c-0.54146,0.54133-0.65757,0.91559-0.37575,1.21415l1.76097,1.75559l-1.7506,1.75373
	C23.09099,28.62332,23.01883,28.77785,23.02059,28.93877z M26.85738,5.1428c-2.81443,0-5.80812,0.56813-8.00768,1.5196
	c-0.23514,0.09205-0.37569,0.28093-0.40652,0.54622c-0.02894,0.2503,0.03866,0.58051,0.20685,1.01024
	c0.13638,0.34857,0.4987,1.27452,1.20014,1.00692c2.25113-0.85871,4.73967-1.33162,7.00722-1.33162
	c2.56938,0,5.06125,0.50293,7.40652,1.49486c1.8635,0.78833,3.6218,1.92703,5.53348,3.58356
	c0.13937,0.12083,0.28729,0.18207,0.43963,0.18207c0.37269,0,0.73019-0.36607,1.036-0.70923
	c0.51043-0.57265,0.86095-1.04857,0.35808-1.52491c-1.82557-1.72935-3.82597-3.02121-6.29548-4.06551
	C32.64987,5.71888,29.79737,5.1428,26.85738,5.1428z M42.02269,39.89665h0.00006c-0.33866-0.33772-0.62634-0.53716-0.87941-0.60975
	c-0.25658-0.07367-0.48573-0.01878-0.66272,0.1587l-0.16662,0.1663c-1.74434,1.74453-3.77565,3.11414-6.0374,4.07076
	c-2.34056,0.99-4.82761,1.49196-7.3921,1.49196c-2.5645,0-5.05147-0.50196-7.39204-1.49196
	c-2.26155-0.95652-4.29273-2.32606-6.03714-4.07063c-1.81742-1.81739-3.18698-3.84847-4.0705-6.03688
	c-0.86148-2.13385-1.14284-3.73875-1.23528-4.2661c-0.00867-0.04938-0.01552-0.08846-0.02089-0.11673
	c-0.11855-0.62096-0.69013-0.66441-1.51155-0.53876c-0.34162,0.05228-1.3812,0.21131-1.28221,0.95927l0.00238,0.01708
	c0.27523,1.7314,0.76145,3.42903,1.44519,5.0457c1.099,2.59829,2.67193,4.93129,4.675,6.93421
	c2.00314,2.00324,4.33628,3.5761,6.93448,4.67494C21.08192,47.42291,23.93924,48,26.8845,48
	c2.94376,0,5.80115-0.57738,8.49263-1.71608c2.59734-1.09844,4.93048-2.67163,6.93454-4.67575
	c0.00463-0.0046,0.11408-0.11324,0.17399-0.17846C42.7062,41.18961,42.89812,40.76947,42.02269,39.89665z"/>
</g><g  transform="translate(120, 24)">
<path fill="#111111" d="M7.15294,34.07059c0-3.83453,1.62895-5.85893,4.8-6.72941C11.45098,26.08627,11.2,25.16079,11.2,24.56471
	c0-2.20661,2.78837-4.94118,4.89412-4.94118c0.53333,0,1.16078,0.14118,1.88235,0.42353
	c-1.50588-4.29804-2.58824-7.56078-3.24706-9.78823c-0.86017-2.90307-2.01157-6.67816,0-8.94118
	C15.51373,0.43922,16.56471,0,17.88235,0c2.25882,0,4.97255,4.62745,8.14118,13.88235l0.8,2.30588
	c1.20033-3.00082,4.88375-15.29412,9.03529-15.29412c1.2549,0,2.24314,0.42353,2.96471,1.27059
	c2.02848,2.28204,0.83306,5.66133,0,8.61176c-0.65882,2.2902-1.69412,5.42745-3.10588,9.41177
	c1.78823,0.43921,3.07451,1.28627,3.85883,2.54118c0.84706,1.34902,1.27059,3.43529,1.27059,6.25882
	c0,5.58432-1.66275,10.14902-4.98824,13.69412C32.47059,46.22745,28.17255,48,22.96471,48
	c-6.43163,0-12.0802-3.77773-14.58824-8.89412C7.56079,37.41177,7.15294,35.73333,7.15294,34.07059z M10.21177,33.83529
	c0,1.96574,1.31226,4.33846,2.49412,5.92941c2.76824,3.57846,6.38809,5.12941,10.63529,5.12941
	c4.04706,0,7.45098-1.52157,10.21177-4.56471c2.72941-3.01176,4.09412-6.82353,4.09412-11.43529
	c0-1.57722-0.00425-3.93641-1.17647-4.94118c-0.84706-0.72157-2.5098-1.34902-4.98823-1.88235
	c-2.47843-0.56471-5.11373-0.84706-7.90588-0.84706c-1.07907,0-1.64706,0.16292-1.64706,1.22353
	c0,1.28627,0.72157,2.19608,2.16471,2.72941c1.56863,0.65882,4.15686,0.98824,7.76471,0.98824h1.31765
	c0.73756,0,1.39246,0.3853,1.6,1.97647c-1.3528,1.3528-3.58117,1.53439-5.08236,2.68235
	c-1.2549,0.9098-2.25882,1.99216-3.01176,3.24706C25.96078,35.29412,25.6,36.4549,25.6,37.55294
	c0,0.65882,0.15686,1.45882,0.47059,2.4c0.3451,1.03529,0.51761,1.7098,0.51761,2.02353
	c-0.00828,0.29124-0.09408,0.49412-0.44696,0.6353c-1.4588,0.32941-2.12555-0.38432-2.753-1.57647
	c-0.53333-1.00392-0.83137-2.2902-0.89412-3.85882c-0.18997,0.06332-0.87779,0.04706-1.08235,0.04706
	c0.03137,0.15686,0.04706,0.3451,0.04706,0.5647c0,0.94118-0.36078,1.74118-1.08235,2.4
	c-0.72157,0.65882-1.56863,0.98824-2.54118,0.98824c-1.47451,0-2.96471-0.70588-4.47059-2.11765
	c-1.50588-1.44314-2.25882-2.8549-2.25882-4.23529c0-0.81907,0.35039-1.24451,0.89412-1.78823
	c0.78431,0.97255,1.31765,1.64706,1.6,2.02353c1.31765,1.85098,2.5098,2.77647,3.57647,2.77647
	c0.59893,0,1.08235-0.44372,1.08235-0.75294c0-0.25098-0.18823-0.70588-0.56471-1.3647
	c-0.55047-1.03213-2.72209-3.91092-3.85882-4.84706c-0.47059-0.43921-0.81569-0.65882-1.03529-0.65882
	C11.74109,30.21177,10.21177,31.57092,10.21177,33.83529z M14.44706,24.84706c0,0.40784,0.25098,1.11373,0.75294,2.11765
	c0.92526,1.78443,3.10059,4.66358,4.75294,6.11765c0.75294,0.62745,1.31765,0.94118,1.69412,0.94118
	c0.48287,0,0.98824-0.57428,0.98824-1.08235c0-0.37647-0.28235-1.28627-0.84706-2.72941c-0.77729-1.88772-2.43055-5.34281-4-6.63529
	c-0.50196-0.47059-0.98824-0.70588-1.45882-0.70588C15.65803,22.87059,14.44706,24.10072,14.44706,24.84706z M16.56471,4.51765
	c0,1.06667,0.37647,2.7451,1.12941,5.03529c0.6902,2.22745,1.72549,5.20784,3.10588,8.94118
	c0.71058-0.42635,2.43125-0.2239,3.34118-0.14118l-3.24706-9.41177C20.01569,6.43137,19.32549,4.8,18.82353,4.04706
	C18.41569,3.38824,18.00784,3.05882,17.6,3.05882C16.91752,3.05882,16.56471,3.82956,16.56471,4.51765z M24.37647,28.51765
	c0.28235,0.72157,0.58039,1.50588,0.89412,2.35294c0.62745-0.72157,1.2549-1.31765,1.88235-1.78823
	C26.19571,28.8909,25.42524,28.86724,24.37647,28.51765z M29.31765,18.91765l3.15294,0.56471
	c1.41177-3.8902,2.49412-7.01176,3.24706-9.36471c0.43381-1.40555,1.69067-4.60948,0.84706-5.69412
	C36.27953,3.92448,35.40077,3.77525,34.4,5.36471c-0.59608,0.9098-1.27059,2.49412-2.02353,4.75294L29.31765,18.91765z"/>
</g><g  transform="translate(216, 24)">
<path fill="#131418" d="M19.37172,22.39109c0,0,4.54224-0.33744,4.54224-5.66422c0-5.32688-3.71639-7.92643-8.4238-7.92643H6.8253
	H6.57074H0v29.76862h6.57074H6.8253h8.66485c0,0,9.45615,0.29807,9.45615-8.78642
	C24.9463,29.78264,25.35919,22.39109,19.37172,22.39109z M6.8253,14.09113h7.54987h1.11497c0,0,2.1059,0,2.1059,3.09702
	s-1.23882,3.54608-2.64273,3.54608H6.8253V14.09113z M15.09078,33.27836H6.8253v-7.95543h8.66485
	c0,0,3.13825-0.04122,3.13825,4.08797C18.6284,32.85383,16.33296,33.24382,15.09078,33.27836z"/>
<path fill="#131418" d="M37.55814,16.3742c-11.44758,0-11.43723,11.4373-11.43723,11.4373s-0.7856,11.37962,11.43756,11.37962
	c0,0,10.18618,0.5818,10.18618-7.91616h-5.2387c0,0,0.17453,3.20092-4.77293,3.20092c0,0-5.23878,0.35039-5.23878-5.17971h15.42496
	C47.91919,29.29616,49.60675,16.3742,37.55814,16.3742z M42.21455,25.32293h-9.77867c0,0,0.64031-4.5887,5.2387-4.5887
	C42.27304,20.73423,42.21455,25.32293,42.21455,25.32293z"/>
<rect x="31.15419" y="10.55384" fill="#131418" width="12.28149" height="3.66669"/>
</g><g  transform="translate(312, 24)">
<path fill-rule="evenodd" clip-rule="evenodd" fill="#FF6600" d="M46.69295,18.57133
	c-1.01019-0.43299-5.34045,0.04811-6.54326-1.04243c-0.84998-0.78584-0.90368-2.20865-1.23488-4.10558
	c-0.55482-3.17768-0.78584-3.89709-1.36318-5.14801C35.45072,3.8169,30.41667,0,25.8443,0H15.24357
	C6.90411,0,0.0882,6.83194,0.0882,15.1714v17.68928C0.0882,41.1841,6.90411,48,15.24357,48H32.6602
	c8.33946,0,15.10726-6.8159,15.15537-15.13932l0.09623-12.25259C47.9118,20.60809,47.9118,19.09375,46.69295,18.57133z M15,12H23
	c1.65685,0,3,1.34314,3,3V15c0,1.65685-1.34315,3-3,3H15c-1.65685,0-3-1.34314-3-3V15C12,13.34315,13.34315,12,15,12z M33,36H15
	c-1.65685,0-3-1.34314-3-3V33c0-1.65685,1.34314-3,3-3H33c1.65685,0,3,1.34315,3,3V33C36,34.65686,34.65686,36,33,36z"/>
</g><g  transform="translate(408, 24)">
<path fill="#333333" d="M22.81235,0.26375L1.17026,10.37494c-0.64935,0.30337-0.64666,1.22771,0.00445,1.5273l21.80884,10.03483
	c0.64513,0.29684,1.38778,0.29684,2.03291,0l21.80885-10.03483c0.6511-0.29959,0.65379-1.22392,0.00445-1.5273L25.18764,0.26375
	C24.43493-0.08792,23.56506-0.08792,22.81235,0.26375z"/>
<path fill="#333333" d="M46.82974,23.35217l-4.46971-2.08825c-0.64787-0.30268-1.39613-0.30486-2.04575-0.00595l-15.29784,7.03894
	c-0.64513,0.29684-1.38778,0.29684-2.03291,0L7.68571,21.25797c-0.64962-0.29891-1.39788-0.29673-2.04575,0.00596l-4.46971,2.08825
	c-0.64935,0.30338-0.64665,1.22771,0.00445,1.5273L22.98354,34.9143c0.64513,0.29684,1.38778,0.29684,2.03291,0l21.80885-10.03483
	C47.4764,24.57988,47.47909,23.65554,46.82974,23.35217z"/>
<path fill="#333333" d="M46.82974,36.21524l-4.46971-2.08825c-0.64787-0.30268-1.39613-0.30486-2.04575-0.00595l-15.29784,7.03894
	c-0.64513,0.29684-1.38778,0.29684-2.03291,0L7.68571,34.12103c-0.64962-0.29891-1.39788-0.29673-2.04575,0.00596l-4.46971,2.08825
	c-0.64935,0.30338-0.64665,1.22771,0.00445,1.52729l21.80884,10.03483c0.64513,0.29684,1.38778,0.29684,2.03291,0l21.80885-10.03483
	C47.4764,37.44295,47.47909,36.51861,46.82974,36.21524z"/>
</g><g  transform="translate(504, 24)">
<polygon fill="#CB0000" points="14.22777,1.57254 33.77223,1.57254 48,46.42746 34.67083,46.42746 24.11232,8.68643 
	17.22309,32.42434 30.70203,32.42434 13.92824,46.42746 0,46.42746 "/>
</g><g  transform="translate(600, 24)">
<circle fill="#030502" cx="24" cy="24" r="24"/>
<path fill="#FFFFFF" d="M39.38762,17.98096L24.76269,8.23106c-0.46199-0.30803-1.06344-0.30803-1.52548,0L8.61228,17.98096
	C8.24553,18.22708,8,18.6582,8,19.12484v9.74991c0,0.472,0.25263,0.90768,0.61228,1.14377l14.62492,9.75002
	c0.23099,0.15396,0.49701,0.23143,0.76295,0.23143c0.26553,0,0.53143-0.07747,0.76253-0.23143l14.62493-9.75002
	C39.74139,29.78931,40,29.35213,40,28.87475v-9.74991C40,18.68246,39.77252,18.2359,39.38762,17.98096z M25.37508,11.94452
	l10.77377,7.18198l-4.8123,3.21938l-5.96146-3.98783V11.94452z M22.62486,11.94452v6.41353l-5.96113,3.98783l-4.81269-3.21938
	L22.62486,11.94452z M10.75016,21.69869l3.44035,2.3011l-3.44035,2.30116V21.69869z M22.62486,36.05507l-10.77382-7.18204
	l4.81269-3.2185l5.96113,3.98701V36.05507z M24.00016,27.25284l-4.86359-3.25305l4.86359-3.25304l4.86322,3.25304L24.00016,27.25284
	z M25.37508,36.05507v-6.41353l5.96146-3.98701l4.8123,3.2185L25.37508,36.05507z M37.24973,26.30095l-3.43991-2.30116
	l3.43991-2.3011V26.30095z"/>
</g><g  transform="translate(696, 24)">
<path fill="#8BA651" d="M47.99835,18.67921c0-1.83699-0.79081-12.7585-0.79081-12.7585c0-1.73125-0.64169-2.89155-1.44736-3.68239
	c-0.78784-0.80267-1.94817-1.44733-3.67925-1.44733c0,0-10.92167-0.79084-12.7616-0.79084
	c-2.63935,0-4.40016-0.07622-7.70759,3.23422C20.00339,4.83974,2.17669,22.66924,1.42382,23.41914
	c-0.7501,0.7501-3.28699,3.70898,1.04006,8.03587l14.07964,14.08261c4.32986,4.32986,7.28887,1.78716,8.03881,1.03726
	c0.7499-0.75024,18.5794-18.57974,20.18477-20.18514C48.07754,23.07934,47.99835,21.32154,47.99835,18.67921z"/>
<path fill="#FFFFFF" d="M28.9455,24.56924l6.10847,2.90101l-2.24675,4.02006l-5.64989-3.68949
	c-0.13098-0.08645-0.27976-0.13098-0.42855-0.13098c-0.13098,0-0.26162,0.03267-0.38074,0.10094
	c-0.25304,0.14581-0.39885,0.42263-0.37807,0.71395l0.46716,6.68283h-4.52236c0,0-0.01206,0-0.02078,0
	c0.01764-0.05672,0.37179-6.6858,0.37179-6.6858c0.02081-0.29132-0.12486-0.56811-0.3779-0.71395
	c-0.25601-0.14581-0.56828-0.13395-0.80912,0.0297l-5.49249,3.73108l-2.45182-3.90033l6.16192-3.05902
	c0.26476-0.12469,0.43432-0.39277,0.43432-0.68719c0-0.29463-0.16956-0.56236-0.43432-0.68723l-6.11128-2.90114l2.24628-4.01942
	l5.64739,3.69229c0.24084,0.16068,0.55311,0.17834,0.80912,0.0297c0.25304-0.14581,0.39872-0.42247,0.3779-0.71412l-0.46419-6.68266
	h4.52533l-0.35696,6.68266c-0.02078,0.29165,0.12503,0.56831,0.37807,0.71412c0.25571,0.14865,0.57142,0.13098,0.80929-0.0297
	l5.49253-3.73121l2.45162,3.90097l-6.15598,3.05851c-0.26493,0.12486-0.43449,0.3926-0.43449,0.68723
	C28.51101,24.17647,28.68057,24.44454,28.9455,24.56924z"/>
<path fill="#FFFFFF" d="M39.39438,11.75354c-1.59977,0-2.89172-1.29493-2.89172-2.89142c0-1.59665,1.29196-2.88861,2.89172-2.88861
	c1.59054,0,2.88253,1.29196,2.88253,2.88861C42.27691,10.45861,40.98492,11.75354,39.39438,11.75354z"/>
</g><g  transform="translate(792, 24)">
<path d="M20.17162,18.77228h2.21782c0,0-1.68977-8.39604-9.87459-8.39604S0,16.9769,0,23.78878s3.85479,13.83498,11.9868,13.83498
	s10.82508-7.49835,10.82508-10.29703h-2.37624c0,0-0.95049,8.29043-8.07921,8.29043S2.27063,29.49175,2.27063,23.84159
	S6.0198,12.48845,12.46205,12.48845S20.17162,18.77228,20.17162,18.77228z"/>
<path fill="#1F92A8" d="M42.9835,23.07591c3.27393-1.0033,3.90759-3.25632,3.90759-5.49175
	c0-2.34104-1.16172-6.44224-5.86139-6.44224s-14.36304,0-14.36304,0v25.71617c0,0,11.24753,0,14.52145,0
	c3.27393,0,6.81188-3.32673,6.81188-7.0231C48,26.64906,46.50384,23.86799,42.9835,23.07591z M31.15512,14.78548h7.76238
	c1.91507,0,3.46754,1.55247,3.46754,3.46754c0,1.91509-1.55247,3.46756-3.46754,3.46756h-7.76238V14.78548z M39.46315,33.26733
	h-8.30804v-8.0264h8.30804c2.21643,0,4.0132,1.79677,4.0132,4.0132S41.67958,33.26733,39.46315,33.26733z"/>
</g><g  transform="translate(888, 24)">
<polygon fill="#00CE3E" points="38.88889,0 30.16667,0 29,1.16667 24.85189,9.08053 24,10 8,10 8,21.6111 17.33333,21.6111 
	17.89969,22.34406 9.11111,39.11112 9.11111,48 17.88887,48 18.94445,46.88892 23.05811,39.03975 24,38 40,38 40,26.44444 
	30.72221,26.44444 30.04908,25.70042 38.88889,8.83334 "/>
</g><g  transform="translate(24, 120)">
<circle fill-rule="evenodd" clip-rule="evenodd" fill="#EC4989" cx="24" cy="24" r="22"/>
<path fill-rule="evenodd" clip-rule="evenodd" fill="#C51E60" d="M24,48C10.76634,48,0,37.23367,0,24S10.76634,0,24,0
	s24,10.76634,24,24S37.23367,48,24,48z M44.24043,27.28526c-0.70131-0.22139-6.34512-1.90462-12.76904-0.87632
	c2.68127,7.368,3.77242,13.36901,3.98248,14.61604C40.05281,37.91529,43.32676,32.98922,44.24043,27.28526z M32.00759,42.90177
	c-0.30491-1.79855-1.49512-8.0667-4.37317-15.54565c-0.04508,0.01537-0.09014,0.02997-0.13522,0.04568
	c-11.56254,4.02907-15.71318,12.04754-16.08208,12.80169C14.89291,42.91393,19.26098,44.53096,24,44.53096
	C26.83974,44.53096,29.54627,43.95018,32.00759,42.90177z M8.77028,37.73798c0.46437-0.79491,6.09047-10.11026,16.66294-13.52769
	c0.2672-0.08636,0.53661-0.16751,0.8078-0.24389c-0.51458-1.16453-1.0751-2.33039-1.662-3.47891
	c-10.23733,3.06376-20.17138,2.93579-21.06828,2.91738c-0.00628,0.20814-0.01044,0.41677-0.01044,0.62638
	C3.50029,29.29642,5.49619,34.10373,8.77028,37.73798z M3.93331,19.83267c0.91689,0.01211,9.36268,0.04878,18.95169-2.49764
	c-3.39667-6.03807-7.05994-11.11453-7.60038-11.85568C9.54951,8.18445,5.26262,13.47144,3.93331,19.83267z M19.1961,4.10142
	c0.56664,0.75871,4.28983,5.82892,7.64903,12.00077c7.28945-2.73216,10.37528-6.87988,10.74399-7.40503
	C33.96901,5.48534,29.20873,3.53155,24,3.53155C22.34599,3.53155,20.73766,3.72984,19.1961,4.10142z M39.86806,11.06771
	c-0.43216,0.58461-3.86734,4.98833-11.44684,8.08282c0.477,0.97645,0.93431,1.96957,1.36004,2.96928
	c0.15089,0.35431,0.29785,0.70693,0.44164,1.05791c6.82102-0.8577,13.5985,0.51693,14.27436,0.65987
	C44.45215,18.99909,42.72316,14.55604,39.86806,11.06771z"/>
</g><g  transform="translate(120, 120)">
<polygon fill="#007BE9" points="14.11978,1.67737 0,10.89649 9.76318,18.71473 23.99977,9.92379 "/>
<polygon fill="#007BE9" points="0,26.53349 14.11978,35.75256 23.99977,27.50568 9.76318,18.71473 "/>
<polygon fill="#007BE9" points="23.99977,27.50568 33.88022,35.75256 48,26.53349 38.23682,18.71473 "/>
<polygon fill="#007BE9" points="48,10.89649 33.88022,1.67737 23.99977,9.92379 38.23682,18.71473 "/>
<polygon fill="#007BE9" points="24.02898,29.27989 14.11978,37.50248 9.87953,34.73409 9.87953,37.83767 24.02898,46.32264 
	38.17839,37.83767 38.17839,34.73409 33.93814,37.50248 "/>
</g><g  transform="translate(216, 120)">
<path fill="#82B739" d="M38.85281,0.26303c2.18579,1.05521,11.07875,19.92971,3.49221,36.36721
	c-6.09277,13.20102-21.38907,13.20163-29.14193,8.54991c-6.62317-3.9739-16.73855-16.49771-5.53938-31.7912
	c0.47416-0.57953,1.61063-0.52684,1.35474,1.22679c-0.18161,1.24456-1.80632,10.18312,1.29453,14.0667
	c1.41495,1.94179,1.74611,0.60211,1.74611,0.60211s-0.24084-13.00549,9.81433-22.88003
	C28.25574,0.38345,37.1067-0.57992,38.85281,0.26303z"/>
</g><g  transform="translate(312, 120)">
<path fill="#807F83" d="M7.93153,9.29681c0,0,0,0,0.00295,0h4.5048c0.25811,0,0.46572-0.21023,0.46624-0.4664
	c0-0.00161-0.0547-3.86254-0.0547-4.93621V3.88147c0-0.88178,0.18507-1.65062,0.50745-2.29486l0.15404-0.28934
	c-0.01721,0.00291-0.03446,0.01135-0.05159,0.02852l-8.7529,8.67977c-0.01713,0.0141-0.02784,0.03236-0.03276,0.05111
	c0.18106-0.0896,0.42859-0.21205,0.46353-0.2274C5.90084,9.48531,6.82517,9.29681,7.93153,9.29681z M42.98452,8.35169
	c-0.35785-1.91556-1.49669-2.85955-2.52634-3.2307c-1.11092-0.40148-3.36353-0.81742-6.19379-1.151
	c-2.277-0.26817-4.95331-0.24684-6.56986-0.19682c-0.19403-1.32892-1.12617-2.54298-2.1691-2.96329
	c-2.77887-1.11849-7.07235-0.84829-8.17471-0.53933c-0.87597,0.24482-1.8455,0.74658-2.38515,1.51973
	c-0.36185,0.51642-0.596,1.17807-0.59782,2.10239c0,0.52317,0.01455,1.75549,0.02788,2.85043
	c0.01325,1.09836,0.02763,2.0807,0.02763,2.08733c-0.00052,0.97786-0.79302,1.77367-1.77516,1.77496H8.14257
	c-0.96105,0-1.69538,0.16148-2.25628,0.41636c-0.56178,0.25508-0.95967,0.59895-1.26198,1.00576
	c-0.60179,0.80782-0.70625,1.80474-0.70375,2.8221c0,0,0.00889,0.83132,0.20915,2.44037
	c0.16652,1.24505,1.51669,9.94252,2.79915,12.58767c0.49723,1.02921,0.82842,1.45783,1.8053,1.91144
	c2.17657,0.93183,7.14817,1.96855,9.47826,2.2654c2.32588,0.29758,3.7857,0.92319,4.65573-0.90089
	c0.0029-0.00452,0.17428-0.45384,0.40997-1.1129c0.7553-2.28876,0.86041-4.31952,0.86041-5.78908
	c0-0.14939,0.21924-0.15626,0.21924,0c0,1.03753-0.19812,4.70897,2.57527,5.69398c1.09485,0.38831,3.36611,0.73445,5.67389,1.00496
	c2.08668,0.23981,3.60103,1.06096,3.60103,6.41453c0,3.25712-0.68411,3.70369-4.2605,3.70369
	c-2.89911,0-4.00401,0.07506-4.00401-2.22816c0-1.8615,1.84105-1.66637,3.20556-1.66637c0.60946,0,0.16709-0.45335,0.16709-1.60182
	c0-1.1424,0.7145-1.80283,0.0387-1.81956c-4.7183-0.12984-7.49451-0.00542-7.49451,5.89548
	c0,5.35697,2.05004,6.35167,8.74663,6.35167c5.25047,0,7.10127-0.17194,9.26927-6.89866
	c0.42912-1.32791,1.46656-5.38049,2.09447-12.1847C44.36749,24.61432,43.59624,11.62904,42.98452,8.35169z M33.83192,22.70451
	c-0.64869-0.0227-1.27261,0.01826-1.85435,0.11175c0.1637-1.32238,0.70956-2.945,2.6431-2.87709
	c2.14041,0.07361,2.44033,2.09666,2.44797,3.46692C36.16608,23.0037,35.04885,22.74725,33.83192,22.70451z"/>
</g><g  transform="translate(408, 120)">
<path id="White_4_" fill="#39579A" d="M46,48c1.10457,0,2-0.89543,2-2V2c0-1.10457-0.89543-2-2-2H2C0.89543,0,0,0.89543,0,2v44
	c0,1.10457,0.89543,2,2,2H46z"/>
<path id="White_2_" fill="#FFFFFF" d="M25.51917,48V29H19v-7l6.51917,0v-5.17462c0-6.19977,3.78661-9.57566,9.31723-9.57566
	c2.64922,0,4.92609,0.19724,5.58964,0.2854v6.47912l-3.83578,0.00174C33.5824,14.01598,33,15.44527,33,17.54265V22h7l-1,7h-6v19
	H25.51917z"/>
</g><g  transform="translate(504, 120)">
<path id="White_1_" fill="#39579A" d="M18.06306,46L18,26h-8v-8h8v-5c0-7.42279,4.59664-11,11.21828-11
	c3.17183,0,5.89786,0.23615,6.6923,0.3417v7.75726l-4.59246,0.00209c-3.60122,0-4.2985,1.71125-4.2985,4.22238V18H37.5l-4,8
	h-6.48038v20H18.06306z"/>
</g><g  transform="translate(600, 120)">
<path fill="#1FB446" d="M45.277,21.87963c-5.49203-5.49279-10.98483-10.98288-16.47246-16.47749
	c-0.80249-0.78817-1.55661-1.68833-2.61559-2.14066c-1.05201-0.49956-2.27045-0.57013-3.40001-0.32951
	c-0.98841,0.22746-1.88108,0.76856-2.5948,1.48177C14.01987,10.58994,7.84354,16.7668,1.66733,22.94042
	c-0.71115,0.70933-1.26618,1.59582-1.49299,2.58164c-0.50716,1.77528,0.12915,3.76345,1.4294,5.04098
	c4.35369,4.35564,8.70999,8.70496,13.06176,13.06305c0.97266,0.99162,2.34296,1.56873,3.73325,1.55234
	c3.56128,0.02013,7.12178-0.00258,10.68048,0.01135c1.60201,0.10205,3.22235-0.47001,4.35629-1.61788
	c3.94485-3.93349,7.87834-7.88093,11.82139-11.81686c0.64251-0.65141,1.33803-1.26128,1.86094-2.01719
	c0.96131-1.38412,1.12001-3.24751,0.55878-4.81546C47.23807,23.6637,46.18606,22.79554,45.277,21.87963z"/>
<path fill="#FFFFFF" d="M14.44499,28.8924c-0.67025,0.79759-1.84947,0.58845-2.75672,0.4473
	c-0.79939-0.6407-1.53144-1.38346-2.17653-2.17653c-0.37286-0.43905,0.10463-0.89771,0.40008-1.20709
	c4.06264-4.04432,8.11018-8.1058,12.16405-12.15708c0.54497-0.52988,1.03821-1.12013,1.64988-1.57492
	c0.52665-0.26334,0.93357,0.3068,1.28386,0.60909c0.74533,0.79514,1.59066,1.49996,2.27419,2.35172
	c0.35287,0.42087-0.03406,0.90907-0.34267,1.21148C22.77141,20.55734,18.60091,24.71764,14.44499,28.8924z"/>
<path fill="#FFFFFF" d="M27.22716,38.47674c-0.64767,0.72831-1.32488,1.44397-2.08583,2.0524
	c-0.69799,0.1689-1.44073,0.1298-2.14763,0.02775c-0.67902-0.34396-1.13832-1.00415-1.69516-1.51183
	c-0.3957-0.38564-1.01562-0.96518-0.50471-1.52204c0.86119-0.95626,1.7816-1.86984,2.73413-2.73916
	c0.35467-0.29855,0.88377-0.15121,1.1698,0.17392c0.81397,0.78624,1.61595,1.58756,2.40205,2.40644
	C27.40921,37.6389,27.57745,38.15923,27.22716,38.47674z"/>
<path fill="#FFFFFF" d="M26.98396,27.56068c-2.31329,2.31071-4.63341,4.61768-6.93277,6.94219
	c-0.64573,0.79126-1.7816,0.54058-2.66796,0.46756c-0.85242-0.54936-1.5157-1.36075-2.20182-2.09912
	c-0.45724-0.43337-0.02954-1.0004,0.32254-1.32669c2.31587-2.30697,4.62903-4.61329,6.9329-6.93341
	c0.42086-0.40886,0.80004-0.87951,1.30901-1.1907c0.5091-0.21856,0.88197,0.29984,1.22025,0.5909
	c0.77049,0.82468,1.64743,1.55157,2.3498,2.43545C27.62467,26.83998,27.26561,27.28097,26.98396,27.56068z"/>
</g><g  transform="translate(696, 120)">
<path fill="#E8E8E8" d="M46,0H2C0.89539,0,0,0.89539,0,2v44c0,1.10449,0.89539,2,2,2h44c1.10461,0,2-0.89551,2-2V2
	C48,0.89539,47.10461,0,46,0z"/>
<circle fill="#005FDF" cx="14" cy="24" r="8"/>
<circle fill="#FF0083" cx="34" cy="24" r="8"/>
</g><g  transform="translate(792, 120)">
<path fill-rule="evenodd" clip-rule="evenodd" fill="#191717" d="M23.99845,0.59265C10.74637,0.59265,0,11.33769,0,24.59404
	c0,10.60258,6.87606,19.59804,16.41386,22.77204c1.20004,0.22012,1.63806-0.52082,1.63806-1.15686
	c0-0.56974-0.02077-2.07903-0.03241-4.08188c-6.67598,1.45035-8.08463-3.21718-8.08463-3.21718
	c-1.09131-2.77253-2.66469-3.51067-2.66469-3.51067c-2.17907-1.4891,0.16487-1.4589,0.16487-1.4589
	c2.40847,0.16973,3.67612,2.47329,3.67612,2.47329c2.14091,3.66758,5.6171,2.60854,6.98465,1.99416
	c0.21805-1.55098,0.83804-2.60854,1.52373-3.20849c-5.32935-0.60569-10.93201-2.66468-10.93201-11.86154
	c0-2.62004,0.93513-4.76241,2.47034-6.4401c-0.24678-0.60716-1.07038-3.0473,0.23529-6.35155c0,0,2.01508-0.64532,6.59981,2.46033
	c1.91431-0.53232,3.9674-0.79855,6.00842-0.80783c2.03807,0.00928,4.09131,0.27551,6.00842,0.80783
	c4.58193-3.10565,6.59333-2.46033,6.59333-2.46033c1.30935,3.30425,0.48561,5.74439,0.23883,6.35155
	c1.53816,1.67769,2.46695,3.82007,2.46695,6.4401c0,9.21985-5.61135,11.24863-10.95794,11.84283
	c0.86175,0.74094,1.62936,2.20573,1.62936,4.44447c0,3.20848-0.02947,5.79699-0.02947,6.5839
	c0,0.64178,0.43228,1.38847,1.65029,1.15406C41.12967,44.18338,48,35.19382,48,24.59404
	C48,11.33769,37.25348,0.59265,23.99845,0.59265z"/>
</g><g  transform="translate(888, 120)">
<path fill="#DE4D3B" d="M48,22h-4v-4h-4v4h-4v4h4v4h4v-4h4V22z"/>
<path fill="#DE4D3B" d="M33.05286,22.00891L18,22v6h8.60217c-0.46423,2.53943-3.0072,7.17175-9.60217,7.17175
	c-5.80432,0-10.54004-4.80859-10.54004-10.73425c0-5.92567,4.73572-10.73426,10.54004-10.73426
	c3.30286,0,5.51282,1.40857,6.77576,2.6228l4.61426-4.44421C25.42712,9.11316,21.58997,7.43751,17,7.43751
	c-9.39856,0-17,7.60143-17,17c0,9.39855,7.60144,17,17,17C28.69557,41.43751,34.71981,31.73002,33.05286,22.00891z"/>
</g><g  transform="translate(24, 216)">
<path fill="#8E6151" d="M0,5.69305V15h3V0.68073C1.21393,1.64258,0,3.526,0,5.69305z"/>
<path fill="#8E6151" d="M42.29382,0.00018H15V15h33V5.69305C48,2.54877,45.4455,0.00018,42.29382,0.00018z"/>
<path fill="#FA3756" d="M5.70654,0.00018C4.72699,0.00018,3.80548,0.24701,3,0.68073V15h3V0.00018H5.70654z"/>
<rect x="6" y="0.00018" fill="#FEC849" width="3" height="14.99982"/>
<rect x="9" y="0.00018" fill="#71C997" width="3" height="14.99982"/>
<rect x="12" y="0.00018" fill="#4892FC" width="3" height="14.99982"/>
<path fill="#E9E2D6" d="M0,42.30725c0,3.14398,2.55487,5.69257,5.70654,5.69257h36.58728C45.4455,47.99982,48,45.45123,48,42.30725
	V15H0V42.30725z"/>
<path fill="#1A1A1A" d="M42,12h-4c-1.10457,0-2-0.89543-2-2V6c0-1.10457,0.89543-2,2-2h4c1.10457,0,2,0.89543,2,2v4
	C44,11.10457,43.10457,12,42,12z"/>
<circle fill="#37373A" cx="40" cy="8" r="2"/>
<circle fill="#E9E2D6" cx="24" cy="24" r="13"/>
<circle fill="#1A1A1A" cx="24" cy="24" r="11"/>
<circle fill="#37373A" cx="24" cy="24" r="8"/>
<circle fill="#1A1A1A" cx="24" cy="24" r="5"/>
</g><g  transform="translate(120, 216)">
<path fill="#D20300" d="M45,48H3c-1.65685,0-3-1.34315-3-3V3c0-1.65685,1.34315-3,3-3h42c1.65685,0,3,1.34315,3,3v42
	C48,46.65685,46.65685,48,45,48z"/>
<path fill="#FFFFFF" d="M22.11245,30.94607l-1.17312-3.18879c0,0-1.90623,2.12599-4.76494,2.12599
	c-2.52945,0-4.32544-2.19936-4.32544-5.7183c0-4.50849,2.2724-6.12134,4.50865-6.12134c3.2254,0,4.25171,2.08931,5.13156,4.76522
	l1.17312,3.66553c1.17271,3.55535,3.37207,6.41432,9.71325,6.41432c4.54552,0,7.62447-1.39273,7.62447-5.05807
	c0-2.96902-1.68642-4.5087-4.83873-5.24183l-2.34581-0.51316c-1.61264-0.36657-2.08911-1.02632-2.08911-2.126
	c0-1.24628,0.98942-1.9794,2.60246-1.9794c1.75944,0,2.71239,0.6599,2.85912,2.23606l3.66532-0.43993
	c-0.29318-3.29891-2.56565-4.6551-6.30461-4.6551c-3.29878,0-6.52446,1.24628-6.52446,5.24161
	c0,2.49256,1.2096,4.06878,4.25166,4.8019l2.49289,0.58632c1.86936,0.43999,2.49222,1.20967,2.49222,2.27273
	c0,1.35599-1.31944,1.9059-3.81207,1.9059c-3.70215,0-5.24142-1.94265-6.12134-4.61856l-1.2096-3.66526
	c-1.53926-4.76521-3.99534-6.52464-8.87061-6.52464C10.85919,15.11129,8,18.52011,8,24.31158
	c0,5.5717,2.85919,8.57713,7.99104,8.57713C20.13284,32.88871,22.11245,30.94607,22.11245,30.94607L22.11245,30.94607z"/>
</g><g  transform="translate(216, 216)">
<path fill="#007BB5" d="M44.44853,0H3.54103C1.58791,0,0.00067,1.54948,0.00067,3.46093V44.5364
	C0.00067,46.44787,1.58791,48,3.54103,48h40.90751c1.95707,0,3.5508-1.55213,3.5508-3.4636V3.46093
	C47.99933,1.54948,46.4056,0,44.44853,0z"/>
<path fill="#FFFFFF" d="M7.11264,17.9948h7.12629v22.90627H7.11264V17.9948z M10.67775,6.60807
	c2.27735,0,4.12625,1.84961,4.12625,4.12827c0,2.27929-1.84891,4.12887-4.12625,4.12887c-2.28645,0-4.1302-1.84957-4.1302-4.12887
	C6.54755,8.45768,8.39129,6.60807,10.67775,6.60807"/>
<path fill="#FFFFFF" d="M18.70507,17.9948h6.82427v3.13147h0.0976c0.9492-1.8008,3.27213-3.69987,6.73573-3.69987
	c7.20827,0,8.5404,4.74293,8.5404,10.91213v12.56253h-7.11853V29.76173c0-2.65627-0.0456-6.0736-3.6992-6.0736
	c-3.7044,0-4.2696,2.8952-4.2696,5.88347v11.32947h-7.11067V17.9948z"/>
</g><g  transform="translate(312, 216)">
<path fill="#030303" d="M38.99514,44.7229c-0.31047-1.24379-1.08379-3.44041-1.71854-4.88086
	c-1.23997-2.81376-2.83899-8.12842-4.51372-14.99971c-0.57428-2.3571-1.21426-4.59848-1.4214-4.98086
	c-0.53523-0.98712-0.85379,2.13567-1.13902,11.17122c-0.13238,4.1904-0.52523,8.58316-0.87237,9.76172l-0.63189,2.14281
	c-5.72572,0.52985-3.47239,0.32146-9.40649,0.86998c-1.88297-2.36158-8.2146-12.41928-8.2146-12.41928
	c-0.00348,0.00345,1.08536,9.13701,0.88427,9.90504c-0.32571,1.24427-4.81515,3.00851-7.46414,2.93375
	c-2.19996-0.06286-2.66804-0.97474-3.36803-6.5694C-0.06601,28.11559-0.1722,25.9023,0.1697,17.69436l0.33999-8.15984
	l2.09472-0.56047c3.37327-0.90237,7.12605-0.72856,8.15603,0.37714c0.47999,0.5157,2.78233,4.64038,5.11562,9.16649l4.24278,8.22889
	l0.60094-4.52372c0.88522-6.66702,3.52279-15.59256,5.7956-19.61105l0.89284-1.57901l4.20468,0.10286
	c3.45946,0.08476,4.37087,0.26904,5.14181,1.03998c1.19474,1.19474,3.45089,9.73695,6.76987,25.62903
	c0.39475,1.89234,1.03189,4.32992,1.41616,5.41751c0.3838,1.08713,0.69761,2.37186,0.69761,2.85471s0.53571,2.519,1.19045,4.52467
	c1.20331,3.68707,1.44855,4.89419,0.87712,4.32325c0,0-5.72824,1.92484-7.84461,2.04234
	C39.69561,46.97714,39.30561,45.96668,38.99514,44.7229L38.99514,44.7229z"/>
</g><g  transform="translate(408, 216)">
<path fill="#020302" d="M46,48H2c-1.10457,0-2-0.89543-2-2V2c0-1.10457,0.89543-2,2-2h44c1.10457,0,2,0.89543,2,2v44
	C48,47.10457,47.10457,48,46,48z"/>
<ellipse fill="#FFFFFF" cx="34.40435" cy="19.30125" rx="5.09062" ry="5.07266"/>
<ellipse fill="#FFFFFF" cx="22.9342" cy="20.74773" rx="4.58266" ry="4.56586"/>
<ellipse fill="#FFFFFF" cx="12.53263" cy="22.05062" rx="4.1247" ry="4.10827"/>
<path fill="#FFFFFF" d="M12.53279,27.09704c-2.61533,0-4.5328,2.29562-4.5328,4.66717v1.59626l0,0
	c0,0.22563,0.18467,0.41094,0.41187,0.41094h0.14624h7.94874h0.14563c0.22797,0,0.41267-0.18531,0.41267-0.41094l0,0v-1.59626
	C17.06515,29.39266,15.14809,27.09704,12.53279,27.09704z"/>
<path fill="#FFFFFF" d="M22.93404,26.35455c-2.90595,0-5.03687,2.55091-5.03687,5.18624v1.77376l0,0
	c0,0.25091,0.20531,0.45686,0.45779,0.45686h0.1625h8.83251h0.16189c0.25373,0,0.45875-0.20595,0.45875-0.45686l0,0v-1.77376
	C27.97062,28.90546,25.83999,26.35455,22.93404,26.35455z"/>
<path fill="#FFFFFF" d="M34.40374,25.53077c-3.22877,0-5.59626,2.83408-5.59626,5.7625v1.97062l0,0
	c0,0.27875,0.22813,0.50752,0.50874,0.50752h0.18064h9.81376h0.17936c0.28189,0,0.51002-0.22877,0.51002-0.50752l0,0v-1.97062
	C40,28.36485,37.63279,25.53077,34.40374,25.53077z"/>
</g><g  transform="translate(504, 216)">
<path fill-rule="evenodd" clip-rule="evenodd" fill="#009DE2" d="M21.06091,11.29682h13.53967
	c7.26871,0,10.00576,3.67959,9.58316,9.09441c-0.6969,8.92642-6.09389,13.86229-13.25238,13.86229h-3.6141
	c-0.98108,0-1.64121,0.64853-1.9082,2.41101l-1.55056,10.23313c-0.10065,0.66471-0.45025,1.0551-0.97556,1.10234H14.3931
	c-0.79884,0-1.08305-0.61121-0.87394-1.93483l5.18452-32.82645C18.9114,11.9232,19.63108,11.29682,21.06091,11.29682z"/>
<path fill-rule="evenodd" clip-rule="evenodd" fill="#113984" d="M12.59623,0h13.55312c3.81728,0,8.34443,0.12392,11.37318,2.795
	c2.02311,1.78435,3.08484,4.62719,2.83966,7.67912c-0.83112,10.34901-7.02147,16.14543-15.32262,16.14543H18.3552
	c-1.13771,0-1.89185,0.75386-2.21272,2.79566l-1.86529,11.86581c-0.12095,0.7699-0.45469,1.2235-1.0639,1.27819H4.86449
	c-0.92642,0-1.25579-0.70857-1.01337-2.24352L9.86295,2.25172C10.10387,0.72632,10.93824,0,12.59623,0z"/>
<path fill-rule="evenodd" clip-rule="evenodd" fill="#172C70" d="M16.33674,28.21897l2.36694-14.98036
	c0.20772-1.31552,0.9274-1.94179,2.35723-1.94179h13.53974c2.24134,0,4.05208,0.34988,5.47139,0.99485
	c-1.36049,9.21015-7.31746,14.32788-15.11875,14.32788h-6.68437C17.38886,26.61955,16.73159,27.0691,16.33674,28.21897z"/>
</g><g  transform="translate(600, 216)">
<path fill="#FFFFFF" d="M48,24c0,13.25491-10.74522,23.99987-24,23.99987S0,37.25491,0,24C0,10.74522,10.74522,0.00013,24,0.00013
	S48,10.74522,48,24"/>
<path fill="#BD081C" d="M23.97145,2.25318C11.96105,2.25318,2.22463,11.9896,2.22463,24
	c0,9.21299,5.73188,17.08208,13.82164,20.25073c-0.19021-1.72064-0.36175-4.35987,0.07557-6.23819
	c0.39505-1.69722,2.55008-10.8097,2.55008-10.8097s-0.65056-1.30266-0.65056-3.22869c0-3.02385,1.75266-5.2814,3.93495-5.2814
	c1.85531,0,2.75163,1.39299,2.75163,3.06335c0,1.86584-1.188,4.65539-1.80116,7.24071
	c-0.51232,2.16456,1.08551,3.92971,3.22038,3.92971c3.86524,0,6.83625-4.07552,6.83625-9.95849
	c0-5.20683-3.74144-8.84742-9.08377-8.84742c-6.18763,0-9.81961,4.64112-9.81961,9.43754c0,1.86906,0.72002,3.87337,1.61839,4.96285
	c0.17759,0.21527,0.20373,0.40405,0.15086,0.6237c-0.16514,0.68697-0.53199,2.16405-0.60402,2.46627
	c-0.0949,0.39812-0.31521,0.48248-0.72722,0.29086c-2.71624-1.26434-4.41427-5.2352-4.41427-8.42482
	c0-6.86006,4.98423-13.15994,14.36892-13.15994c7.54392,0,13.40669,5.37563,13.40669,12.55992
	c0,7.4948-4.7257,13.52656-11.28484,13.52656c-2.20353,0-4.27524-1.14479-4.98433-2.49712c0,0-1.09038,4.15217-1.35476,5.16964
	c-0.49112,1.88896-1.8164,4.25675-2.70293,5.7011c2.03484,0.62992,4.19713,0.96979,6.43895,0.96979
	c12.01053,0,21.74694-9.73641,21.74694-21.74694C45.71839,11.9896,35.98199,2.25318,23.97145,2.25318z"/>
</g><g  transform="translate(696, 216)">
<path fill="#DC5425" d="M24,0C10.74516,0,0,10.74517,0,24s10.74517,24,24,24s24-10.74517,24-24S37.25483,0,24,0z"/>
<path fill="#FFFFFF" d="M27.20001,12H15.59998v24h4.80005v-7.19995h6.79999v-0.00006c4.63922,0,8.39996-3.7608,8.39996-8.40002
		C35.59998,15.7608,31.83923,12,27.20001,12z M27.20001,23.99994V24h-6.79999v-7.19995h6.79999v-0.00006
		c1.98822,0,3.59991,1.61176,3.59991,3.59998C30.79993,22.38812,29.18823,23.99988,27.20001,23.99994z"/>
</g><g  transform="translate(792, 216)">
<circle fill="#FFFFFF" cx="5.4563" cy="23.5596" r="4.53396">
</circle>
<path d="M5.45596,29.01598C2.44736,29.01598,0,26.5678,0,23.5592s2.44736-5.45678,5.45596-5.45678
	c3.00942,0,5.45678,2.44818,5.45678,5.45678S8.46538,29.01598,5.45596,29.01598z M5.45596,19.94756
	c-1.99099,0-3.61082,1.62065-3.61082,3.61163s1.61983,3.61164,3.61082,3.61164S9.0676,25.55018,9.0676,23.5592
	S7.44695,19.94756,5.45596,19.94756z"/>
<circle fill="#FFFFFF" cx="42.54347" cy="23.5596" r="4.53396">
</circle>
<path d="M42.54322,29.01598c-3.0086,0-5.45596-2.44818-5.45596-5.45678s2.44736-5.45678,5.45596-5.45678
	C45.55264,18.10242,48,20.55059,48,23.5592S45.55264,29.01598,42.54322,29.01598z M42.54322,19.94756
	c-1.99099,0-3.61082,1.62065-3.61082,3.61163s1.61983,3.61164,3.61082,3.61164c1.99099,0,3.61163-1.62065,3.61163-3.61164
	S44.53421,19.94756,42.54322,19.94756z"/>
<circle fill="#FFFFFF" cx="40.26978" cy="8.37873" r="3.57414">
</circle>
<ellipse fill="#FFFFFF" cx="23.90088" cy="29.79505" rx="20.53705" ry="13.40051">
</ellipse>
<path d="M25.30408,15.51977l2.81964-8.91428l7.65219,1.80152c0.01567,2.46589,2.02407,4.46805,4.49365,4.46805
	c2.48013,0,4.49734-2.01721,4.49734-4.49652s-2.01721-4.49652-4.49734-4.49652c-1.84658,0-3.43384,1.12055-4.12526,2.7161
	l-8.43107-1.98525c-0.4662-0.11143-0.94551,0.15895-1.09136,0.61942L23.3773,15.49007
	C11.78769,15.678,2.44162,22.01546,2.44162,29.79435c0,7.8984,9.62638,14.32364,21.45924,14.32364
	S45.3601,37.69275,45.3601,29.79435C45.3601,22.21364,36.48228,16.00584,25.30408,15.51977z M40.26956,5.72716
	c1.46252,0,2.65219,1.18968,2.65219,2.65137s-1.18967,2.65137-2.65219,2.65137c-1.4617,0-2.65137-1.18968-2.65137-2.65137
	S38.80787,5.72716,40.26956,5.72716z M23.90086,42.27284c-10.81524,0-19.61409-5.59771-19.61409-12.47849
	c0-6.87915,8.79885-12.47685,19.61409-12.47685s19.61409,5.59771,19.61409,12.47685
	C43.51495,36.67513,34.7161,42.27284,23.90086,42.27284z"/>
<path fill="#FF4500" d="M16.77315,23.85074c-1.824,0-3.30357,1.47956-3.30357,3.30356s1.47956,3.356,3.30357,3.356
	c1.824,0,3.30356-1.532,3.30356-3.356S18.59715,23.85074,16.77315,23.85074z"/>
<path fill="#FF4500" d="M31.24591,23.85074c-1.824,0-3.30357,1.47956-3.30357,3.30356s1.47956,3.356,3.30357,3.356
	c1.824,0,3.30356-1.532,3.30356-3.356S33.06991,23.85074,31.24591,23.85074z"/>
<path d="M31.74603,35.31335c-0.35968-0.35883-0.94391-0.35883-1.30524-0.00159c-1.25439,1.25354-3.35352,1.86316-6.41541,1.86316
	c-0.00928,0-0.01697,0.00507-0.02618,0.00531c-0.00922-0.00024-0.01697-0.00531-0.02625-0.00531
	c-3.06348,0-5.1618-0.60962-6.41541-1.86157c-0.36047-0.36047-0.9447-0.36047-1.30518,0
	c-0.35968,0.36053-0.35968,0.94391,0.00079,1.30438c1.61658,1.61737,4.14178,2.40234,7.71979,2.40234
	c0.00928,0,0.01703-0.00507,0.02625-0.00531c0.00922,0.00024,0.01691,0.00531,0.02618,0.00531
	c3.57642,0,6.10162-0.78497,7.71979-2.4007C32.10571,36.25891,32.10651,35.67389,31.74603,35.31335z"/>
</g><g  transform="translate(888, 216)">
<circle fill="#FF6600" cx="8" cy="38" r="6"/>
<path fill="#FF6600" d="M44,44h-8c0-18.74805-15.25195-34-34-34V2C25.1582,2,44,20.84082,44,44z"/>
<path fill="#FF6600" d="M30,44h-8c0-11.02832-8.97266-20-20-20v-8C17.43945,16,30,28.56055,30,44z"/>
</g><g  transform="translate(24, 312)">
<path fill="#95BF47" d="M39.84516,9.35914c-0.03441-0.24086-0.24086-0.3785-0.4129-0.3785S35.5785,8.70538,35.5785,8.70538
	s-2.54624-2.54624-2.85592-2.82151c-0.27527-0.27527-0.82581-0.20645-1.03226-0.13763c-0.03441,0-0.55054,0.17204-1.44516,0.44731
	c-0.86022-2.51183-2.3742-4.7828-5.02366-4.7828c-0.06882,0-0.13763,0-0.24086,0C24.25806,0.44731,23.29462,0,22.50323,0
	c-6.19355,0-9.15269,7.74194-10.08172,11.66452c-2.4086,0.75699-4.12903,1.27312-4.33548,1.34194
	c-1.34194,0.4129-1.37634,0.44731-1.54839,1.72043C6.4,15.69032,2.89032,42.87312,2.89032,42.87312L30.24516,48l14.83011-3.2
	C45.07527,44.76559,39.87957,9.6,39.84516,9.35914z M28.73118,6.60645c-0.68817,0.20645-1.47957,0.44731-2.30537,0.72258
	c0-0.17204,0-0.30968,0-0.51613c0-1.51398-0.20645-2.75269-0.55054-3.75054C27.25161,3.26882,28.14624,4.8172,28.73118,6.60645z
	 M24.15484,3.40645c0.37849,0.96344,0.61935,2.30538,0.61935,4.16344c0,0.10323,0,0.17204,0,0.27527
	c-1.51398,0.48172-3.13118,0.96344-4.78279,1.47957C20.92043,5.78064,22.67527,4.06021,24.15484,3.40645z M22.33118,1.65161
	c0.27527,0,0.55054,0.10323,0.7914,0.27527c-1.9957,0.92903-4.09462,3.26882-4.98925,7.9828
	c-1.30753,0.4129-2.58064,0.7914-3.78495,1.16989C15.38065,7.50107,17.89247,1.65161,22.33118,1.65161z"/>
<path fill="#5E8E3E" d="M39.43226,8.94624c-0.17204,0-3.85376-0.27527-3.85376-0.27527s-2.54624-2.54624-2.85592-2.82151
	c-0.10323-0.10323-0.24086-0.17204-0.37849-0.17204L30.27957,48l14.83011-3.2c0,0-5.1957-35.2-5.23011-35.44086
	C39.81075,9.11828,39.6043,8.98065,39.43226,8.94624z"/>
<path fill="#FFFFFF" d="M25.22151,17.13548l-1.82366,5.43656c0,0-1.6172-0.86021-3.57849-0.86021
	c-2.89032,0-3.02796,1.82366-3.02796,2.27097c0,2.47742,6.46882,3.44086,6.46882,9.25591c0,4.57635-2.89032,7.53548-6.8129,7.53548
	c-4.71398,0-7.08817-2.92473-7.08817-2.92473l1.27312-4.16344c0,0,2.47742,2.13333,4.54193,2.13333
	c1.37634,0,1.92688-1.06667,1.92688-1.85807c0-3.23441-5.29892-3.37204-5.29892-8.70538c0-4.47312,3.2-8.8086,9.70323-8.8086
	C23.9828,16.4129,25.22151,17.13548,25.22151,17.13548z"/>
</g><g  transform="translate(120, 312)">
<path fill="#444444" d="M1.72815,19.73523c-0.01558,0.08164-0.026,0.16442-0.04006,0.24681
	c0.04234,0.07572,0.07944,0.15334,0.12246,0.22791L1.72815,19.73523z"/>
<path fill="#444444" d="M46.25923,28.25101c0.01634-0.08423,0.02669-0.16959,0.04226-0.2542
	c-0.04226-0.07541-0.07936-0.15371-0.12391-0.22904L46.25923,28.25101z"/>
<path fill="#444444" d="M27.75181,46.07695c0.07723,0.04493,0.15515,0.08316,0.23086,0.12619
	c0.08537-0.01521,0.16929-0.02524,0.25313-0.0415L27.75181,46.07695z"/>
<path fill="#00AEF3" d="M46.30149,27.99681c-0.01558,0.08461-0.02592,0.16997-0.04226,0.2542l-0.08164-0.48323
	C46.22213,27.84311,46.25923,27.92141,46.30149,27.99681c0.24721-1.34816,0.37712-2.72852,0.37712-4.10814
	c0-3.05995-0.59901-6.02861-1.78235-8.82243c-1.14168-2.69956-2.77489-5.12365-4.85789-7.20481
	c-2.08002-2.08155-4.50532-3.71507-7.20374-4.85683c-2.79344-1.18219-5.7621-1.7809-8.82129-1.7809
	c-1.44233,0-2.88618,0.13554-4.29218,0.405c-0.00304,0.00039-0.00668,0.00069-0.01041,0.00183
	c0.07868,0.04158,0.15887,0.07868,0.23603,0.12216l-0.47655-0.07427c0.08012-0.01558,0.16032-0.03193,0.24051-0.04789
	c-1.9286-1.02553-4.09704-1.573-6.29284-1.573c-3.58408,0-6.95358,1.39557-9.48795,3.93071C1.39634,6.52226,0,9.89251,0,13.47652
	c0,2.28124,0.58646,4.52387,1.68809,6.50553c0.01406-0.08239,0.02448-0.16517,0.04006-0.24681l0.0824,0.47472
	c-0.04303-0.07457-0.08012-0.15219-0.12246-0.22791C1.4646,21.26596,1.34663,22.578,1.34663,23.88868
	c0,3.05995,0.59909,6.02815,1.78235,8.82273c1.14024,2.70032,2.7749,5.12333,4.85568,7.2045
	c2.08231,2.08079,4.50532,3.71688,7.20595,4.85561c2.79344,1.18479,5.76278,1.78387,8.82274,1.78387
	c1.3318,0,2.6665-0.12102,3.96933-0.35226c-0.07571-0.04303-0.15363-0.08126-0.23086-0.12619l0.484,0.08468
	c-0.08385,0.01627-0.16777,0.0263-0.25313,0.0415c2.00728,1.13583,4.28039,1.73932,6.60093,1.73932
	c3.58408,0,6.95206-1.39375,9.48644-3.92958C46.60519,41.48002,48,38.10977,48,34.52531
	C48,32.23631,47.41057,29.98631,46.30149,27.99681z"/>
<path fill="#FFFFFF" d="M24.10395,37.76975c-8.053,0-11.65487-3.95854-11.65487-6.92606c0-1.52184,1.12321-2.5882,2.67174-2.5882
	c3.44596,0,2.55368,4.94812,8.98312,4.94812c3.29081,0,5.10882-1.78722,5.10882-3.61639c0-1.09973-0.54268-2.31903-2.71036-2.85319
	l-7.16209-1.78828c-5.76803-1.44613-6.81477-4.56431-6.81477-7.49549c0-6.08646,5.73018-8.37105,11.11143-8.37105
	c4.95663,0,10.80037,2.73924,10.80037,6.39051c0,1.5645-1.35476,2.47426-2.90252,2.47426c-2.94122,0-2.3993-4.07066-8.32323-4.07066
	c-2.93962,0-4.56834,1.33135-4.56834,3.23623c0,1.90116,2.32206,2.508,4.33748,2.9679l5.30182,1.17658
	c5.80664,1.29319,7.27869,4.68351,7.27869,7.8774C35.56125,34.07695,31.76569,37.76975,24.10395,37.76975z"/>
</g><g  transform="translate(216, 312)">
<path fill="#E8A723" d="M31.12806,2.95564c-0.72973-2.24588-3.14193-3.47495-5.38779-2.74522s-3.47495,3.14192-2.74522,5.38779
	l11.05633,34.01661c0.75905,2.09814,3.02547,3.27717,5.20114,2.65093c2.26931-0.6532,3.65282-3.0634,2.92856-5.29243
	C42.15357,36.88866,31.12806,2.95564,31.12806,2.95564z"/>
<path fill="#3EB890" d="M13.99657,8.522c-0.72973-2.24588-3.14193-3.47495-5.38779-2.74522S5.13383,8.9187,5.86356,11.16458
	l11.05633,34.01661c0.75905,2.09814,3.02547,3.27718,5.20114,2.65093c2.26931-0.65321,3.65281-3.0634,2.92856-5.29243
	C25.02208,42.45502,13.99657,8.522,13.99657,8.522z"/>
<path fill="#E01765" d="M45.04435,31.12819c2.24588-0.72973,3.47495-3.14193,2.74522-5.38779s-3.14192-3.47495-5.38779-2.74522
	L8.38517,34.05151c-2.09814,0.75905-3.27717,3.02547-2.65093,5.20114c0.6532,2.26931,3.0634,3.65281,5.29243,2.92856
	C11.11134,42.1537,45.04435,31.12819,45.04435,31.12819z"/>
<path fill="#472A49" d="M15.47503,40.73585c2.21416-0.71942,5.06799-1.64669,8.13014-2.64164
	c-0.71939-2.21407-1.64677-5.06822-2.6419-8.13092l-8.13067,2.64268L15.47503,40.73585z"/>
<path fill="#CC2027" d="M32.60652,35.16949c3.07377-0.99873,5.93052-1.92694,8.13013-2.64164
	c-0.71952-2.21446-1.6471-5.06926-2.64244-8.13259l-8.13067,2.64268L32.60652,35.16949z"/>
<path fill="#70CADB" d="M39.478,13.9967c2.24588-0.72973,3.47495-3.14193,2.74522-5.38779
	c-0.72973-2.24587-3.14192-3.47495-5.3878-2.74522L2.81881,16.92002c-2.09814,0.75905-3.27717,3.02547-2.65093,5.20114
	c0.6532,2.26931,3.0634,3.65281,5.29243,2.92856C5.54498,25.02221,39.478,13.9967,39.478,13.9967z"/>
<path fill="#1A937D" d="M9.907,23.6049c2.21439-0.7195,5.06888-1.64698,8.1318-2.64218
	c-0.99878-3.07391-1.92707-5.9309-2.6419-8.13092l-8.13233,2.64322L9.907,23.6049z"/>
<path fill="#65863A" d="M27.03849,18.03854c3.07442-0.99894,5.9318-1.92736,8.13181-2.64218
	c-0.99903-3.07468-1.92754-5.93235-2.64244-8.13259l-8.13233,2.64323L27.03849,18.03854z"/>
</g><g  transform="translate(312, 312)">
<path fill="#F26E20" d="M0.90231,24.60858c-0.01711-0.11867-0.1021-0.20045-0.20687-0.20045
	c-0.10531,0-0.19244,0.08446-0.20687,0.20045C0.48857,24.60965,0,29.07256,0,29.07256l0.48857,4.36509
	c0.0139,0.11707,0.10103,0.20152,0.20687,0.20152c0.10424,0,0.18923-0.08232,0.20633-0.20045l0.55593-4.36617L0.90231,24.60858z"/>
<path fill="#F26E20" d="M8.6019,20.49098c-0.20045,0-0.36616,0.16411-0.37578,0.37258l-0.38915,8.21275l0.38915,5.3075
	c0.01016,0.2074,0.17533,0.37097,0.37578,0.37097c0.19938,0,0.36456-0.1641,0.37632-0.37204v0.0016l0.43993-5.30803
	l-0.43993-8.21275C8.96646,20.65508,8.80128,20.49098,8.6019,20.49098z"/>
<path fill="#F26E20" d="M4.61686,23.34545c-0.15395,0-0.27957,0.12294-0.29186,0.28705l-0.43833,5.44167L4.325,34.3389
	c0.01176,0.16304,0.13791,0.28598,0.29186,0.28598c0.15235,0,0.27796-0.12294,0.29133-0.28598l0.4982-5.26473l-0.4982-5.44274
	C4.89483,23.4684,4.76921,23.34545,4.61686,23.34545z"/>
<path fill="#F26E20" d="M12.65161,34.75424c0.24856,0,0.45062-0.20045,0.46078-0.45704l0.38167-5.21823l-0.38113-10.93412
	c-0.01016-0.25658-0.21221-0.45704-0.46078-0.45704c-0.2507,0-0.45329,0.20099-0.46131,0.45757l-0.33837,10.93305l0.33837,5.22037
	C12.19885,34.55325,12.40144,34.75424,12.65161,34.75424z"/>
<path fill="#F26E20" d="M20.9424,34.77883c0.34211,0,0.62435-0.28171,0.63076-0.62809v0.00374v-0.00374l0.2662-5.06856
	l-0.2662-12.62809c-0.00588-0.34585-0.28865-0.62809-0.63076-0.62809c-0.34264,0-0.62542,0.2817-0.63076,0.62862l-0.23787,12.62328
	c0,0.00802,0.23787,5.07604,0.23787,5.07604C20.31698,34.49712,20.60029,34.77883,20.9424,34.77883z"/>
<path fill="#F26E20" d="M16.76547,34.75905c0.29774,0,0.53775-0.23894,0.54577-0.54363v0.00374l0.32393-5.13912L17.3107,18.06682
	c-0.00802-0.30469-0.24803-0.5431-0.54577-0.5431c-0.29988,0-0.53989,0.23841-0.5463,0.5431l-0.28812,11.01376l0.28866,5.13805
	C16.22558,34.52011,16.46559,34.75905,16.76547,34.75905z"/>
<path fill="#F26E20" d="M41.88694,22.56448c-0.83763,0-1.63678,0.16945-2.36483,0.47468
	c-0.48643-5.51009-5.10704-9.83242-10.74328-9.83242c-1.37913,0-2.72351,0.27155-3.91073,0.73072
	c-0.46131,0.17854-0.58426,0.36242-0.58854,0.71896V34.0604c0.00481,0.37418,0.29507,0.68582,0.66016,0.72271
	c0.0155,0.0016,16.83763,0.01016,16.94668,0.01016c3.37619,0,6.11359-2.7374,6.11359-6.11413S45.26313,22.56448,41.88694,22.56448z"/>
</g><g  transform="translate(408, 312)">
<path fill="#1ED75F" d="M24,0C10.8,0,0,10.8,0,24s10.8,24,24,24s24-10.8,24-24S37.32,0,24,0z"/>
<path fill="#191515" d="M35.04,34.68c-0.48,0.72-1.32,0.96-2.04,0.48c-5.64-3.48-12.72-4.2-21.12-2.28
	c-0.84,0.24-1.56-0.36-1.8-1.08c-0.24-0.84,0.36-1.56,1.08-1.8c9.12-2.04,17.04-1.2,23.28,2.64C35.28,33,35.4,33.96,35.04,34.68z
	 M37.92,28.08c-0.6,0.84-1.68,1.2-2.52,0.6c-6.48-3.96-16.32-5.16-23.88-2.76c-0.96,0.24-2.04-0.24-2.28-1.2
	c-0.24-0.96,0.24-2.04,1.2-2.28c8.76-2.64,19.56-1.32,27,3.24C38.16,26.04,38.52,27.24,37.92,28.08z M38.16,21.36
	c-7.68-4.56-20.52-5.04-27.84-2.76c-1.2,0.36-2.4-0.36-2.76-1.44C7.2,15.96,7.92,14.76,9,14.4c8.52-2.52,22.56-2.04,31.44,3.24
	c1.08,0.6,1.44,2.04,0.84,3.12C40.68,21.6,39.24,21.96,38.16,21.36z"/>
</g><g  transform="translate(504, 312)">
<path fill-rule="evenodd" clip-rule="evenodd" fill="#0079BF" d="M6.00032,0C2.68644,0,0,2.68786,0,6.00033v35.99934
	C0,45.31356,2.68786,48,6.00032,48h35.99934C45.31356,48,48,45.31213,48,41.99967V6.00033C48,2.68644,45.31214,0,41.99966,0H6.00032
	L6.00032,0z"/>
<path fill-rule="evenodd" clip-rule="evenodd" fill="#FFFFFF" d="M28,8v18c0,1.10457,0.89543,2,2,2h10c1.10457,0,2-0.89543,2-2V8
	c0-1.10457-0.89543-2-2-2H30C28.89543,6,28,6.89543,28,8z"/>
<path fill-rule="evenodd" clip-rule="evenodd" fill="#FFFFFF" d="M6,8v30c0,1.10457,0.89543,2,2,2h10c1.10457,0,2-0.89543,2-2V8
	c0-1.10457-0.89543-2-2-2H8C6.89543,6,6,6.89543,6,8z"/>
</g><g  transform="translate(600, 312)">
<path fill="#35465D" d="M44,48H4c-2.20914,0-4-1.79086-4-4V4c0-2.20914,1.79086-4,4-4h40c2.20914,0,4,1.79086,4,4v40
	C48,46.20914,46.20914,48,44,48z"/>
<path fill="#FFFFFF" d="M31.56,32.0157c-0.55665,0.26505-1.62151,0.4965-2.41545,0.51705
	c-2.39655,0.06435-2.8608-1.68315-2.88135-2.9517V20.2617h6.01169v-4.53225H26.2851V8.10279c0,0-4.31385,0-4.3857,0
	c-0.0717,0-0.1977,0.06372-0.21525,0.22412c-0.25635,2.33422-1.34926,6.43067-5.8902,8.06765v3.86715h3.02925v9.78225
	c0,3.3486,2.47125,8.10645,8.99265,7.99515c2.2002-0.0381,4.64354-0.95955,5.18415-1.7535L31.56,32.0157z"/>
</g><g  transform="translate(696, 312)">
<path fill="#69ACE0" d="M48,9.11341c-1.76603,0.78322-3.66389,1.31268-5.65607,1.55067
	c2.03332-1.21873,3.5948-3.14867,4.33001-5.44828c-1.90268,1.12855-4.01024,1.94811-6.25344,2.3898
	c-1.79636-1.914-4.35574-3.10992-7.18805-3.10992c-5.43885,0-9.84807,4.40923-9.84807,9.84756
	c0,0.77191,0.0871,1.5234,0.25495,2.24422c-8.1844-0.41065-15.4407-4.33121-20.29778-10.28923
	C2.49387,7.75272,2.0083,9.44432,2.0083,11.24909c0,3.41649,1.73858,6.43073,4.38093,8.19676
	c-1.61427-0.05109-3.13272-0.49415-4.4605-1.23177c-0.00069,0.04115-0.00084,0.08231-0.00084,0.1238
	c0,4.77144,3.39452,8.75168,7.8996,9.6563c-0.82642,0.22494-1.69641,0.34532-2.5945,0.34532
	c-0.63458,0-1.25149-0.06173-1.8528-0.17661c1.25319,3.91234,4.89001,6.75958,9.19929,6.83914
	c-3.37036,2.64116-7.61654,4.21549-12.23032,4.21549C1.55427,39.21751,0.77036,39.17088,0,39.08
	c4.35814,2.79408,9.53447,4.42431,15.09573,4.42431c18.11374,0,28.0189-15.00571,28.0189-28.01916
	c0-0.42694-0.00959-0.85164-0.02846-1.27394C45.01011,12.82274,46.67978,11.08826,48,9.11341z"/>
</g><g  transform="translate(792, 312)">
<path fill="#00B6EC" d="M47.97669,12.84674c-0.21401,4.67191-3.47672,11.06859-9.78938,19.18898
	c-6.52607,8.47953-12.04804,12.72103-16.56333,12.72103c-2.79888,0-5.16648-2.58128-7.10075-7.74717
	c-1.29142-4.73514-2.58161-9.46995-3.87372-14.20542c-1.43677-5.1629-2.97669-7.7475-4.62488-7.7475
	c-0.35934,0-1.61578,0.75568-3.76738,2.26027l-2.25728-2.90821c2.36887-2.08093,4.70527-4.16179,7.00412-6.2459
	c3.15954-2.72887,5.53299-4.16498,7.11369-4.30991c3.73431-0.35907,6.03375,2.19405,6.89651,7.6589
	c0.93276,5.89692,1.57878,9.56407,1.94071,10.99918c1.07809,4.89276,2.26319,7.33655,3.55655,7.33655
	c1.0035,0,2.51353-1.58662,4.52631-4.76171c2.00887-3.17257,3.08562-5.58687,3.23089-7.24641
	c0.28741-2.73857-0.79002-4.11084-3.23089-4.11084c-1.14943,0-2.33453,0.26436-3.55328,0.78683
	c2.35975-7.72545,6.8666-11.47755,13.51848-11.26347C45.93542,3.39658,48.26144,6.59473,47.97669,12.84674z"/>
</g><g  transform="translate(888, 312)">
<path fill="#00B588" d="M45.04031,23.86249c-1.23651,0.28503-2.43256,0.4108-3.50921,0.4108
	c-6.05619,0-10.71894-4.22966-10.71894-11.58407c0-3.60472,1.39373-5.47936,3.36452-5.47936
	c1.87501,0,3.1249,1.68226,3.1249,5.09503c0,1.94044-0.5197,4.067-0.90343,5.32512c0,0,1.86626,3.25562,6.96952,2.25648
	c1.08365-2.40569,1.67265-5.52128,1.67265-8.25428C45.04031,4.27778,41.2909,0,34.41716,0
	C27.35184,0,23.2179,5.4316,23.2179,12.59365c0,7.095,3.31669,13.18517,8.78593,15.96012
	c-2.29979,4.60044-5.22612,8.6528-8.27802,11.70607c-5.53721-6.69365-10.54292-15.62348-12.59698-33.04998H2.9597
	c3.77423,29.0231,15.0219,38.26446,17.99584,40.03901c1.68233,1.0094,3.13072,0.96137,4.66894,0.09578
	c2.41478-1.37305,9.66525-8.62222,13.68398-17.11358c1.68691-0.00465,3.7136-0.19826,5.73185-0.65435V23.86249z"/>
</g><g  transform="translate(24, 408)">
<path fill="#3AC34C" d="M0.10739,48l3.37542-12.32542c-2.08204-3.60688-3.17763-7.69894-3.17592-11.89098
	C0.31215,10.66928,10.98554,0,24.09976,0c6.36475,0.00253,12.33865,2.47971,16.83067,6.97547
	c4.49214,4.49575,6.96465,10.47174,6.96218,16.82712c-0.00531,13.11432-10.67966,23.785-23.79253,23.785h-0.00006h-0.00974
	c-3.98213-0.00164-7.89481-1.00024-11.36995-2.89505L0.10739,48z"/>
<path fill-rule="evenodd" clip-rule="evenodd" fill="#FFFFFF" d="M18.15336,13.84087
	c-0.48253-1.1589-0.97266-1.0021-1.33759-1.02027c-0.34636-0.01724-0.74309-0.02088-1.13941-0.02088
	s-1.04036,0.14873-1.5853,0.74366c-0.54492,0.59496-2.08067,2.03281-2.08067,4.958c0,2.92519,2.13022,5.7512,2.42748,6.14787
	c0.29723,0.39667,4.19204,6.39961,10.15569,8.97392c1.41836,0.6123,2.52578,0.9779,3.38909,1.25194
	c1.42423,0.45222,2.72022,0.38844,3.74456,0.23544c1.14216-0.17059,3.51729-1.43777,4.01272-2.82601
	c0.49537-1.38824,0.49537-2.57817,0.34674-2.82608c-0.14856-0.24784-0.54491-0.3966-1.13937-0.69412
	c-0.59452-0.29745-3.51734-1.73529-4.06233-1.93359c-0.54491-0.19831-0.9412-0.29746-1.33755,0.29751
	c-0.39628,0.59491-1.5356,1.9336-1.88241,2.3302c-0.34674,0.39667-0.69355,0.44627-1.28801,0.14876
	c-0.59453-0.29745-2.51008-0.92506-4.7808-2.94978c-1.76725-1.57578-2.96047-3.52215-3.30725-4.11712
	c-0.34677-0.59496-0.03689-0.91665,0.26073-1.2129c0.26739-0.26626,0.59446-0.69412,0.89172-1.04118
	c0.29723-0.34706,0.39632-0.59497,0.59446-0.99157c0.19818-0.39667,0.09909-0.74372-0.04955-1.04121
	C19.83772,17.956,18.64879,15.03077,18.15336,13.84087z"/>
</g><g  transform="translate(120, 408)">
<path fill="#464342" d="M3.41166,23.99927c0,8.14911,4.73531,15.19228,11.60371,18.52892L5.19439,15.6204
	C4.05202,18.18073,3.41166,21.01429,3.41166,23.99927z"/>
<path fill="#464342" d="M37.89825,22.9609c0-2.54531-0.91438-4.30689-1.69741-5.67799
	c-1.04336-1.69671-2.02234-3.13217-2.02234-4.8289c0-1.89219,1.43497-3.65398,3.45731-3.65398
	c0.09135,0,0.17796,0.01112,0.2667,0.01667c-3.66273-3.35614-8.543-5.40548-13.9028-5.40548
	c-7.19296,0-13.52052,3.69079-17.20195,9.27956c0.48345,0.01548,0.93875,0.02496,1.32508,0.02496
	c2.15295,0,5.48712-0.26173,5.48712-0.26173c1.10937-0.06497,1.24037,1.56551,0.1317,1.69673c0,0-1.11577,0.13049-2.35614,0.1957
	l7.49693,22.30121l4.50613-13.51259l-3.20743-8.78862c-1.10927-0.06521-2.15947-0.1957-2.15947-0.1957
	c-1.10973-0.06557-0.97958-1.7617,0.13061-1.69673c0,0,3.39935,0.26173,5.42229,0.26173c2.15273,0,5.48748-0.26173,5.48748-0.26173
	c1.10985-0.06497,1.24071,1.56551,0.13134,1.69673c0,0-1.11695,0.13049-2.35623,0.1957l7.44046,22.1313l2.05406-6.86117
	C37.22052,26.76762,37.89825,24.72282,37.89825,22.9609z"/>
<path fill="#464342" d="M24.36118,25.80025L18.1833,43.74998c1.84496,0.54261,3.79559,0.83889,5.81641,0.83889
	c2.39752,0,4.69698-0.41388,6.83692-1.16711c-0.05464-0.08827-0.10577-0.18198-0.14743-0.28373L24.36118,25.80025z"/>
<path fill="#464342" d="M42.06599,14.12222c0.0885,0.65572,0.13844,1.35915,0.13844,2.11711
	c0,2.08837-0.39118,4.43692-1.56564,7.37409l-6.28828,18.18142c6.12074-3.56879,10.23711-10.19997,10.23711-17.79557
	C44.58764,20.41973,43.67302,17.05457,42.06599,14.12222z"/>
<path fill="#464342" d="M23.99971,0.00017C10.76601,0.00017,0,10.76593,0,23.99927c0,13.23431,10.76601,24.00056,23.99971,24.00056
	C37.23329,47.99983,48,37.23358,48,23.99927C48,10.76593,37.23329,0.00017,23.99971,0.00017z M23.99971,46.89945
	c-12.6265,0-22.89909-10.27334-22.89909-22.90018c0-12.62635,10.27259-22.8986,22.89909-22.8986
	c12.62635,0,22.89945,10.27225,22.89945,22.8986C46.89916,36.62611,36.62606,46.89945,23.99971,46.89945z"/>
</g><g  transform="translate(216, 408)">
<path fill="#C60D00" d="M7.03213,23.10837c-0.76181,1.24979-1.08333,5.18385-0.82,7.79621
	c0.0932,0.86244,0.24624,1.57964,0.46639,2.00905c0.30435,0.59303,0.81737,0.94627,1.40261,0.96644
	c0.37408,0.021,0.60705-0.04551,7.65052-2.36327c0,0,3.13108-1.01975,3.1442-1.02672
	c0.78026-0.20118,1.30558-0.93585,1.35829-1.87514c0.04949-0.96029-0.43692-1.81133-1.23592-2.11658
	c0,0-2.20633-0.92093-2.21188-0.92093c-7.56886-3.19331-7.90793-3.31921-8.29094-3.32438
	C7.91316,22.23034,7.39076,22.53116,7.03213,23.10837z"/>
<path fill="#C60D00" d="M23.96529,46.90392c0.1223-0.36209,0.13684-0.61222,0.15686-8.18206c0,0,0.01799-3.34448,0.02017-3.37942
	c0.04911-0.81782-0.46638-1.56292-1.31885-1.90055c-0.87421-0.34372-1.81515-0.13032-2.34272,0.54399
	c0,0-1.54282,1.87521-1.54874,1.87521c-5.30577,6.37066-5.52419,6.66451-5.65376,7.04234
	c-0.07866,0.22472-0.11202,0.45829-0.08338,0.69523c0.03172,0.33584,0.17958,0.67093,0.42837,0.98053
	c1.22827,1.49723,7.12602,3.71624,9.00873,3.38819C23.28775,47.84411,23.76141,47.468,23.96529,46.90392z"/>
<path fill="#C60D00" d="M35.92545,44.26959c1.77752-0.72507,5.65871-5.77253,5.93119-7.7141
	c0.09305-0.67604-0.11337-1.25857-0.56821-1.62943c-0.29798-0.22907-0.52802-0.3192-7.56594-2.68239
	c0,0-3.08774-1.04344-3.12793-1.06354c-0.74562-0.29565-1.60056-0.02279-2.17424,0.70415
	c-0.59333,0.74247-0.68571,1.7185-0.2104,2.46202l1.24364,2.06754c4.17962,6.94344,4.49769,7.4342,4.7995,7.67466
	C34.71779,44.46289,35.30932,44.5249,35.92545,44.26959L35.92545,44.26959z"/>
<path fill="#C60D00" d="M32.29087,26.39781c8.00016-1.98101,8.30833-2.08771,8.62438-2.29939
	c0.48431-0.33232,0.7271-0.89123,0.68571-1.57259c0-0.02272,0.00345-0.04281,0-0.06808
	c-0.20523-2.00816-3.64958-7.23572-5.34461-8.08324c-0.59985-0.29565-1.20218-0.27548-1.69766,0.06553
	c-0.30945,0.2074-0.53769,0.517-4.82041,6.50892c0,0-1.93655,2.69821-1.96009,2.72356
	c-0.51085,0.63314-0.51602,1.54544-0.01882,2.32465c0.51557,0.80643,1.38933,1.20083,2.18916,0.97341
	c0,0-0.03329,0.05781-0.04222,0.06921C30.30003,26.88579,31.00621,26.71003,32.29087,26.39781z"/>
<path fill="#C60D00" d="M24.25682,19.64055L24.25682,19.64055c-0.13677-3.2422-1.08918-17.6838-1.20165-18.35369
	c-0.16413-0.60525-0.62497-1.03812-1.29276-1.2105c-2.03965-0.51865-9.8444,1.71955-11.29282,3.24655
	c-0.46339,0.4951-0.63614,1.10733-0.49713,1.646c0.22607,0.48026,9.89952,16.04395,9.89952,16.04395
	c1.43087,2.37099,2.59669,2.00366,2.97752,1.88204C23.23002,22.77433,24.38893,22.40692,24.25682,19.64055z"/>
</g><g  transform="translate(312, 408)">
<path fill="#DC2217" d="M47.52067,14.40299c0,0-0.46905-3.30774-1.90818-4.76436c-1.82526-1.91181-3.8712-1.92128-4.80944-2.03319
	c-6.71693-0.48554-16.79262-0.48554-16.79262-0.48554h-0.02086c0,0-10.07549,0-16.79263,0.48554
	c-0.9383,0.11191-2.98351,0.12138-4.80944,2.03319c-1.43915,1.45662-1.90747,4.76436-1.90747,4.76436S0,18.28732,0,22.17164v3.64157
	c0,3.88428,0.48004,7.76861,0.48004,7.76861s0.46832,3.30776,1.90747,4.76437c1.82593,1.91181,4.2244,1.85136,5.29267,2.05173
	c3.84009,0.36823,16.31986,0.48218,16.31986,0.48218s10.08609-0.01519,16.80302-0.50072
	c0.93823-0.11193,2.98418-0.12138,4.80944-2.03319c1.43913-1.45662,1.90818-4.76437,1.90818-4.76437S48,29.69749,48,25.81321
	v-3.64157C48,18.28732,47.52067,14.40299,47.52067,14.40299z"/>
<path fill="#FFFFFF" d="M19.04457,30.22611l-0.0022-13.48673l12.96982,6.76686L19.04457,30.22611z"/>
</g></svg>