<svg xmlns="http://www.w3.org/2000/svg" xmlns:xlink="http://www.w3.org/1999/xlink" x="0px" y="0px" width="48px" height="48px" viewBox="0 0 48 48"><g >
<path fill="#444444" d="M19.4,22.4c0,0,4.5-0.3,4.5-5.7c0-5.3-3.7-7.9-8.4-7.9H6.8H6.6H0v29.8h6.6h0.3h8.7c0,0,9.5,0.3,9.5-8.8
	C24.9,29.8,25.4,22.4,19.4,22.4z M6.8,14.1h7.5h1.1c0,0,2.1,0,2.1,3.1s-1.2,3.5-2.6,3.5H6.8V14.1z M15.1,33.3H6.8v-8h8.7
	c0,0,3.1,0,3.1,4.1C18.6,32.9,16.3,33.2,15.1,33.3z"/>
<path fill="#444444" d="M37.6,16.4c-11.4,0-11.4,11.4-11.4,11.4s-0.8,11.4,11.4,11.4c0,0,10.2,0.6,10.2-7.9h-5.2
	c0,0,0.2,3.2-4.8,3.2c0,0-5.2,0.4-5.2-5.2h15.4C47.9,29.3,49.6,16.4,37.6,16.4z M42.2,25.3h-9.8c0,0,0.6-4.6,5.2-4.6
	C42.3,20.7,42.2,25.3,42.2,25.3z"/>
<rect data-color="color-2" x="31" y="10" fill="#444444" width="13" height="4"/>
</g></svg>