<svg xmlns="http://www.w3.org/2000/svg" xmlns:xlink="http://www.w3.org/1999/xlink" x="0px" y="0px" width="48px" height="48px" viewBox="0 0 48 48"><g >
<path fill="#444444" d="M39.9,9.3c0-0.2-0.2-0.4-0.4-0.4c-0.2,0-3.9-0.3-3.9-0.3S33,6.1,32.7,5.8c-0.3-0.3-0.8-0.2-1-0.1
	c0,0-0.6,0.2-1.4,0.4c-0.9-2.5-2.4-4.7-5-4.7c-0.1,0-0.1,0-0.2,0c-0.8-1-1.7-1.4-2.5-1.4c-6.2,0-9.1,7.7-10.1,11.7
	C10,12.4,8.3,12.9,8.1,13c-1.3,0.4-1.4,0.5-1.6,1.7c-0.1,1-3.6,28.1-3.6,28.1L30.3,48l14.8-3.2C45.1,44.8,39.9,9.6,39.9,9.3z
	 M24.8,7.6c0,0.1,0,0.2,0,0.3c-1.5,0.5-3.1,1-4.8,1.5c0.9-3.6,2.6-5.3,4.2-5.9C24.6,4.4,24.8,5.7,24.8,7.6z M22.3,1.7
	c0.3,0,0.5,0.1,0.8,0.3c-2,0.9-4.1,3.3-5,8c-1.3,0.4-2.6,0.8-3.8,1.2C15.4,7.5,17.9,1.7,22.3,1.7z M23.4,22.6c0,0-1.6-0.9-3.6-0.9
	c-2.9,0-3,1.8-3,2.3c0,2.5,6.5,3.4,6.5,9.3c0,4.6-2.9,7.5-6.8,7.5c-4.7,0-7.1-2.9-7.1-2.9l1.3-4.2c0,0,2.5,2.1,4.6,2.1
	c1.4,0,1.9-1.1,1.9-1.9c0-3.2-5.3-3.4-5.3-8.7c0-4.5,3.2-8.8,9.7-8.8c2.5,0,3.7,0.7,3.7,0.7L23.4,22.6z M26.4,7.3c0-0.2,0-0.3,0-0.5
	c0-1.5-0.2-2.8-0.6-3.7c1.4,0.2,2.3,1.7,2.9,3.5C28.1,6.8,27.3,7.1,26.4,7.3z"/>
</g></svg>