<svg xmlns="http://www.w3.org/2000/svg" xmlns:xlink="http://www.w3.org/1999/xlink" x="0px" y="0px" width="48px" height="48px" viewBox="0 0 48 48"><g >
<path fill-rule="evenodd" clip-rule="evenodd" fill="#444444" d="M46.7,18.6c-1-0.4-5.3,0-6.5-1c-0.8-0.8-0.9-2.2-1.2-4.1
	c-0.6-3.2-0.8-3.9-1.4-5.1C35.5,3.8,30.4,0,25.8,0H15.2C6.9,0,0.1,6.8,0.1,15.2v17.7C0.1,41.2,6.9,48,15.2,48h17.4
	c8.3,0,15.1-6.8,15.2-15.1l0.1-12.3C47.9,20.6,47.9,19.1,46.7,18.6z M15,12h8c1.7,0,3,1.3,3,3v0c0,1.7-1.3,3-3,3h-8
	c-1.7,0-3-1.3-3-3v0C12,13.3,13.3,12,15,12z M33,36H15c-1.7,0-3-1.3-3-3v0c0-1.7,1.3-3,3-3h18c1.7,0,3,1.3,3,3v0
	C36,34.7,34.7,36,33,36z"/>
</g></svg>