<svg xmlns="http://www.w3.org/2000/svg" xmlns:xlink="http://www.w3.org/1999/xlink" x="0px" y="0px" width="48px" height="48px" viewBox="0 0 48 48"><g >
<rect x="20.7" y="20.6" transform="matrix(-0.3176 -0.9482 0.9482 -0.3176 8.8649 54.3798)" fill="#444444" width="6.5" height="6.8"/>
<rect x="20.7" y="20.6" transform="matrix(-0.3176 -0.9482 0.9482 -0.3176 8.865 54.3798)" fill="#444444" width="6.5" height="6.8"/>
<path fill="#444444" d="M46,17.4C41,0.9,33.9-2.9,17.4,2C0.9,7-2.9,14.1,2,30.6C7,47.1,14.1,50.9,30.6,46C47.1,41,50.9,33.9,46,17.4
	z M37.6,28.1l-3.1,1l1.1,3.2c0.4,1.3-0.3,2.7-1.6,3.1c-0.3,0.1-0.6,0.1-0.9,0.1c-1,0-2-0.7-2.3-1.7l-1.1-3.2l-6.4,2.1l1.1,3.2
	c0.4,1.3-0.3,2.7-1.6,3.1c-0.3,0.1-0.6,0.1-0.9,0.1c-1,0-2-0.7-2.3-1.7l-1.1-3.2l-3.1,1c-0.3,0.1-0.6,0.1-0.9,0.1
	c-1,0-2-0.7-2.3-1.7c-0.4-1.3,0.3-2.7,1.6-3.1l3.1-1L15,23.6l-3.1,1c-0.3,0.1-0.6,0.1-0.9,0.1c-1,0-2-0.7-2.3-1.7
	c-0.4-1.3,0.3-2.7,1.6-3.1l3.1-1l-1.1-3.2c-0.4-1.3,0.3-2.7,1.6-3.1c1.3-0.4,2.7,0.3,3.1,1.6l1.1,3.2l6.4-2.1l-1.1-3.2
	c-0.4-1.3,0.3-2.7,1.6-3.1c1.3-0.4,2.7,0.3,3.1,1.6l1.1,3.2l3.1-1c1.3-0.4,2.7,0.3,3.1,1.6c0.4,1.3-0.3,2.7-1.6,3.1l-3.1,1l2.1,6.2
	l3.1-1c1.3-0.4,2.7,0.3,3.1,1.6C39.7,26.3,39,27.7,37.6,28.1z"/>
</g></svg>