<svg xmlns="http://www.w3.org/2000/svg" xmlns:xlink="http://www.w3.org/1999/xlink" x="0px" y="0px" width="48px" height="48px" viewBox="0 0 48 48"><g >
<path fill="#444444" d="M19.9,1.8c-0.1,0-0.2-0.1-0.2-0.1c-0.1,0-0.2,0-0.2,0L19.9,1.8z"/>
<path fill="#444444" d="M1.7,19.7c0,0.1,0,0.2,0,0.2c0,0.1,0.1,0.2,0.1,0.2L1.7,19.7z"/>
<path fill="#444444" d="M46.3,28.3c0-0.1,0-0.2,0-0.3c0-0.1-0.1-0.2-0.1-0.2L46.3,28.3z"/>
<path fill="#444444" d="M27.8,46.1c0.1,0,0.2,0.1,0.2,0.1c0.1,0,0.2,0,0.3,0L27.8,46.1z"/>
<path fill="#444444" d="M46.3,28c0,0.1,0,0.2,0,0.3l-0.1-0.5C46.2,27.8,46.3,27.9,46.3,28c0.2-1.3,0.4-2.7,0.4-4.1
	c0-3.1-0.6-6-1.8-8.8c-1.1-2.7-2.8-5.1-4.9-7.2C38,5.8,35.5,4.1,32.8,3C30,1.8,27.1,1.2,24,1.2c-1.4,0-2.9,0.1-4.3,0.4c0,0,0,0,0,0
	c0.1,0,0.2,0.1,0.2,0.1l-0.5-0.1c0.1,0,0.2,0,0.2,0c-1.9-1-4.1-1.6-6.3-1.6c-3.6,0-7,1.4-9.5,3.9C1.4,6.5,0,9.9,0,13.5
	C0,15.8,0.6,18,1.7,20c0-0.1,0-0.2,0-0.2l0.1,0.5c0-0.1-0.1-0.2-0.1-0.2c-0.2,1.3-0.3,2.6-0.3,3.9c0,3.1,0.6,6,1.8,8.8
	c1.1,2.7,2.8,5.1,4.9,7.2c2.1,2.1,4.5,3.7,7.2,4.9C18,46,21,46.6,24,46.6c1.3,0,2.7-0.1,4-0.4c-0.1,0-0.2-0.1-0.2-0.1l0.5,0.1
	c-0.1,0-0.2,0-0.3,0c2,1.1,4.3,1.7,6.6,1.7c3.6,0,7-1.4,9.5-3.9c2.5-2.5,3.9-5.9,3.9-9.5C48,32.2,47.4,30,46.3,28z M24.1,37.8
	c-8.1,0-11.7-4-11.7-6.9c0-1.5,1.1-2.6,2.7-2.6c3.4,0,2.6,4.9,9,4.9c3.3,0,5.1-1.8,5.1-3.6c0-1.1-0.5-2.3-2.7-2.9l-7.2-1.8
	c-5.8-1.4-6.8-4.6-6.8-7.5c0-6.1,5.7-8.4,11.1-8.4c5,0,10.8,2.7,10.8,6.4c0,1.6-1.4,2.5-2.9,2.5c-2.9,0-2.4-4.1-8.3-4.1
	c-2.9,0-4.6,1.3-4.6,3.2c0,1.9,2.3,2.5,4.3,3l5.3,1.2c5.8,1.3,7.3,4.7,7.3,7.9C35.6,34.1,31.8,37.8,24.1,37.8z"/>
</g></svg>