<svg xmlns="http://www.w3.org/2000/svg" xmlns:xlink="http://www.w3.org/1999/xlink" x="0px" y="0px" width="48px" height="48px" viewBox="0 0 48 48"><g >
<path fill="#444444" d="M48,18.7c0-1.8-0.8-12.8-0.8-12.8c0-1.7-0.6-2.9-1.4-3.7c-0.8-0.8-1.9-1.4-3.7-1.4c0,0-10.9-0.8-12.8-0.8
	c-2.6,0-4.4-0.1-7.7,3.2C20,4.8,2.2,22.7,1.4,23.4c-0.8,0.8-3.3,3.7,1,8l14.1,14.1c4.3,4.3,7.3,1.8,8,1c0.7-0.8,18.6-18.6,20.2-20.2
	C48.1,23.1,48,21.3,48,18.7z M28.9,24.6l6.1,2.9l-2.2,4l-5.6-3.7c-0.1-0.1-0.3-0.1-0.4-0.1c-0.1,0-0.3,0-0.4,0.1
	c-0.3,0.1-0.4,0.4-0.4,0.7l0.5,6.7h-4.5c0,0,0,0,0,0c0-0.1,0.4-6.7,0.4-6.7c0-0.3-0.1-0.6-0.4-0.7c-0.3-0.1-0.6-0.1-0.8,0l-5.5,3.7
	l-2.5-3.9l6.2-3.1c0.3-0.1,0.4-0.4,0.4-0.7c0-0.3-0.2-0.6-0.4-0.7l-6.1-2.9l2.2-4l5.6,3.7c0.2,0.2,0.6,0.2,0.8,0
	c0.3-0.1,0.4-0.4,0.4-0.7l-0.5-6.7h4.5L26,19.3c0,0.3,0.1,0.6,0.4,0.7c0.3,0.1,0.6,0.1,0.8,0l5.5-3.7l2.5,3.9l-6.2,3.1
	c-0.3,0.1-0.4,0.4-0.4,0.7C28.5,24.2,28.7,24.4,28.9,24.6z M39.4,11.8c-1.6,0-2.9-1.3-2.9-2.9c0-1.6,1.3-2.9,2.9-2.9
	c1.6,0,2.9,1.3,2.9,2.9C42.3,10.5,41,11.8,39.4,11.8z"/>
</g></svg>