<svg xmlns="http://www.w3.org/2000/svg" xmlns:xlink="http://www.w3.org/1999/xlink" x="0px" y="0px" width="48px" height="48px" viewBox="0 0 48 48"><g >
<path fill-rule="evenodd" clip-rule="evenodd" fill="#444444" d="M24,48C10.8,48,0,37.2,0,24S10.8,0,24,0s24,10.8,24,24
	S37.2,48,24,48z M44.2,27.3c-0.7-0.2-6.3-1.9-12.8-0.9c2.7,7.4,3.8,13.4,4,14.6C40.1,37.9,43.3,33,44.2,27.3z M32,42.9
	c-0.3-1.8-1.5-8.1-4.4-15.5c0,0-0.1,0-0.1,0c-11.6,4-15.7,12-16.1,12.8c3.5,2.7,7.8,4.3,12.6,4.3C26.8,44.5,29.5,44,32,42.9z
	 M8.8,37.7c0.5-0.8,6.1-10.1,16.7-13.5c0.3-0.1,0.5-0.2,0.8-0.2c-0.5-1.2-1.1-2.3-1.7-3.5c-10.2,3.1-20.2,2.9-21.1,2.9
	c0,0.2,0,0.4,0,0.6C3.5,29.3,5.5,34.1,8.8,37.7z M3.9,19.8c0.9,0,9.4,0,19-2.5c-3.4-6-7.1-11.1-7.6-11.9C9.5,8.2,5.3,13.5,3.9,19.8z
	 M19.2,4.1c0.6,0.8,4.3,5.8,7.6,12c7.3-2.7,10.4-6.9,10.7-7.4C34,5.5,29.2,3.5,24,3.5C22.3,3.5,20.7,3.7,19.2,4.1z M39.9,11.1
	c-0.4,0.6-3.9,5-11.4,8.1c0.5,1,0.9,2,1.4,3c0.2,0.4,0.3,0.7,0.4,1.1c6.8-0.9,13.6,0.5,14.3,0.7C44.5,19,42.7,14.6,39.9,11.1z"/>
</g></svg>