<svg xmlns="http://www.w3.org/2000/svg" xmlns:xlink="http://www.w3.org/1999/xlink" x="0px" y="0px" width="48px" height="48px" viewBox="0 0 48 48"><g >
<path fill="#444444" d="M48,12.8c-0.2,4.7-3.5,11.1-9.8,19.2c-6.5,8.5-12,12.7-16.6,12.7c-2.8,0-5.2-2.6-7.1-7.7
	c-1.3-4.7-2.6-9.5-3.9-14.2c-1.4-5.2-3-7.7-4.6-7.7c-0.4,0-1.6,0.8-3.8,2.3L0,14.4c2.4-2.1,4.7-4.2,7-6.2c3.2-2.7,5.5-4.2,7.1-4.3
	c3.7-0.4,6,2.2,6.9,7.7c0.9,5.9,1.6,9.6,1.9,11c1.1,4.9,2.3,7.3,3.6,7.3c1,0,2.5-1.6,4.5-4.8c2-3.2,3.1-5.6,3.2-7.2
	c0.3-2.7-0.8-4.1-3.2-4.1c-1.1,0-2.3,0.3-3.6,0.8C29.8,6.8,34.4,3,41,3.3C45.9,3.4,48.3,6.6,48,12.8z"/>
</g></svg>