<svg xmlns="http://www.w3.org/2000/svg" xmlns:xlink="http://www.w3.org/1999/xlink" x="0px" y="0px" width="48px" height="48px" viewBox="0 0 48 48"><g >
<path fill="#444444" d="M21.2,34.4l-1.8-4.8c0,0-2.9,3.2-7.1,3.2c-3.8,0-6.5-3.3-6.5-8.6c0-6.8,3.4-9.2,6.8-9.2
	c4.8,0,6.4,3.1,7.7,7.1l1.8,5.5c1.8,5.3,5.1,9.6,14.6,9.6c6.8,0,11.4-2.1,11.4-7.6c0-4.5-2.5-6.8-7.3-7.9l-3.5-0.8
	c-2.4-0.5-3.1-1.5-3.1-3.2c0-1.9,1.5-3,3.9-3c2.6,0,4.1,1,4.3,3.4l5.5-0.7c-0.4-4.9-3.8-7-9.5-7c-4.9,0-9.8,1.9-9.8,7.9
	c0,3.7,1.8,6.1,6.4,7.2l3.7,0.9c2.8,0.7,3.7,1.8,3.7,3.4c0,2-2,2.9-5.7,2.9c-5.6,0-7.9-2.9-9.2-6.9l-1.8-5.5
	c-2.3-7.1-6-9.8-13.3-9.8C4.3,10.7,0,15.8,0,24.5c0,8.4,4.3,12.9,12,12.9C18.2,37.3,21.2,34.4,21.2,34.4L21.2,34.4z"/>
</g></svg>