<svg xmlns="http://www.w3.org/2000/svg" xmlns:xlink="http://www.w3.org/1999/xlink" x="0px" y="0px" width="48px" height="48px" viewBox="0 0 48 48"><g >
<path fill="#444444" d="M7,23.1c-0.8,1.2-1.1,5.2-0.8,7.8c0.1,0.9,0.2,1.6,0.5,2c0.3,0.6,0.8,0.9,1.4,1c0.4,0,0.6,0,7.7-2.4
	c0,0,3.1-1,3.1-1c0.8-0.2,1.3-0.9,1.4-1.9c0-1-0.4-1.8-1.2-2.1c0,0-2.2-0.9-2.2-0.9c-7.6-3.2-7.9-3.3-8.3-3.3
	C7.9,22.2,7.4,22.5,7,23.1z"/>
<path fill="#444444" d="M24,46.9c0.1-0.4,0.1-0.6,0.2-8.2c0,0,0-3.3,0-3.4c0-0.8-0.5-1.6-1.3-1.9c-0.9-0.3-1.8-0.1-2.3,0.5
	c0,0-1.5,1.9-1.5,1.9c-5.3,6.4-5.5,6.7-5.7,7c-0.1,0.2-0.1,0.5-0.1,0.7c0,0.3,0.2,0.7,0.4,1c1.2,1.5,7.1,3.7,9,3.4
	C23.3,47.8,23.8,47.5,24,46.9z"/>
<path fill="#444444" d="M35.9,44.3c1.8-0.7,5.7-5.8,5.9-7.7c0.1-0.7-0.1-1.3-0.6-1.6c-0.3-0.2-0.5-0.3-7.6-2.7c0,0-3.1-1-3.1-1.1
	c-0.7-0.3-1.6,0-2.2,0.7c-0.6,0.7-0.7,1.7-0.2,2.5l1.2,2.1c4.2,6.9,4.5,7.4,4.8,7.7C34.7,44.5,35.3,44.5,35.9,44.3L35.9,44.3z"/>
<path fill="#444444" d="M32.3,26.4c8-2,8.3-2.1,8.6-2.3c0.5-0.3,0.7-0.9,0.7-1.6c0,0,0,0,0-0.1c-0.2-2-3.6-7.2-5.3-8.1
	c-0.6-0.3-1.2-0.3-1.7,0.1c-0.3,0.2-0.5,0.5-4.8,6.5c0,0-1.9,2.7-2,2.7c-0.5,0.6-0.5,1.5,0,2.3c0.5,0.8,1.4,1.2,2.2,1
	c0,0,0,0.1,0,0.1C30.3,26.9,31,26.7,32.3,26.4z"/>
<path fill="#444444" d="M24.3,19.6L24.3,19.6C24.1,16.4,23.2,2,23.1,1.3c-0.2-0.6-0.6-1-1.3-1.2c-2-0.5-9.8,1.7-11.3,3.2
	C10,3.8,9.8,4.4,10,5c0.2,0.5,9.9,16,9.9,16c1.4,2.4,2.6,2,3,1.9C23.2,22.8,24.4,22.4,24.3,19.6z"/>
</g></svg>