<svg xmlns="http://www.w3.org/2000/svg" xmlns:xlink="http://www.w3.org/1999/xlink" x="0px" y="0px" width="48px" height="48px" viewBox="0 0 48 48"><g >
<path fill="#444444" d="M48,23.6c0-3.2-2.6-5.8-5.8-5.8c-1.4,0-2.6,0.5-3.6,1.3c-3.5-2.2-8-3.5-12.8-3.8l2.5-7.9L35.2,9
	c0.2,2.5,2.3,4.5,4.8,4.5c2.7,0,4.8-2.2,4.8-4.8c0-2.7-2.2-4.8-4.8-4.8c-1.9,0-3.5,1.1-4.3,2.6l-8-1.9c-0.7-0.2-1.3,0.2-1.6,0.9
	l-3.1,9.8c-5.2,0.1-10,1.5-13.8,3.8c-1-0.8-2.2-1.2-3.5-1.2c-3.2,0-5.8,2.6-5.8,5.8c0,2,1,3.7,2.5,4.7c-0.1,0.5-0.1,0.9-0.1,1.4
	c0,4,2.3,7.7,6.5,10.4c4,2.6,9.3,4.1,15,4.1c5.6,0,11-1.4,15-4.1c4.2-2.7,6.5-6.4,6.5-10.4c0-0.4,0-0.8-0.1-1.3
	C46.9,27.4,48,25.6,48,23.6z M40,6.4c1.2,0,2.2,1,2.2,2.2c0,1.2-1,2.2-2.2,2.2s-2.2-1-2.2-2.2C37.8,7.4,38.8,6.4,40,6.4z M13.6,27.1
	c0-1.8,1.5-3.3,3.3-3.3c1.8,0,3.2,1.5,3.2,3.3s-1.5,3.2-3.2,3.2C15.1,30.4,13.6,28.9,13.6,27.1z M31.9,36.7
	c-1.7,1.7-4.2,2.5-7.9,2.5c0,0,0,0,0,0c0,0,0,0,0,0c-3.6,0-6.2-0.8-7.9-2.5c-0.5-0.5-0.5-1.3,0-1.9c0.5-0.5,1.3-0.5,1.9,0
	c1.2,1.2,3.1,1.7,6,1.7c0,0,0,0,0,0c0,0,0,0,0,0c2.9,0,4.9-0.6,6-1.7c0.5-0.5,1.3-0.5,1.9,0C32.4,35.3,32.4,36.2,31.9,36.7z
	 M31.1,30.4c-1.8,0-3.3-1.5-3.3-3.2s1.5-3.3,3.3-3.3c1.8,0,3.2,1.5,3.2,3.3S32.9,30.4,31.1,30.4z"/>
</g></svg>