<svg xmlns="http://www.w3.org/2000/svg" xmlns:xlink="http://www.w3.org/1999/xlink" x="0px" y="0px" width="48px" height="48px" viewBox="0 0 48 48"><g >
<path fill="#444444" d="M45,23.9c-1.2,0.3-2.4,0.4-3.5,0.4c-6.1,0-10.7-4.2-10.7-11.6c0-3.6,1.4-5.5,3.4-5.5c1.9,0,3.1,1.7,3.1,5.1
	c0,1.9-0.5,4.1-0.9,5.3c0,0,1.9,3.3,7,2.3c1.1-2.4,1.7-5.5,1.7-8.3C45,4.3,41.3,0,34.4,0c-7.1,0-11.2,5.4-11.2,12.6
	c0,7.1,3.3,13.2,8.8,16c-2.3,4.6-5.2,8.7-8.3,11.7c-5.5-6.7-10.5-15.6-12.6-33H3c3.8,29,15,38.3,18,40c1.7,1,3.1,1,4.7,0.1
	c2.4-1.4,9.7-8.6,13.7-17.1c1.7,0,3.7-0.2,5.7-0.7V23.9z"/>
</g></svg>