<svg xmlns="http://www.w3.org/2000/svg" xmlns:xlink="http://www.w3.org/1999/xlink" x="0px" y="0px" width="48px" height="48px" viewBox="0 0 48 48"><g >
<path fill="#444444" d="M45.3,21.9c-5.5-5.5-11-11-16.5-16.5c-0.8-0.8-1.6-1.7-2.6-2.1c-1.1-0.5-2.3-0.6-3.4-0.3
	c-1,0.2-1.9,0.8-2.6,1.5C14,10.6,7.8,16.8,1.7,22.9c-0.7,0.7-1.3,1.6-1.5,2.6c-0.5,1.8,0.1,3.8,1.4,5c4.4,4.4,8.7,8.7,13.1,13.1
	c1,1,2.3,1.6,3.7,1.6c3.6,0,7.1,0,10.7,0c1.6,0.1,3.2-0.5,4.4-1.6c3.9-3.9,7.9-7.9,11.8-11.8c0.6-0.7,1.3-1.3,1.9-2
	c1-1.4,1.1-3.2,0.6-4.8C47.2,23.7,46.2,22.8,45.3,21.9z M14.4,28.9c-0.7,0.8-1.8,0.6-2.8,0.4c-0.8-0.6-1.5-1.4-2.2-2.2
	c-0.4-0.4,0.1-0.9,0.4-1.2c4.1-4,8.1-8.1,12.2-12.2c0.5-0.5,1-1.1,1.6-1.6c0.5-0.3,0.9,0.3,1.3,0.6c0.7,0.8,1.6,1.5,2.3,2.4
	c0.4,0.4,0,0.9-0.3,1.2C22.8,20.6,18.6,24.7,14.4,28.9z M27.2,38.5c-0.6,0.7-1.3,1.4-2.1,2.1c-0.7,0.2-1.4,0.1-2.1,0
	c-0.7-0.3-1.1-1-1.7-1.5c-0.4-0.4-1-1-0.5-1.5c0.9-1,1.8-1.9,2.7-2.7c0.4-0.3,0.9-0.2,1.2,0.2c0.8,0.8,1.6,1.6,2.4,2.4
	C27.4,37.6,27.6,38.2,27.2,38.5z M27,27.6c-2.3,2.3-4.6,4.6-6.9,6.9c-0.6,0.8-1.8,0.5-2.7,0.5c-0.9-0.5-1.5-1.4-2.2-2.1
	c-0.5-0.4,0-1,0.3-1.3c2.3-2.3,4.6-4.6,6.9-6.9c0.4-0.4,0.8-0.9,1.3-1.2c0.5-0.2,0.9,0.3,1.2,0.6c0.8,0.8,1.6,1.6,2.3,2.4
	C27.6,26.8,27.3,27.3,27,27.6z"/>
</g></svg>