<svg xmlns="http://www.w3.org/2000/svg" xmlns:xlink="http://www.w3.org/1999/xlink" x="0px" y="0px" width="48px" height="48px" viewBox="0 0 48 48"><g >
<path fill="#444444" d="M0,24c0,9.5,5.5,17.7,13.5,21.6L2.1,14.2C0.7,17.2,0,20.5,0,24z"/>
<path fill="#444444" d="M40.2,22.8c0-3-1.1-5-2-6.6c-1.2-2-2.4-3.7-2.4-5.6c0-2.2,1.7-4.3,4-4.3c0.1,0,0.2,0,0.3,0
	C35.9,2.4,30.2,0,24,0C15.6,0,8.2,4.3,3.9,10.8c0.6,0,1.1,0,1.5,0c2.5,0,6.4-0.3,6.4-0.3c1.3-0.1,1.4,1.8,0.2,2c0,0-1.3,0.2-2.7,0.2
	l8.7,26L23.3,23l-3.7-10.2c-1.3-0.1-2.5-0.2-2.5-0.2c-1.3-0.1-1.1-2.1,0.2-2c0,0,4,0.3,6.3,0.3c2.5,0,6.4-0.3,6.4-0.3
	c1.3-0.1,1.4,1.8,0.2,2c0,0-1.3,0.2-2.7,0.2L36,38.5l2.4-8C39.4,27.2,40.2,24.8,40.2,22.8z"/>
<path fill="#444444" d="M24.4,26.1L17.2,47c2.2,0.6,4.4,1,6.8,1c2.8,0,5.5-0.5,8-1.4c-0.1-0.1-0.1-0.2-0.2-0.3L24.4,26.1z"/>
<path fill="#444444" d="M45.1,12.5c0.1,0.8,0.2,1.6,0.2,2.5c0,2.4-0.5,5.2-1.8,8.6l-7.3,21.2C43.2,40.6,48,32.9,48,24
	C48,19.8,46.9,15.9,45.1,12.5z"/>
</g></svg>